<?xml version="1.0" encoding="UTF-8" standalone="no"?>
<!-- Created with Inkscape (http://www.inkscape.org/) -->

<svg
   xmlns:dc="http://purl.org/dc/elements/1.1/"
   xmlns:cc="http://creativecommons.org/ns#"
   xmlns:rdf="http://www.w3.org/1999/02/22-rdf-syntax-ns#"
   xmlns:svg="http://www.w3.org/2000/svg"
   xmlns="http://www.w3.org/2000/svg"
   xmlns:sodipodi="http://sodipodi.sourceforge.net/DTD/sodipodi-0.dtd"
   xmlns:inkscape="http://www.inkscape.org/namespaces/inkscape"
   width="800"
   height="600"
   viewBox="0 0 211.66666 158.75"
   version="1.1"
   id="svg8"
   inkscape:version="0.92.2 (5c3e80d, 2017-08-06)"
   sodipodi:docname="template.svg">
  <defs
     id="defs2">
    <clipPath
       clipPathUnits="userSpaceOnUse"
       id="clipPath4638">
      <rect
         y="139.72408"
         x="-44.979164"
         height="33.866665"
         width="33.866665"
         id="rect4640"
         style="opacity:1;vector-effect:none;fill:#ff0000;fill-opacity:1;fill-rule:evenodd;stroke:none;stroke-width:1.05833328;stroke-linecap:butt;stroke-linejoin:miter;stroke-miterlimit:4;stroke-dasharray:none;stroke-dashoffset:0;stroke-opacity:1" />
    </clipPath>
  </defs>
  <sodipodi:namedview
     id="base"
     pagecolor="#ffffff"
     bordercolor="#666666"
     borderopacity="1.0"
     inkscape:pageopacity="0.0"
     inkscape:pageshadow="2"
     inkscape:zoom="0.70710678"
     inkscape:cx="191.45235"
     inkscape:cy="216.05608"
     inkscape:document-units="px"
     inkscape:current-layer="layer1"
     showgrid="false"
     units="px"
     inkscape:snap-global="false"
     inkscape:window-width="1600"
     inkscape:window-height="848"
     inkscape:window-x="-8"
     inkscape:window-y="-8"
     inkscape:window-maximized="1" />
  <metadata
     id="metadata5">
    <rdf:RDF>
      <cc:Work
         rdf:about="">
        <dc:format>image/svg+xml</dc:format>
        <dc:type
           rdf:resource="http://purl.org/dc/dcmitype/StillImage" />
        <dc:title></dc:title>
      </cc:Work>
    </rdf:RDF>
  </metadata>
  <g
     inkscape:label="Layer 1"
     inkscape:groupmode="layer"
     id="layer1"
     transform="translate(0,-138.24998)">
    <g
       id="g4554"
       transform="matrix(1.7016492,0,0,1.7016492,-63.092544,-73.980779)"
       style="stroke-width:0.5876652"
       inkscape:export-filename="E:\School\WEB-151\Git\M3T2\images\face.png"
       inkscape:export-xdpi="96"
       inkscape:export-ydpi="96">
      <path
         inkscape:connector-curvature="0"
         id="path4509"
         d="m 17.506154,228.17808 3.741773,6.41446 6.815374,2.6727 6.815373,0.66817 7.617179,-1.33635 3.741775,-3.74177 1.737251,-14.56619 -5.879928,-9.35443 -10.557147,-2.40543 -6.815373,3.87541 -5.211756,5.34539 -2.271791,7.48355 z"
         style="opacity:1;vector-effect:none;fill:#ffd42a;fill-opacity:1;stroke:#000000;stroke-width:0.62194562;stroke-linecap:butt;stroke-linejoin:miter;stroke-miterlimit:4;stroke-dasharray:none;stroke-dashoffset:0;stroke-opacity:1" />
      <path
         id="path3699"
         transform="matrix(0.26458333,0,0,0.26458333,0,138.24998)"
         d="m 120.9668,256.36914 c -1.602,-0.007 -3.20273,0.0468 -4.79883,0.17969 -3.09368,0.25738 -6.19628,0.90011 -9.0918,2.01953 -2.53206,0.9789 -5.06127,2.21528 -7.07031,4.04102 -2.592655,2.35611 -3.621258,6.07323 -6.062501,8.58593 -1.759782,1.81127 -4.040242,3.02971 -6.060547,4.54492 -2.693741,2.02031 -5.766103,3.61639 -8.080078,6.0625 -5.005889,5.29172 -8.58409,11.81477 -12.123046,18.18165 -1.976644,3.55615 -3.970891,7.1887 -5.050782,11.11132 -0.809302,2.93976 -0.841149,6.04735 -1.009765,9.0918 -0.279307,5.04302 -0.551124,10.13173 0,15.15234 0.338759,3.08584 0.92882,6.18534 2.019531,9.0918 1.482346,3.95006 3.749671,7.58269 6.0625,11.11133 2.104584,3.2109 4.52954,6.21365 7.070312,9.0918 1.575719,1.78495 3.292629,3.4452 5.050782,5.05078 1.941936,1.77339 3.663245,3.96957 6.060546,5.05078 4.037216,1.82082 8.734728,1.4986 13.132808,2.01953 4.02648,0.4769 8.09769,0.50769 12.1211,1.00976 4.06482,0.50726 8.04066,1.68364 12.12305,2.02149 4.02684,0.33335 8.10014,0.39813 12.12109,0 5.12572,-0.50755 10.13935,-1.84784 15.15234,-3.03125 3.73647,-0.88207 7.67289,-1.32156 11.11133,-3.0293 4.94613,-2.45654 9.98361,-5.56488 13.13281,-10.10156 2.61163,-3.76226 2.95409,-8.68333 4.03907,-13.13281 0.89184,-3.65745 1.53976,-7.37765 2.02148,-11.11133 0.56178,-4.35417 0.84128,-8.7458 1.00977,-13.13281 0.21966,-5.71998 0,-11.44767 0,-17.17188 0,-3.7039 0.85098,-7.50653 0,-11.11133 -0.69195,-2.93113 -2.52937,-5.47718 -4.04102,-8.08203 -1.82809,-3.15012 -3.95694,-6.11855 -6.06055,-9.09179 -2.91718,-4.12313 -5.55183,-8.51849 -9.09179,-12.1211 -2.69079,-2.73842 -5.59892,-5.47259 -9.08985,-7.07031 -6.24475,-2.85808 -13.38898,-3.18484 -20.20312,-4.04102 -4.76739,-0.59899 -9.58853,-1.16726 -14.39453,-1.18945 z m 9.34765,8.20703 c 2.53409,2.8e-4 5.07416,0.16753 7.57227,0.5586 2.58218,0.40422 5.09987,1.18346 7.57617,2.01953 2.9326,0.99012 5.97043,1.87998 8.58594,3.53515 2.11492,1.33841 3.8416,3.2261 5.55469,5.05078 1.47572,1.57187 2.68491,3.37464 4.04101,5.05079 3.01006,3.72049 6.4038,7.15384 9.0918,11.11328 0.97359,1.4341 1.82743,2.95827 2.52539,4.54492 0.8575,1.94929 1.62327,3.96816 2.01953,6.06055 0.59605,3.14728 0.64888,6.3976 0.50586,9.59765 -0.10629,2.37857 -0.72846,4.70603 -1.00977,7.07031 -0.4196,3.52664 -0.49442,7.09375 -1.01172,10.60743 -0.37511,2.54793 -1.02018,5.04654 -1.51367,7.57422 -0.68964,3.53242 -1.18955,7.1058 -2.02148,10.60742 -0.84995,3.57743 -0.79135,7.68989 -3.0293,10.60742 -0.59749,0.77892 -1.70673,0.97191 -2.52539,1.51367 -1.90963,1.26376 -3.92556,2.43373 -5.55664,4.04102 -1.1992,1.1817 -1.68196,3.0315 -3.0293,4.04101 -1.15116,0.86253 -2.66377,1.10045 -4.04101,1.51563 -2.1506,0.6483 -4.38243,0.99068 -6.56641,1.51562 -2.69975,0.64891 -5.33901,1.58874 -8.08203,2.01953 -2.50034,0.39281 -5.04519,0.51342 -7.57617,0.50586 -2.36302,-0.006 -4.71955,-0.26548 -7.07031,-0.50586 -2.53451,-0.25923 -5.14081,-0.26149 -7.57618,-1.00976 -1.43943,-0.44228 -2.63434,-1.48404 -4.04101,-2.02149 -1.79316,-0.68511 -3.66714,-1.16444 -5.55469,-1.51367 -3.32749,-0.61568 -6.76258,-0.4618 -10.101561,-1.01172 -2.21633,-0.36502 -4.54459,-0.53511 -6.566407,-1.51367 -0.97034,-0.46964 -1.668348,-1.36755 -2.52539,-2.02148 -1.820515,-1.38906 -3.714654,-2.68058 -5.556641,-4.04102 -0.677132,-0.50011 -1.455746,-0.88854 -2.019531,-1.51367 -1.972426,-2.18702 -3.238195,-4.93784 -4.546875,-7.57617 -0.805754,-1.62444 -1.276707,-3.39664 -2.019531,-5.05078 -0.925316,-2.06053 -2.298196,-3.92601 -3.03125,-6.0625 -0.835813,-2.43599 -1.259915,-5.01136 -1.513672,-7.57422 -0.265436,-2.68063 -0.11195,-5.39063 0,-8.08203 0.08425,-2.02557 0.238092,-4.05075 0.503906,-6.06055 0.246807,-1.86607 0.612934,-3.71665 1.009766,-5.55664 0.439033,-2.03569 0.874908,-4.07909 1.515625,-6.06055 0.836836,-2.58799 1.973655,-5.07031 3.03125,-7.57617 0.644742,-1.52765 1.180053,-3.11498 2.019531,-4.54492 1.278546,-2.1778 2.948993,-4.1069 4.546875,-6.0625 1.282734,-1.5699 2.599954,-3.11702 4.039063,-4.54492 1.270427,-1.26055 2.619985,-2.44722 4.041015,-3.53516 1.927941,-1.47606 3.911625,-2.91064 6.060547,-4.04102 0.802397,-0.42209 1.722997,-0.58766 2.525391,-1.00976 1.074469,-0.56519 2.040169,-1.32027 3.031249,-2.02149 0.68719,-0.48619 1.31024,-1.06031 2.01953,-1.51367 2.0945,-1.33874 4.30316,-2.50908 6.56641,-3.53711 1.30968,-0.5949 2.6544,-1.13095 4.04101,-1.51367 1.81446,-0.50082 3.69725,-0.7188 5.55664,-1.01172 2.51672,-0.39636 5.03062,-0.90469 7.57618,-1.00976 0.84212,-0.0348 1.6846,-0.0528 2.52929,-0.0527 z"
         style="opacity:1;vector-effect:none;fill:#000000;fill-opacity:1;stroke:none;stroke-width:2.35066056;stroke-linecap:butt;stroke-linejoin:miter;stroke-miterlimit:4;stroke-dasharray:none;stroke-dashoffset:0;stroke-opacity:1"
         inkscape:connector-curvature="0" />
      <path
         inkscape:connector-curvature="0"
         id="path4515"
         d="m 29.733734,224.83721 -1.469982,-2.73952 -0.467723,-2.80633 -0.133633,-1.87088 0.534538,-1.46999 0.935445,-0.66817 2.071338,-0.26727 1.269529,0.13364 0.868627,0.60135 0.200451,1.33635 0.200454,1.67043 0.334086,2.53906 0.200451,1.46999 -0.133633,0.66817 z"
         style="opacity:1;vector-effect:none;fill:#ffffff;fill-opacity:1;stroke:none;stroke-width:0.62194562;stroke-linecap:butt;stroke-linejoin:miter;stroke-miterlimit:4;stroke-dasharray:none;stroke-dashoffset:0;stroke-opacity:1" />
      <path
         sodipodi:nodetypes="aaaaaaaaaaaaaaaaaaaaaaaaaaaaaaaaaaaaaaaaaaaaa"
         inkscape:connector-curvature="0"
         id="path4511"
         d="m 34.110682,224.29178 c 0.596909,-0.2047 0.23544,-1.24005 0.337444,-1.86278 0.113865,-0.69515 0.278916,-1.38703 0.306411,-2.09091 0.02737,-0.70073 -0.09726,-1.39916 -0.141741,-2.09902 -0.03597,-0.5659 0.02928,-1.14629 -0.10121,-1.69811 -0.07807,-0.33014 -0.202545,-0.66023 -0.400904,-0.93544 -0.313634,-0.43514 -0.746431,-0.78708 -1.202714,-1.06908 -0.408111,-0.25223 -0.86524,-0.44381 -1.336347,-0.53454 -0.437412,-0.0842 -0.892021,-0.0316 -1.33635,0 -0.314187,0.0223 -0.63797,0.0301 -0.935442,0.13364 -0.584439,0.20345 -1.213421,0.45512 -1.603617,0.93544 -0.355275,0.43733 -0.444284,1.04744 -0.534539,1.60362 -0.107029,0.65955 -0.04152,1.33764 0,2.00452 0.04463,0.71688 0.135382,1.43211 0.26727,2.13816 0.101172,0.54162 0.225002,1.08145 0.400903,1.60361 0.108303,0.32149 0.280343,0.61835 0.400905,0.93545 0.100119,0.26333 0.159458,0.54152 0.267269,0.8018 0.114352,0.27607 0.197874,0.58256 0.400904,0.80181 0.17648,0.19058 0.409985,0.37257 0.668174,0.40091 0.280045,0.0307 0.675817,-0.0153 0.801809,-0.26727 0.125992,-0.25198 -0.143492,-0.54873 -0.267269,-0.80181 -0.141128,-0.28856 -0.384997,-0.51752 -0.53454,-0.80181 -0.111676,-0.2123 -0.197342,-0.43871 -0.267269,-0.66817 -0.185919,-0.61009 -0.271545,-1.24636 -0.400905,-1.87089 -0.09214,-0.44483 -0.178178,-0.8909 -0.267268,-1.33635 -0.04454,-0.22272 -0.111254,-0.44214 -0.133636,-0.66817 -0.03951,-0.39895 -0.04898,-0.80481 0,-1.20271 0.06732,-0.54686 0.05614,-1.17382 0.400904,-1.60362 0.06233,-0.0777 0.174439,-0.0975 0.267269,-0.13364 0.302231,-0.11756 0.614288,-0.22228 0.935445,-0.26726 0.264686,-0.0371 0.535782,-0.0257 0.801809,0 0.238265,0.023 0.478217,0.0605 0.704812,0.13768 0.233347,0.0795 0.461477,0.18659 0.661458,0.33073 0.198751,0.14325 0.396747,0.30781 0.519717,0.51971 0.09013,0.15531 0.101538,0.34471 0.141741,0.51972 0.0574,0.24987 0.118017,0.50068 0.141742,0.75595 0.0204,0.21954 0,0.44097 0,0.66146 0,0.26773 0,0.53547 0,0.8032 0,0.29923 0,0.59847 0,0.8977 0,0.22048 0,0.44097 0,0.66145 0,0.25199 0,0.50397 0,0.75596 0,0.23623 -0.01564,0.47299 0,0.7087 0.01578,0.2378 0.04588,0.47539 0.09449,0.70871 0.02339,0.11224 0.03367,0.23353 0.09449,0.33073 0.201551,0.32212 0.489356,0.88418 0.848785,0.76092 z"
         style="opacity:1;vector-effect:none;fill:#000000;fill-opacity:1;stroke:none;stroke-width:0.62194562;stroke-linecap:butt;stroke-linejoin:miter;stroke-miterlimit:4;stroke-dasharray:none;stroke-dashoffset:0;stroke-opacity:1" />
      <path
         style="opacity:1;vector-effect:none;fill:#ffffff;fill-opacity:1;stroke:none;stroke-width:0.62194562;stroke-linecap:butt;stroke-linejoin:miter;stroke-miterlimit:4;stroke-dasharray:none;stroke-dashoffset:0;stroke-opacity:1"
         d="m 39.705722,222.56541 -1.291803,-2.73952 -0.411029,-2.80633 -0.117435,-1.87088 0.469746,-1.46999 0.822057,-0.66817 1.820267,-0.26727 1.115647,0.13364 0.763338,0.60135 0.176154,1.33635 0.176157,1.67043 0.293591,2.53906 0.176154,1.46999 -0.117436,0.66817 z"
         id="path4517"
         inkscape:connector-curvature="0" />
      <path
         style="opacity:1;vector-effect:none;fill:#000000;fill-opacity:1;stroke:none;stroke-width:0.62194562;stroke-linecap:butt;stroke-linejoin:miter;stroke-miterlimit:4;stroke-dasharray:none;stroke-dashoffset:0;stroke-opacity:1"
         d="m 43.500067,222.23306 c 0.503126,-0.20231 0.198449,-1.22553 0.284427,-1.84097 0.09597,-0.68701 0.235093,-1.37079 0.258269,-2.06643 0.02307,-0.69253 -0.08198,-1.38278 -0.119472,-2.07444 -0.03032,-0.55928 0.02468,-1.13287 -0.08531,-1.67823 -0.0658,-0.32627 -0.170722,-0.6525 -0.337916,-0.92449 -0.264357,-0.43004 -0.629155,-0.77786 -1.013748,-1.05656 -0.343991,-0.24927 -0.729297,-0.43861 -1.126386,-0.52828 -0.368688,-0.0832 -0.75187,-0.0312 -1.126388,0 -0.264824,0.022 -0.537735,0.0298 -0.78847,0.13208 -0.492614,0.20106 -1.022773,0.44979 -1.351663,0.92448 -0.299456,0.43221 -0.37448,1.03518 -0.450555,1.58485 -0.09021,0.65182 -0.035,1.32197 0,1.98105 0.03762,0.70848 0.114112,1.41534 0.225278,2.11312 0.08528,0.53528 0.189651,1.06879 0.337915,1.58483 0.09129,0.31773 0.236297,0.61111 0.337916,0.9245 0.08439,0.26025 0.134405,0.53518 0.225277,0.79241 0.09639,0.27284 0.166785,0.57574 0.337916,0.79242 0.148752,0.18835 0.34557,0.36821 0.563193,0.39622 0.236046,0.0303 0.569636,-0.0151 0.675832,-0.26414 0.106197,-0.24903 -0.120947,-0.54231 -0.225277,-0.79242 -0.118954,-0.28519 -0.324507,-0.51146 -0.450555,-0.79243 -0.09413,-0.20981 -0.166336,-0.43357 -0.225277,-0.66034 -0.156708,-0.60295 -0.228881,-1.23177 -0.337916,-1.84899 -0.07766,-0.43962 -0.150184,-0.88046 -0.225276,-1.3207 -0.03754,-0.22011 -0.09377,-0.43696 -0.11264,-0.66034 -0.0333,-0.39428 -0.04128,-0.79539 0,-1.18863 0.05674,-0.54046 0.04732,-1.16008 0.337916,-1.58484 0.05254,-0.0768 0.147032,-0.0964 0.225277,-0.13208 0.254745,-0.11618 0.517773,-0.21968 0.788471,-0.26413 0.2231,-0.0367 0.451603,-0.0254 0.675833,0 0.200829,0.0227 0.403081,0.0598 0.594075,0.13607 0.196684,0.0786 0.388971,0.1844 0.557532,0.32685 0.167524,0.14158 0.334412,0.30421 0.438061,0.51363 0.07597,0.15349 0.08558,0.34067 0.119472,0.51363 0.04838,0.24695 0.09947,0.49482 0.119472,0.7471 0.01719,0.21697 0,0.43581 0,0.65372 0,0.26459 0,0.5292 0,0.79379 0,0.29573 0,0.59146 0,0.88719 0,0.2179 0,0.43581 0,0.65371 0,0.24904 0,0.49807 0,0.7471 0,0.23347 -0.01318,0.46746 0,0.70041 0.0133,0.23501 0.03867,0.46982 0.07964,0.70041 0.01971,0.11092 0.02838,0.23079 0.07964,0.32686 0.169884,0.31834 0.41247,0.87382 0.715427,0.75201 z"
         id="path4513"
         inkscape:connector-curvature="0"
         sodipodi:nodetypes="aaaaaaaaaaaaaaaaaaaaaaaaaaaaaaaaaaaaaaaaaaaaa" />
      <path
         inkscape:connector-curvature="0"
         id="path4519"
         d="M 32.272795,220.15999 Z"
         style="opacity:1;vector-effect:none;fill:none;fill-opacity:1;stroke:#000000;stroke-width:0.62194562;stroke-linecap:butt;stroke-linejoin:miter;stroke-miterlimit:4;stroke-dasharray:none;stroke-dashoffset:0;stroke-opacity:1" />
      <path
         sodipodi:nodetypes="aaaaaaaaaaaaaa"
         inkscape:connector-curvature="0"
         id="path4521"
         d="m 32.590178,218.43944 c -4.19e-4,-0.11465 0.135771,-0.19036 0.167042,-0.30067 0.03345,-0.11798 0.04011,-0.24713 0.01669,-0.3675 -0.02808,-0.14429 -0.08486,-0.29213 -0.183748,-0.4009 -0.08224,-0.0905 -0.202083,-0.14313 -0.317383,-0.18375 -0.138152,-0.0487 -0.287885,-0.0632 -0.434314,-0.0668 -0.162286,-0.004 -0.345432,-0.0338 -0.484425,0.0501 -0.171892,0.10372 -0.271006,0.31054 -0.334087,0.50113 -0.06832,0.20643 -0.07793,0.43863 -0.03341,0.65147 0.06118,0.29249 0.159231,0.62607 0.400905,0.80181 0.150305,0.1093 0.366182,0.10054 0.551243,0.0835 0.287575,-0.0265 0.601506,-0.0934 0.818513,-0.28397 0.02807,-0.0247 0.05106,-0.0629 0.05011,-0.10023 -0.0037,-0.14705 -0.216598,-0.23709 -0.217136,-0.38419 z"
         style="opacity:1;vector-effect:none;fill:#000000;fill-opacity:1;stroke:none;stroke-width:0.62194562;stroke-linecap:butt;stroke-linejoin:miter;stroke-miterlimit:4;stroke-dasharray:none;stroke-dashoffset:0;stroke-opacity:1" />
      <path
         style="opacity:1;vector-effect:none;fill:#000000;fill-opacity:1;stroke:none;stroke-width:0.62194562;stroke-linecap:butt;stroke-linejoin:miter;stroke-miterlimit:4;stroke-dasharray:none;stroke-dashoffset:0;stroke-opacity:1"
         d="m 42.058541,215.76674 c -3.28e-4,-0.11465 0.106316,-0.19036 0.130803,-0.30067 0.02619,-0.11798 0.03141,-0.24713 0.01307,-0.3675 -0.02199,-0.14429 -0.06645,-0.29213 -0.143885,-0.4009 -0.0644,-0.0905 -0.158242,-0.14313 -0.248528,-0.18375 -0.108181,-0.0487 -0.22543,-0.0632 -0.340092,-0.0668 -0.127079,-0.004 -0.270492,-0.0338 -0.379331,0.0501 -0.134601,0.10372 -0.212213,0.31054 -0.261609,0.50113 -0.0535,0.20643 -0.06102,0.43863 -0.02616,0.65147 0.04791,0.29249 0.124687,0.62607 0.313931,0.80181 0.117697,0.1093 0.286741,0.10054 0.431653,0.0835 0.225187,-0.0265 0.471013,-0.0934 0.640941,-0.28397 0.02198,-0.0247 0.03998,-0.0629 0.03924,-0.10023 -0.0029,-0.14705 -0.169608,-0.23709 -0.17003,-0.38419 z"
         id="path4523"
         inkscape:connector-curvature="0"
         sodipodi:nodetypes="aaaaaaaaaaaaaa" />
      <path
         inkscape:connector-curvature="0"
         id="path4525"
         d="M 34.344133,230.1826 Z"
         style="opacity:1;vector-effect:none;fill:none;fill-opacity:1;stroke:#000000;stroke-width:0.62194562;stroke-linecap:butt;stroke-linejoin:miter;stroke-miterlimit:4;stroke-dasharray:none;stroke-dashoffset:0;stroke-opacity:1" />
      <path
         sodipodi:nodetypes="aaaaaaaaaaaaaaaaa"
         inkscape:connector-curvature="0"
         id="path4527"
         d="m 34.076864,230.1826 c -0.02285,-0.64818 0.28273,-1.27318 0.534538,-1.87089 0.13943,-0.33096 0.269825,-0.69274 0.534541,-0.93544 0.470112,-0.43101 1.121153,-0.6369 1.737251,-0.80181 0.475284,-0.12722 0.991374,-0.24771 1.469983,-0.13364 0.408787,0.0974 0.792167,0.35208 1.069078,0.66818 0.354667,0.40486 0.554228,0.94394 0.668173,1.46998 0.05658,0.26121 -0.01661,0.53506 0,0.80181 0.02232,0.35844 0.228855,0.7228 0.133635,1.06908 -0.06733,0.24485 -0.288155,0.42179 -0.467721,0.60135 -0.179567,0.17957 -0.37634,0.35001 -0.601357,0.46772 -0.330824,0.17306 -0.699997,0.27776 -1.069078,0.33409 -0.462368,0.0706 -0.935645,0.0137 -1.403165,0 -0.379122,-0.0111 -0.763452,0.005 -1.135895,-0.0668 -0.276644,-0.0533 -0.577918,-0.0963 -0.801809,-0.26727 -0.191454,-0.14623 -0.292145,-0.38638 -0.400904,-0.60135 -0.117691,-0.23262 -0.258087,-0.47447 -0.26727,-0.73501 z"
         style="opacity:1;vector-effect:none;fill:#000000;fill-opacity:1;stroke:none;stroke-width:0.62194562;stroke-linecap:butt;stroke-linejoin:miter;stroke-miterlimit:4;stroke-dasharray:none;stroke-dashoffset:0;stroke-opacity:1" />
      <path
         sodipodi:nodetypes="aaaaaaaaaaaaaa"
         inkscape:connector-curvature="0"
         id="path4529"
         d="m 35.413213,227.97762 c 0.276262,-0.29137 0.748744,-0.29444 1.135896,-0.4009 0.219006,-0.0602 0.445066,-0.091 0.668173,-0.13364 0.244597,-0.0467 0.490394,-0.0869 0.734992,-0.13363 0.111553,-0.0213 0.222149,-0.0476 0.334086,-0.0668 0.155229,-0.0266 0.326939,-0.13739 0.46772,-0.0668 0.249467,0.12509 0.470587,0.46476 0.400905,0.73499 -0.07251,0.2812 -0.469695,0.34962 -0.734991,0.46772 -0.380118,0.16922 -0.800396,0.22793 -1.202712,0.33408 -0.355173,0.0937 -0.712716,0.17819 -1.069078,0.26727 -0.08909,0.0223 -0.177152,0.0491 -0.267271,0.0668 -0.154553,0.0303 -0.310627,0.0556 -0.46772,0.0668 -0.111082,0.008 -0.26737,0.0892 -0.334087,0 -0.236444,-0.316 0.06254,-0.84949 0.334087,-1.13589 z"
         style="opacity:1;vector-effect:none;fill:#ffffff;fill-opacity:1;stroke:none;stroke-width:0.62194562;stroke-linecap:butt;stroke-linejoin:miter;stroke-miterlimit:4;stroke-dasharray:none;stroke-dashoffset:0;stroke-opacity:1" />
      <path
         sodipodi:nodetypes="aaaaaaaaaaaaaa"
         inkscape:connector-curvature="0"
         id="path4531"
         d="m 36.088037,230.76827 c -0.08466,-0.31291 0.07079,-0.68339 0.27944,-0.93147 0.134064,-0.15939 0.361867,-0.21185 0.558875,-0.27943 0.149747,-0.0513 0.309683,-0.0664 0.465726,-0.0931 0.216395,-0.0371 0.432481,-0.0912 0.652018,-0.0931 0.250311,-0.003 0.56515,-0.0809 0.745167,0.0931 0.141322,0.13647 0.07758,0.38624 0.09315,0.58213 0.0068,0.0852 0.0386,0.17999 0,0.25616 -0.06527,0.1288 -0.222785,0.18656 -0.349295,0.25615 -0.167977,0.0924 -0.35472,0.14602 -0.535588,0.20958 -0.245515,0.0863 -0.492736,0.16961 -0.745165,0.23286 -0.160957,0.0403 -0.323814,0.0775 -0.489014,0.0931 -0.108191,0.01 -0.224909,0.0399 -0.32601,0 -0.148167,-0.0584 -0.307709,-0.17225 -0.349303,-0.32598 z"
         style="opacity:1;vector-effect:none;fill:#e9afaf;fill-opacity:1;stroke:none;stroke-width:0.62194562;stroke-linecap:butt;stroke-linejoin:miter;stroke-miterlimit:4;stroke-dasharray:none;stroke-dashoffset:0;stroke-opacity:1" />
      <path
         sodipodi:nodetypes="aaaaaaaaaaaaaaaaaa"
         inkscape:connector-curvature="0"
         id="path4533"
         d="m 30.887056,210.69044 c -0.467117,-0.24615 0.01789,-1.05618 0.0039,-1.584 -0.01376,-0.5193 0.02054,-1.04769 -0.08639,-1.55605 -0.110414,-0.52491 -0.352771,-1.01414 -0.565656,-1.50648 -0.24046,-0.55611 -0.478131,-1.11908 -0.802109,-1.63106 -0.32529,-0.51405 -0.735118,-0.97069 -1.135191,-1.42895 -0.2316,-0.26529 -0.525708,-0.47662 -0.730951,-0.76279 -0.205245,-0.28617 -0.550045,-0.59027 -0.488136,-0.93695 0.09166,-0.51327 0.651658,-0.92764 1.158167,-1.0513 0.288674,-0.0705 0.629802,0.0421 0.861915,0.22759 0.550159,0.43976 0.640209,1.25492 0.976266,1.87389 0.35374,0.65154 0.783787,1.26306 1.094493,1.93619 0.264343,0.57268 0.447895,1.17962 0.649549,1.77727 0.120839,0.35813 0.291504,0.70773 0.335572,1.08312 0.05115,0.43573 -0.05026,0.87612 -0.08776,1.31323 -0.02051,0.23901 -0.0985,0.477 -0.07503,0.71573 0.02157,0.21943 0.26793,0.42349 0.19575,0.63182 -0.172856,0.49892 -0.837264,1.14489 -1.304389,0.89874 z"
         style="opacity:1;vector-effect:none;fill:#000000;fill-opacity:1;stroke:none;stroke-width:0.62194562;stroke-linecap:butt;stroke-linejoin:miter;stroke-miterlimit:4;stroke-dasharray:none;stroke-dashoffset:0;stroke-opacity:1" />
      <path
         inkscape:connector-curvature="0"
         id="path4535"
         d="m 31.27753,209.21501 0.188987,-3.87426 0.661458,-1.6064 0.850448,-1.60639 0.755951,-0.85045 0.755954,-0.85045 0.755952,-0.37797 1.322917,-0.0945 h 0.377976 l 0.283482,0.56697 -0.09449,0.66145 -0.850451,0.56697 -1.322917,0.56696 -0.94494,1.13393 -0.47247,1.32292 -0.47247,1.13393 -0.283483,0.66146 -0.09449,0.66145 -0.283482,0.94494 -0.188988,0.66146 -0.188988,0.56697 z"
         style="opacity:1;vector-effect:none;fill:#000000;fill-opacity:1;stroke:none;stroke-width:0.62194562;stroke-linecap:butt;stroke-linejoin:miter;stroke-miterlimit:4;stroke-dasharray:none;stroke-dashoffset:0;stroke-opacity:1" />
    </g>
    <g
       id="g4573"
       transform="translate(0,12.027129)"
       inkscape:export-filename="E:\School\WEB-151\Git\M3T2\images\insult_background.png"
       inkscape:export-xdpi="96"
       inkscape:export-ydpi="96">
      <path
         inkscape:connector-curvature="0"
         id="path4558"
         d="m 13.096948,194.47696 3.833859,3.83432 5.203096,6.29924 4.6554,6.847 1.643085,2.73881 3.560012,4.10819 1.095388,1.64329 3.012319,3.28655 1.095389,3.83432 -3.012319,4.10821 -4.929247,3.56044 -1.643084,1.91716 -0.547696,4.65596 3.833862,1.09552 h 2.190776 5.476943 l 4.655403,-0.27388 4.107705,-0.82164 6.024638,-1.64329 3.286165,-1.64328 2.464623,-0.82163 4.655404,-0.82164 3.012316,0.27388 1.095389,0.54776 2.190777,4.1082 0.821542,3.01267 v 3.01269 l 0.821541,2.19104 3.012319,1.3694 4.107708,-0.54777 4.655401,-2.19103 2.464623,-2.46492 2.464626,-0.27388 5.750788,-1.64329 2.73847,-0.82163 5.203101,-1.64328 2.19077,-0.82164 4.10771,-1.36941 2.19077,-0.54776 3.83387,-0.27388 3.83386,0.54776 4.1077,2.19105 4.92926,3.56043 2.46462,1.91717 3.56001,2.46492 3.28617,1.64327 3.56001,-0.27388 3.56001,-1.64327 2.73847,-3.01268 0.27385,-0.27388 1.09539,-1.64329 3.01231,-4.92984 1.09539,-3.01267 2.46463,-1.91717 5.2031,-0.82164 h 2.73846 l 3.83387,2.19105 1.91692,0.82164 3.01233,0.54776 2.46461,0.82164 3.01233,-0.54776 3.56001,-0.82164 1.09539,-0.27388 v -5.75148 -4.92984 l -1.09539,-5.75148 -0.82155,-3.56045 -0.82154,-5.75148 v -1.64327 l 0.82154,-2.46493 3.83387,-1.09552 3.28616,-1.3694 2.73848,-1.3694 1.91692,-2.19104 -0.82154,-5.20372 -1.36923,-1.64328 -3.28617,-4.38208 -2.46462,-4.1082 -1.09539,-3.83433 -0.82154,-4.38207 v -3.83432 l 1.36924,-4.65596 2.19077,-3.28657 1.36923,-2.46491 1.36924,-3.01269 0.27385,-1.91716 -1.64309,-0.82163 -7.66772,0.27388 -13.4185,2.19103 -6.02464,0.82165 -5.47694,0.27388 -3.28617,0.27388 -6.02464,-3.01269 -2.73847,-2.19103 -5.20309,-2.73881 -2.46463,-1.09551 -8.21541,0.27387 -9.31081,3.01269 -5.20309,2.46492 -7.12003,2.19103 -4.107701,0.82165 -4.929249,-0.27388 -3.560012,-0.82165 -5.203095,-1.91715 -4.929249,-2.7388 -5.203096,-1.64329 h -8.489261 l -8.215414,2.46493 -2.190777,1.64328 -4.381554,1.64327 -4.655401,0.54776 -5.203096,-0.54776 -4.107707,-1.64327 -2.738471,-0.54776 -3.83386,-0.54776 0.547695,6.29924 2.190777,4.1082 1.643082,3.56043 1.369235,5.4776 0.547696,6.02537 v 1.64328 l -1.09539,2.7388 -3.833859,3.28656 -3.286166,0.82164 -3.560013,0.27388 -4.381553,1.09552 h -3.560013 l -2.464625,0.54776 -2.464624,-0.27388 z"
         style="opacity:1;vector-effect:none;fill:#ff6600;fill-opacity:1;stroke:#000000;stroke-width:1.05833328;stroke-linecap:butt;stroke-linejoin:miter;stroke-miterlimit:4;stroke-dasharray:none;stroke-dashoffset:0;stroke-opacity:1" />
      <path
         sodipodi:nodetypes="aaaaaaaaaaaaaaaaaaaaaaaaaaaaaaaaaaaaaaaaaaaaaaaaaaaaaaaaaaaaaaaaaaaaaaaa"
         inkscape:connector-curvature="0"
         id="path4565"
         d="m 40.357697,194.63575 c -2.253055,0.8472 -4.809676,0.31511 -7.216275,0.26727 -1.16136,-0.0231 -2.314458,-0.32711 -3.474505,-0.26727 -0.994732,0.0513 -2.152554,-0.0755 -2.939966,0.53454 -1.008378,0.78119 -1.872202,2.22753 -1.603616,3.4745 0.744705,3.45747 5.214627,4.79278 8.018087,6.94901 2.134957,1.64206 4.648108,2.77758 6.681737,4.54358 0.999989,0.86839 2.040562,1.77614 2.672694,2.93997 0.83542,1.5381 1.045318,3.35215 1.33635,5.07812 0.19314,1.14542 0.438681,2.32563 0.267269,3.4745 -0.3247,2.17627 -1.628486,4.08858 -2.405425,6.1472 -0.368199,0.9756 -0.997352,1.89967 -1.069078,2.93997 -0.08774,1.27255 -0.130819,2.87154 0.801806,3.74177 1.381774,1.28932 3.769599,1.21987 5.612662,0.80181 1.879563,-0.42634 3.028523,-2.47387 4.81085,-3.20724 3.441614,-1.41611 7.269509,-1.64346 10.958052,-2.13815 2.390612,-0.32062 4.923148,-1.28246 7.216277,-0.53454 2.223238,0.72512 3.980167,2.64496 5.34539,4.54358 0.840261,1.16855 0.947144,2.72818 1.603616,4.00904 0.529812,1.03373 0.826663,2.43116 1.870887,2.93997 3.299206,1.60759 7.395025,-0.18935 10.958052,-1.06908 2.521665,-0.62261 4.753055,-2.11595 7.216275,-2.93996 2.971521,-0.99405 6.034934,-1.69694 9.087164,-2.40543 2.65504,-0.61629 5.29717,-1.44349 8.01809,-1.60362 2.2305,-0.13127 4.52936,-0.0652 6.68173,0.53454 2.30281,0.64163 4.2128,2.27596 6.41447,3.20723 1.73864,0.73542 3.49585,1.49285 5.34539,1.87089 1.31219,0.26821 2.66983,0.2834 4.00905,0.26727 1.96792,-0.0237 4.05034,0.19061 5.87993,-0.53454 2.41891,-0.95873 4.46491,-2.82587 6.1472,-4.81085 0.72173,-0.85159 0.73203,-2.2425 1.60361,-2.93996 2.02562,-1.62094 4.90155,-1.88541 7.48355,-2.13816 2.13536,-0.20903 4.28743,0.25322 6.41447,0.53454 1.97491,0.2612 3.89587,0.89018 5.87993,1.06908 0.79857,0.072 1.62506,0.18422 2.40542,0 0.38776,-0.0915 0.91315,-0.1679 1.06908,-0.53454 0.58449,-1.37429 -0.95677,-2.83194 -1.33635,-4.27631 -0.64842,-2.46736 -1.12651,-4.97741 -1.60361,-7.48355 -0.40538,-2.12941 -0.89029,-4.25421 -1.06908,-6.41447 -0.15431,-1.86451 -0.94451,-3.99769 0,-5.61266 0.82566,-1.41175 2.82273,-1.65583 4.27631,-2.40542 1.48768,-0.76718 3.03764,-1.40746 4.54358,-2.13816 0.71691,-0.34785 1.98043,-0.288 2.13816,-1.06908 0.48776,-2.41535 -2.98102,-3.96235 -4.81085,-5.61266 -2.09209,-1.88683 -6.00026,-2.15814 -6.94901,-4.81085 -0.43684,-1.2214 0.64557,-2.51569 1.06908,-3.74177 0.84802,-2.45506 1.80315,-4.88088 2.93996,-7.21628 1.25747,-2.58327 2.98598,-4.91655 4.27632,-7.48355 0.69878,-1.39014 2.15936,-2.7474 1.87088,-4.27631 -0.30369,-1.60949 -1.94126,-2.89841 -3.4745,-3.4745 -2.50747,-0.94215 -5.38227,0.0576 -8.01809,0.53453 -1.83052,0.33123 -3.52898,1.20216 -5.34539,1.60362 -7.29528,1.61238 -14.76439,4.09024 -22.18337,3.20724 -1.4292,-0.1701 -2.92897,-0.6523 -4.00904,-1.60362 -1.37662,-1.21252 -1.44445,-3.44824 -2.6727,-4.81085 -0.72811,-0.80776 -1.67918,-1.42869 -2.67269,-1.87089 -1.0859,-0.48333 -2.28908,-0.88861 -3.47451,-0.80181 -2.19448,0.16069 -4.1749,1.42992 -6.1472,2.40543 -2.61581,1.29379 -4.75911,3.4977 -7.48354,4.54358 -4.90996,1.88489 -10.24338,2.83387 -15.501635,2.93997 -2.431185,0.0491 -4.870195,-0.42958 -7.216277,-1.06908 -3.431699,-0.93543 -6.586887,-2.687 -9.888971,-4.00905 -3.824263,-1.53112 -7.499199,-3.53257 -11.49259,-4.54358 -2.174616,-0.55055 -4.445586,-0.97981 -6.681737,-0.80181 -2.586156,0.20587 -5.051298,1.23553 -7.483549,2.13816 -1.195879,0.4438 -3.112763,0.38042 -3.474503,1.60362 -0.56776,1.91985 2.071169,3.42962 3.207234,5.07812 0.252771,0.36679 0.881116,0.63075 0.801809,1.06908 -0.470789,2.60209 -5.207455,2.08109 -6.681737,4.27631 -3.029859,4.51149 -0.819755,11.03234 -2.939965,16.03617 -0.298996,0.70565 -0.81151,1.31242 -1.336347,1.87089 -1.257774,1.33837 -2.5572,2.82807 -4.276315,3.4745 z"
         style="opacity:1;vector-effect:none;fill:#ffcc00;fill-opacity:1;stroke:none;stroke-width:1.05833328;stroke-linecap:butt;stroke-linejoin:miter;stroke-miterlimit:4;stroke-dasharray:none;stroke-dashoffset:0;stroke-opacity:1" />
      <path
         id="path4556"
         transform="matrix(0.26458333,0,0,0.26458333,0,138.24998)"
         d="m 502.2832,31.107422 c -4.45139,-0.122424 -9.00204,0.509476 -13.36914,1.1875 -7.6817,1.19263 -15.18835,3.761336 -22.22265,7.070312 -5.07103,2.385449 -9.22957,6.39586 -14.14258,9.091797 -8.4531,4.638539 -17.39717,8.332193 -26.26367,12.121094 -10.9821,4.692926 -21.60274,10.905046 -33.33594,13.132813 -8.93178,1.695874 -18.45793,2.222551 -27.27344,0 -4.82072,-1.215383 -8.85632,-4.536883 -13.13281,-7.072266 -6.909,-4.096101 -13.3463,-8.947981 -20.20313,-13.13086 -2.31752,-1.41377 -4.65547,-2.800801 -7.07031,-4.041015 -7.90767,-4.061254 -15.40938,-10.125438 -24.24414,-11.111328 -6.49754,-0.725065 -12.86361,2.404518 -19.19336,4.041015 -8.86812,2.292737 -17.61742,5.056419 -26.26367,8.080078 -9.56172,3.343824 -18.91281,7.263807 -28.2832,11.111329 -9.48873,3.896088 -18.15405,10.51807 -28.28516,12.123047 -7.34671,1.163867 -14.91968,-0.608962 -22.22266,-2.021485 -3.45146,-0.667578 -6.75007,-1.96827 -10.10156,-3.029297 -4.06055,-1.28553 -8.23074,-2.311693 -12.12305,-4.041015 -8.12968,-3.611982 -14.87548,-10.083225 -23.23242,-13.132813 -5.14923,-1.87903 -10.70682,-3.563306 -16.16211,-3.029297 -1.80465,0.176655 -4.17315,0.432772 -5.05078,2.019531 -1.82206,3.294312 1.41651,7.395335 2.01953,11.111329 1.14416,7.050633 1.31631,14.280922 3.03125,21.214843 1.20182,4.859263 3.43668,9.402345 5.05078,14.140625 4.22334,12.397791 8.6763,24.740671 12.1211,37.376951 2.44948,8.98526 8.36538,18.25001 6.06054,27.27344 -1.77165,6.93604 -8.47763,11.78542 -14.14257,16.16211 -2.38326,1.84127 -5.32453,2.82559 -8.08008,4.04102 -4.29106,1.89267 -8.55899,4.01367 -13.13281,5.05078 -12.517323,2.83846 -26.256424,-1.16906 -38.384769,3.03125 -8.030419,2.78109 -19.546221,5.80729 -21.212891,14.14062 -2.14286,10.71428 12.090047,18.20453 18.181641,27.27539 7.705784,11.4745 15.166164,23.12112 23.234375,34.34375 9.395505,13.06885 19.503694,25.61018 29.292964,38.38672 6.71759,8.76752 20.91891,15.24174 20.20313,26.26367 -0.24688,3.80153 -5.33303,5.44268 -8.08008,8.08203 -4.29569,4.12732 -8.35306,8.56558 -13.13281,12.1211 -6.90382,5.13551 -16.693167,6.54033 -22.222658,13.13281 -7.395197,8.81688 -18.181761,22.54065 -12.123046,32.32422 5.168553,8.34614 19.482081,2.74816 29.294924,3.03125 7.41235,0.21377 14.81109,-0.84315 22.22461,-1.01172 12.79196,-0.29065 25.67482,1.47515 38.38476,0 11.68262,-1.35591 23.32944,-3.96138 34.34571,-8.08008 6.77181,-2.53183 12.1748,-8.36732 19.19336,-10.10156 9.15282,-2.26159 19.57278,-3.60798 28.2832,0 4.83937,2.00455 9.10679,6.27194 11.11133,11.11133 2.70598,6.5328 -1.42175,14.28622 0,21.21289 1.54681,7.536 2.66928,16.97793 9.09179,21.21289 6.18433,4.07792 14.95695,1.44389 22.22266,0 10.3651,-2.05981 19.46367,-8.24492 29.29492,-12.1211 5.35281,-2.11045 10.7304,-4.16235 16.16211,-6.06054 12.36416,-4.3208 25.25626,-7.16011 37.37695,-12.12305 11.84518,-4.85012 21.65255,-15.50877 34.34375,-17.17187 11.58943,-1.51873 23.34585,3.1176 34.34571,7.07031 6.09528,2.19027 11.66426,5.68671 17.17382,9.0918 12.31979,7.61404 22.3253,18.92803 35.35352,25.2539 7.57247,3.67684 15.94505,8.48173 24.24414,7.07227 8.56698,-1.45497 14.16929,-10.06336 21.21289,-15.15235 8.78918,-6.35013 19.20978,-10.95996 26.26563,-19.19336 7.15381,-8.34772 5.17277,-24.67875 15.15039,-29.29492 12.23149,-5.65893 26.13847,6.67158 39.39648,9.0918 12.36741,2.25766 24.8335,4.20708 37.37695,5.05078 5.71129,0.38415 11.53165,0.97697 17.17188,0 4.93221,-0.85432 10.39612,-1.73103 14.14258,-5.05078 2.8176,-2.49668 4.49099,-6.3788 5.05078,-10.10156 1.52277,-10.12702 -3.13562,-20.2445 -5.05078,-30.30469 -1.80321,-9.47203 -4.30545,-18.8041 -6.06055,-28.28516 -1.98508,-10.7235 -5.05834,-21.41854 -5.05078,-32.32422 0.005,-6.4769 -1.15721,-14.25136 3.0293,-19.19336 2.06475,-2.43737 5.9896,-2.26741 9.09179,-3.02929 10.268,-2.52182 22.35626,0.56544 31.31446,-5.05078 3.48238,-2.18325 6.13714,-6.09874 7.07031,-10.10157 1.00554,-4.31315 -0.71336,-8.90098 -2.01953,-13.13281 -2.53183,-8.20282 -6.70187,-15.86676 -11.11133,-23.23242 -6.43423,-10.74788 -17.13525,-18.85854 -22.22461,-30.30469 -4.05131,-9.11153 -5.99667,-19.32351 -6.06055,-29.29492 -0.0682,-10.63173 2.16745,-21.42093 6.06055,-31.31445 2.32634,-5.91194 6.01703,-11.29593 10.10156,-16.162112 2.91243,-3.469757 8.54625,-4.837107 10.10157,-9.091797 3.38426,-9.258104 3.13799,-22.538033 -4.03907,-29.294922 -3.19653,-3.009411 -8.7458,-0.841198 -13.13281,-1.009765 -9.42115,-0.361701 -18.88579,-0.759912 -28.2832,0 -14.62171,1.182349 -28.88439,5.226583 -43.4375,7.070312 -3.68965,0.467452 -7.40834,0.663561 -11.11133,1.009766 -17.51365,1.638085 -35.30782,8.642239 -52.52734,5.050781 -3.39368,-0.70783 -6.27023,-3.036633 -9.0918,-5.050781 -7.37409,-5.263937 -13.04795,-12.623808 -20.20313,-18.181641 -7.67028,-5.957971 -14.94846,-13.347608 -24.24414,-16.162109 -2.53787,-0.768402 -5.17291,-1.114046 -7.84375,-1.1875 z m 0.77344,22.40039 9.08984,4.041016 19.19336,10.101563 10.10157,8.080078 22.22461,11.111328 12.12109,-1.009766 20.20312,-1.009765 22.22266,-3.03125 49.49805,-8.080078 28.2832,-1.009766 6.0625,3.029297 -1.01172,7.072265 -5.05078,11.111328 -5.05078,9.091798 -8.08008,12.12109 -5.05078,17.17188 v 14.14258 l 3.03125,16.16211 4.03906,14.14257 9.0918,15.15235 12.12109,16.16211 5.05078,6.06054 3.03125,19.19336 -7.07031,8.08203 -10.10156,5.05079 -12.12305,5.05078 -14.14062,4.03906 -3.03125,9.0918 v 6.06054 l 3.03125,21.21485 3.02929,13.13086 4.04102,21.21289 v 18.18359 21.21289 l -4.04102,1.00977 -13.13086,3.03125 -11.11328,2.01953 -9.08984,-3.0293 -11.11328,-2.02148 -7.07031,-3.0293 -14.14258,-8.08203 h -10.10156 l -19.19141,3.03125 -9.0918,7.07031 -4.04101,11.11133 -11.11133,18.18359 -4.04102,6.06055 -1.00976,1.00977 -10.10156,11.11132 -13.13282,6.0625 -13.13086,1.00977 -12.12304,-6.06055 -13.13086,-9.09179 -9.0918,-7.07227 -18.18359,-13.13086 -15.15235,-8.08203 -14.14062,-2.01953 -14.14258,1.00976 -8.08203,2.01953 -15.15235,5.05079 -8.08007,3.03125 -19.19336,6.06054 -10.10157,3.03125 -21.21289,6.06055 -9.09179,1.00977 -9.0918,9.09179 -17.17188,8.08203 -15.15234,2.01953 -11.11133,-5.05078 -3.03125,-8.08203 v -11.11133 l -3.03125,-11.11132 -8.08007,-15.15235 -4.04102,-2.01953 -11.11133,-1.01172 -17.17187,3.03125 -9.0918,3.03125 -12.12305,6.06055 -22.22265,6.06055 -15.15235,3.03125 -17.17187,1.00976 h -20.20313 -8.08203 l -14.14258,-4.04101 2.02149,-17.17188 6.06054,-7.07226 18.1836,-13.13086 11.11133,-15.15235 -4.04102,-14.14258 -11.11133,-12.12109 -4.04101,-6.0625 -13.13282,-15.15234 -6.06054,-10.10157 -17.171878,-25.2539 -19.193359,-23.23242 -14.142578,-14.14258 3.03125,-12.1211 9.091797,1.00977 9.089844,-2.01953 h 13.132812 l 16.162112,-4.04102 13.13281,-1.00976 12.12109,-3.03125 14.14258,-12.1211 4.04102,-10.10156 v -6.0625 l -2.02149,-22.22266 -5.05078,-20.20312 -6.06055,-13.13086 -8.08007,-15.152343 -2.02149,-23.234375 14.14258,2.019531 10.10156,2.021485 15.15235,6.060546 19.19336,2.019532 17.17187,-2.019532 16.16211,-6.060546 8.08203,-6.060547 30.30469,-9.091797 h 31.31445 l 19.19336,6.060547 18.18164,10.101562 19.19336,7.070313 13.13281,3.03125 18.18165,1.009765 15.15234,-3.029297 26.26367,-8.082031 19.19336,-9.091797 34.3457,-11.111328 z"
         style="opacity:1;vector-effect:none;fill:#000000;fill-opacity:1;stroke:none;stroke-width:3.99999976;stroke-linecap:butt;stroke-linejoin:miter;stroke-miterlimit:4;stroke-dasharray:none;stroke-dashoffset:0;stroke-opacity:1"
         inkscape:connector-curvature="0" />
      <path
         inkscape:connector-curvature="0"
         id="path4567"
         d="m 73.766388,176.99596 -14.165283,-5.34539 5.612659,17.10525 -14.165286,21.11429 29.132379,8.55263 5.612659,12.2944 18.708864,-9.88898 29.39965,10.69079 2.40543,-10.95806 24.85606,1.06908 -9.35443,-16.57071 11.22532,-4.54358 -7.21628,-6.68174 9.35443,-18.97613 -26.45968,2.67269 -12.02713,-10.15624 -12.29439,6.68174 z"
         style="opacity:1;vector-effect:none;fill:#ffffff;fill-opacity:1;stroke:none;stroke-width:1.05833328;stroke-linecap:butt;stroke-linejoin:miter;stroke-miterlimit:4;stroke-dasharray:none;stroke-dashoffset:0;stroke-opacity:1" />
    </g>
    <g
       id="g4599"
       transform="translate(-3.4745038,-2.9399648)"
       inkscape:export-filename="E:\School\WEB-151\Git\M3T2\images\title.png"
       inkscape:export-xdpi="96"
       inkscape:export-ydpi="96">
      <text
         xml:space="preserve"
         style="font-style:normal;font-variant:normal;font-weight:normal;font-stretch:normal;font-size:10.58333302px;line-height:1.25;font-family:Forte;-inkscape-font-specification:'Forte, Normal';font-variant-ligatures:normal;font-variant-caps:normal;font-variant-numeric:normal;font-feature-settings:normal;text-align:start;letter-spacing:0px;word-spacing:0px;writing-mode:lr-tb;text-anchor:start;fill:#ffffff;fill-opacity:1;stroke:#000000;stroke-width:6.3499999;stroke-miterlimit:4;stroke-dasharray:none;stroke-opacity:1"
         x="50.246674"
         y="154.54532"
         id="text4589"><tspan
           sodipodi:role="line"
           id="tspan4587"
           x="50.246674"
           y="154.54532"
           style="font-style:normal;font-variant:normal;font-weight:normal;font-stretch:normal;font-size:10.58333302px;font-family:Forte;-inkscape-font-specification:'Forte, Normal';font-variant-ligatures:normal;font-variant-caps:normal;font-variant-numeric:normal;font-feature-settings:normal;text-align:start;writing-mode:lr-tb;text-anchor:start;fill:#ffffff;stroke:#000000;stroke-width:6.3499999;stroke-miterlimit:4;stroke-dasharray:none;stroke-opacity:1">Random Insultinator 2000</tspan></text>
      <text
         id="text4585"
         y="154.54532"
         x="50.246674"
         style="font-style:normal;font-variant:normal;font-weight:normal;font-stretch:normal;font-size:10.58333302px;line-height:1.25;font-family:Forte;-inkscape-font-specification:'Forte, Normal';font-variant-ligatures:normal;font-variant-caps:normal;font-variant-numeric:normal;font-feature-settings:normal;text-align:start;letter-spacing:0px;word-spacing:0px;writing-mode:lr-tb;text-anchor:start;fill:#ffffff;fill-opacity:1;stroke:#ff6600;stroke-width:4.23333311;stroke-miterlimit:4;stroke-dasharray:none;stroke-opacity:1"
         xml:space="preserve"><tspan
           style="font-style:normal;font-variant:normal;font-weight:normal;font-stretch:normal;font-size:10.58333302px;font-family:Forte;-inkscape-font-specification:'Forte, Normal';font-variant-ligatures:normal;font-variant-caps:normal;font-variant-numeric:normal;font-feature-settings:normal;text-align:start;writing-mode:lr-tb;text-anchor:start;fill:#ffffff;stroke:#ff6600;stroke-width:4.23333311;stroke-miterlimit:4;stroke-dasharray:none;stroke-opacity:1"
           y="154.54532"
           x="50.246674"
           id="tspan4583"
           sodipodi:role="line">Random Insultinator 2000</tspan></text>
      <text
         xml:space="preserve"
         style="font-style:normal;font-variant:normal;font-weight:normal;font-stretch:normal;font-size:10.58333302px;line-height:1.25;font-family:Forte;-inkscape-font-specification:'Forte, Normal';font-variant-ligatures:normal;font-variant-caps:normal;font-variant-numeric:normal;font-feature-settings:normal;text-align:start;letter-spacing:0px;word-spacing:0px;writing-mode:lr-tb;text-anchor:start;fill:#ffffff;fill-opacity:1;stroke:#ffcc00;stroke-width:1.05833328;stroke-miterlimit:4;stroke-dasharray:none;stroke-opacity:1"
         x="50.246674"
         y="154.54532"
         id="text4581"><tspan
           sodipodi:role="line"
           id="tspan4579"
           x="50.246674"
           y="154.54532"
           style="font-style:normal;font-variant:normal;font-weight:normal;font-stretch:normal;font-size:10.58333302px;font-family:Forte;-inkscape-font-specification:'Forte, Normal';font-variant-ligatures:normal;font-variant-caps:normal;font-variant-numeric:normal;font-feature-settings:normal;text-align:start;writing-mode:lr-tb;text-anchor:start;fill:#ffffff;stroke:#ffcc00;stroke-width:1.05833328;stroke-miterlimit:4;stroke-dasharray:none;stroke-opacity:1">Random Insultinator 2000</tspan></text>
      <text
         id="text4577"
         y="154.54532"
         x="50.246674"
         style="font-style:normal;font-variant:normal;font-weight:normal;font-stretch:normal;font-size:10.58333302px;line-height:1.25;font-family:Forte;-inkscape-font-specification:'Forte, Normal';font-variant-ligatures:normal;font-variant-caps:normal;font-variant-numeric:normal;font-feature-settings:normal;text-align:start;letter-spacing:0px;word-spacing:0px;writing-mode:lr-tb;text-anchor:start;fill:#ffffff;fill-opacity:1;stroke:none;stroke-width:0.26458332"
         xml:space="preserve"><tspan
           style="font-style:normal;font-variant:normal;font-weight:normal;font-stretch:normal;font-size:10.58333302px;font-family:Forte;-inkscape-font-specification:'Forte, Normal';font-variant-ligatures:normal;font-variant-caps:normal;font-variant-numeric:normal;font-feature-settings:normal;text-align:start;writing-mode:lr-tb;text-anchor:start;fill:#ffffff;stroke-width:0.26458332"
           y="154.54532"
           x="50.246674"
           id="tspan4575"
           sodipodi:role="line">Random Insultinator 2000</tspan></text>
    </g>
    <g
       id="g4636"
       clip-path="url(#clipPath4638)"
       style="opacity:0.97000002"
       transform="translate(-2.3812498,31.863401)"
       inkscape:export-filename="E:\School\WEB-151\Git\M3T2\images\background.png"
       inkscape:export-xdpi="96"
       inkscape:export-ydpi="96">
      <rect
         y="139.72408"
         x="-44.979164"
         height="33.866665"
         width="33.866665"
         id="rect4601"
         style="opacity:1;vector-effect:none;fill:#afdde9;fill-opacity:1;fill-rule:evenodd;stroke:none;stroke-width:1.05833328;stroke-linecap:butt;stroke-linejoin:miter;stroke-miterlimit:4;stroke-dasharray:none;stroke-dashoffset:0;stroke-opacity:1" />
      <text
         id="text4609"
         y="190.37286"
         x="-19.940947"
         style="font-style:normal;font-variant:normal;font-weight:normal;font-stretch:normal;font-size:25.86768532px;line-height:1.25;font-family:'Snap ITC';-inkscape-font-specification:'Snap ITC';letter-spacing:0px;word-spacing:0px;fill:#75c4d9;fill-opacity:0.97254902;stroke:none;stroke-width:0.26458335"
         xml:space="preserve"><tspan
           style="font-style:normal;font-variant:normal;font-weight:normal;font-stretch:normal;font-family:'Snap ITC';-inkscape-font-specification:'Snap ITC';fill:#75c4d9;fill-opacity:0.97254902;stroke-width:0.26458335"
           y="190.37286"
           x="-19.940947"
           id="tspan4607"
           sodipodi:role="line">!</tspan></text>
      <text
         id="text4613"
         y="168.88838"
         x="3.5099726"
         style="font-style:normal;font-variant:normal;font-weight:normal;font-stretch:normal;font-size:21.26117134px;line-height:1.25;font-family:'Snap ITC';-inkscape-font-specification:'Snap ITC';letter-spacing:0px;word-spacing:0px;fill:#75c4d9;fill-opacity:0.97254902;stroke:none;stroke-width:0.26458332"
         xml:space="preserve"
         transform="rotate(15)"><tspan
           style="font-style:normal;font-variant:normal;font-weight:normal;font-stretch:normal;font-family:'Snap ITC';-inkscape-font-specification:'Snap ITC';fill:#75c4d9;fill-opacity:0.97254902;stroke-width:0.26458332"
           y="168.88838"
           x="3.5099726"
           id="tspan4611"
           sodipodi:role="line">#</tspan></text>
      <text
         id="text4621"
         y="148.21483"
         x="-33.028076"
         style="font-style:normal;font-variant:normal;font-weight:normal;font-stretch:normal;font-size:16.8922596px;line-height:1.25;font-family:'Snap ITC';-inkscape-font-specification:'Snap ITC';letter-spacing:0px;word-spacing:0px;fill:#75c4d9;fill-opacity:0.97254902;stroke:none;stroke-width:0.26458332"
         xml:space="preserve"><tspan
           style="font-style:normal;font-variant:normal;font-weight:normal;font-stretch:normal;font-family:'Snap ITC';-inkscape-font-specification:'Snap ITC';fill:#75c4d9;fill-opacity:0.97254902;stroke-width:0.26458332"
           y="148.21483"
           x="-33.028076"
           id="tspan4619"
           sodipodi:role="line">%</tspan></text>
      <text
         xml:space="preserve"
         style="font-style:normal;font-variant:normal;font-weight:normal;font-stretch:normal;font-size:25.86768532px;line-height:1.25;font-family:'Snap ITC';-inkscape-font-specification:'Snap ITC';letter-spacing:0px;word-spacing:0px;fill:#75c4d9;fill-opacity:0.97254902;stroke:none;stroke-width:0.26458335"
         x="-19.940826"
         y="155.44791"
         id="text4644"><tspan
           sodipodi:role="line"
           id="tspan4642"
           x="-19.940826"
           y="155.44791"
           style="font-style:normal;font-variant:normal;font-weight:normal;font-stretch:normal;font-family:'Snap ITC';-inkscape-font-specification:'Snap ITC';fill:#75c4d9;fill-opacity:0.97254902;stroke-width:0.26458335">!</tspan></text>
      <text
         xml:space="preserve"
         style="font-style:normal;font-variant:normal;font-weight:normal;font-stretch:normal;font-size:16.8922596px;line-height:1.25;font-family:'Snap ITC';-inkscape-font-specification:'Snap ITC';letter-spacing:0px;word-spacing:0px;fill:#75c4d9;fill-opacity:0.97254902;stroke:none;stroke-width:0.26458332"
         x="-33.028076"
         y="182.08156"
         id="text4648"><tspan
           sodipodi:role="line"
           id="tspan4646"
           x="-33.028076"
           y="182.08156"
           style="font-style:normal;font-variant:normal;font-weight:normal;font-stretch:normal;font-family:'Snap ITC';-inkscape-font-specification:'Snap ITC';fill:#75c4d9;fill-opacity:0.97254902;stroke-width:0.26458332">%</tspan></text>
      <text
         xml:space="preserve"
         style="font-style:normal;font-variant:normal;font-weight:normal;font-stretch:normal;font-size:25.86768532px;line-height:1.25;font-family:'Snap ITC';-inkscape-font-specification:'Snap ITC';letter-spacing:0px;word-spacing:0px;fill:#75c4d9;fill-opacity:0.97254902;stroke:none;stroke-width:0.26458335"
         x="-53.807491"
         y="190.37286"
         id="text4662"><tspan
           sodipodi:role="line"
           id="tspan4660"
           x="-53.807491"
           y="190.37286"
           style="font-style:normal;font-variant:normal;font-weight:normal;font-stretch:normal;font-family:'Snap ITC';-inkscape-font-specification:'Snap ITC';fill:#75c4d9;fill-opacity:0.97254902;stroke-width:0.26458335">!</tspan></text>
      <text
         id="text4666"
         y="155.44791"
         x="-53.807491"
         style="font-style:normal;font-variant:normal;font-weight:normal;font-stretch:normal;font-size:25.86768532px;line-height:1.25;font-family:'Snap ITC';-inkscape-font-specification:'Snap ITC';letter-spacing:0px;word-spacing:0px;fill:#75c4d9;fill-opacity:0.97254902;stroke:none;stroke-width:0.26458335"
         xml:space="preserve"><tspan
           style="font-style:normal;font-variant:normal;font-weight:normal;font-stretch:normal;font-family:'Snap ITC';-inkscape-font-specification:'Snap ITC';fill:#75c4d9;fill-opacity:0.97254902;stroke-width:0.26458335"
           y="155.44791"
           x="-53.807491"
           id="tspan4664"
           sodipodi:role="line">!</tspan></text>
      <text
         transform="rotate(15)"
         xml:space="preserve"
         style="font-style:normal;font-variant:normal;font-weight:normal;font-stretch:normal;font-size:12.39127922px;line-height:1.25;font-family:'Snap ITC';-inkscape-font-specification:'Snap ITC';letter-spacing:0px;word-spacing:0px;fill:#75c4d9;fill-opacity:0.97254902;stroke:none;stroke-width:0.26458332"
         x="24.611897"
         y="166.48102"
         id="text4670"><tspan
           sodipodi:role="line"
           id="tspan4668"
           x="24.611897"
           y="166.48102"
           style="font-style:normal;font-variant:normal;font-weight:normal;font-stretch:normal;font-family:'Snap ITC';-inkscape-font-specification:'Snap ITC';fill:#75c4d9;fill-opacity:0.97254902;stroke-width:0.26458332">%</tspan></text>
      <text
         id="text4674"
         y="175.24635"
         x="-8.1008024"
         style="font-style:normal;font-variant:normal;font-weight:normal;font-stretch:normal;font-size:12.39127922px;line-height:1.25;font-family:'Snap ITC';-inkscape-font-specification:'Snap ITC';letter-spacing:0px;word-spacing:0px;fill:#75c4d9;fill-opacity:0.97254902;stroke:none;stroke-width:0.26458332"
         xml:space="preserve"
         transform="rotate(15)"><tspan
           style="font-style:normal;font-variant:normal;font-weight:normal;font-stretch:normal;font-family:'Snap ITC';-inkscape-font-specification:'Snap ITC';fill:#75c4d9;fill-opacity:0.97254902;stroke-width:0.26458332"
           y="175.24635"
           x="-8.1008024"
           id="tspan4672"
           sodipodi:role="line">%</tspan></text>
    </g>
    <g
       id="g4763"
       transform="translate(-52.916669)"
       inkscape:export-filename="E:\School\WEB-151\Git\M3T2\images\wow_button.png"
       inkscape:export-xdpi="96"
       inkscape:export-ydpi="96">
      <rect
         ry="12.706757"
         rx="14.17292"
         y="220.38141"
         x="-88.367737"
         height="27.516666"
         width="61.383331"
         id="rect4724"
         style="opacity:1;vector-effect:none;fill:#a52727;fill-opacity:1;fill-rule:evenodd;stroke:#37abc8;stroke-width:6.35000038;stroke-linecap:butt;stroke-linejoin:miter;stroke-miterlimit:4;stroke-dasharray:none;stroke-dashoffset:0;stroke-opacity:1" />
      <rect
         style="opacity:1;vector-effect:none;fill:#a52727;fill-opacity:1;fill-rule:evenodd;stroke:#ffffff;stroke-width:2.11666656;stroke-linecap:butt;stroke-linejoin:miter;stroke-miterlimit:4;stroke-dasharray:none;stroke-dashoffset:0;stroke-opacity:1"
         id="rect4722"
         width="61.383331"
         height="27.516666"
         x="-88.367737"
         y="220.38141"
         rx="14.17292"
         ry="12.706757" />
      <rect
         ry="12.706757"
         rx="14.17292"
         y="220.38141"
         x="-88.367737"
         height="27.516666"
         width="61.383331"
         id="rect4785"
         style="opacity:1;vector-effect:none;fill:#37abc8;fill-opacity:1;fill-rule:evenodd;stroke:#ffffff;stroke-width:2.11666656;stroke-linecap:butt;stroke-linejoin:miter;stroke-miterlimit:4;stroke-dasharray:none;stroke-dashoffset:0;stroke-opacity:1" />
      <g
         id="g4793"
         transform="translate(4.7625009,-0.89035022)">
        <text
           transform="scale(0.96004214,1.0416209)"
           xml:space="preserve"
           style="font-style:normal;font-variant:normal;font-weight:normal;font-stretch:normal;font-size:13.59140015px;line-height:1.25;font-family:Forte;-inkscape-font-specification:'Forte, Normal';font-variant-ligatures:normal;font-variant-position:normal;font-variant-caps:normal;font-variant-numeric:normal;font-variant-alternates:normal;font-feature-settings:normal;text-indent:0;text-align:start;text-decoration:none;text-decoration-line:none;text-decoration-style:solid;text-decoration-color:#000000;letter-spacing:0px;word-spacing:0px;text-transform:none;writing-mode:lr-tb;direction:ltr;text-orientation:mixed;dominant-baseline:auto;baseline-shift:baseline;text-anchor:start;white-space:normal;shape-padding:0;opacity:1;vector-effect:none;fill:none;fill-opacity:1;stroke:#ffffff;stroke-width:6.3499999;stroke-linecap:butt;stroke-linejoin:miter;stroke-miterlimit:4;stroke-dasharray:none;stroke-dashoffset:0;stroke-opacity:1"
           x="-81.416023"
           y="229.78989"
           id="text4752"><tspan
             sodipodi:role="line"
             id="tspan4750"
             x="-81.416023"
             y="229.78989"
             style="font-style:normal;font-variant:normal;font-weight:normal;font-stretch:normal;font-size:13.59140015px;line-height:1.25;font-family:Forte;-inkscape-font-specification:'Forte, Normal';font-variant-ligatures:normal;font-variant-position:normal;font-variant-caps:normal;font-variant-numeric:normal;font-variant-alternates:normal;font-feature-settings:normal;text-indent:0;text-align:start;text-decoration:none;text-decoration-line:none;text-decoration-style:solid;text-decoration-color:#000000;letter-spacing:0px;word-spacing:0px;text-transform:none;writing-mode:lr-tb;direction:ltr;text-orientation:mixed;dominant-baseline:auto;baseline-shift:baseline;text-anchor:start;white-space:normal;shape-padding:0;vector-effect:none;fill:none;fill-opacity:1;stroke:#ffffff;stroke-width:6.3499999;stroke-linecap:butt;stroke-linejoin:miter;stroke-miterlimit:4;stroke-dasharray:none;stroke-dashoffset:0;stroke-opacity:1">Wow!</tspan></text>
        <text
           transform="scale(0.96004214,1.0416209)"
           id="text4748"
           y="229.78989"
           x="-81.416023"
           style="font-style:normal;font-variant:normal;font-weight:normal;font-stretch:normal;font-size:13.59140015px;line-height:1.25;font-family:Forte;-inkscape-font-specification:'Forte, Normal';font-variant-ligatures:normal;font-variant-position:normal;font-variant-caps:normal;font-variant-numeric:normal;font-variant-alternates:normal;font-feature-settings:normal;text-indent:0;text-align:start;text-decoration:none;text-decoration-line:none;text-decoration-style:solid;text-decoration-color:#000000;letter-spacing:0px;word-spacing:0px;text-transform:none;writing-mode:lr-tb;direction:ltr;text-orientation:mixed;dominant-baseline:auto;baseline-shift:baseline;text-anchor:start;white-space:normal;shape-padding:0;opacity:1;vector-effect:none;fill:#ffffff;fill-opacity:1;stroke:#37abc8;stroke-width:2.11666656;stroke-linecap:butt;stroke-linejoin:miter;stroke-miterlimit:4;stroke-dasharray:none;stroke-dashoffset:0;stroke-opacity:1"
           xml:space="preserve"><tspan
             style="font-style:normal;font-variant:normal;font-weight:normal;font-stretch:normal;font-size:13.59140015px;line-height:1.25;font-family:Forte;-inkscape-font-specification:'Forte, Normal';font-variant-ligatures:normal;font-variant-position:normal;font-variant-caps:normal;font-variant-numeric:normal;font-variant-alternates:normal;font-feature-settings:normal;text-indent:0;text-align:start;text-decoration:none;text-decoration-line:none;text-decoration-style:solid;text-decoration-color:#000000;letter-spacing:0px;word-spacing:0px;text-transform:none;writing-mode:lr-tb;direction:ltr;text-orientation:mixed;dominant-baseline:auto;baseline-shift:baseline;text-anchor:start;white-space:normal;shape-padding:0;vector-effect:none;fill:#ffffff;fill-opacity:1;stroke:#37abc8;stroke-width:2.11666656;stroke-linecap:butt;stroke-linejoin:miter;stroke-miterlimit:4;stroke-dasharray:none;stroke-dashoffset:0;stroke-opacity:1"
             y="229.78989"
             x="-81.416023"
             id="tspan4746"
             sodipodi:role="line">Wow!</tspan></text>
        <text
           transform="scale(0.96004214,1.0416209)"
           xml:space="preserve"
           style="font-style:normal;font-variant:normal;font-weight:normal;font-stretch:normal;font-size:13.59140015px;line-height:1.25;font-family:Forte;-inkscape-font-specification:'Forte, Normal';font-variant-ligatures:normal;font-variant-position:normal;font-variant-caps:normal;font-variant-numeric:normal;font-variant-alternates:normal;font-feature-settings:normal;text-indent:0;text-align:start;text-decoration:none;text-decoration-line:none;text-decoration-style:solid;text-decoration-color:#000000;letter-spacing:0px;word-spacing:0px;text-transform:none;writing-mode:lr-tb;direction:ltr;text-orientation:mixed;dominant-baseline:auto;baseline-shift:baseline;text-anchor:start;white-space:normal;shape-padding:0;opacity:1;vector-effect:none;fill:#ffffff;fill-opacity:1;stroke:none;stroke-width:0.26458332;stroke-linecap:butt;stroke-linejoin:miter;stroke-miterlimit:4;stroke-dasharray:none;stroke-dashoffset:0;stroke-opacity:1"
           x="-81.416023"
           y="229.78989"
           id="text4728"><tspan
             sodipodi:role="line"
             id="tspan4726"
             x="-81.416023"
             y="229.78989"
             style="font-style:normal;font-variant:normal;font-weight:normal;font-stretch:normal;font-size:13.59140015px;line-height:1.25;font-family:Forte;-inkscape-font-specification:'Forte, Normal';font-variant-ligatures:normal;font-variant-position:normal;font-variant-caps:normal;font-variant-numeric:normal;font-variant-alternates:normal;font-feature-settings:normal;text-indent:0;text-align:start;text-decoration:none;text-decoration-line:none;text-decoration-style:solid;text-decoration-color:#000000;letter-spacing:0px;word-spacing:0px;text-transform:none;writing-mode:lr-tb;direction:ltr;text-orientation:mixed;dominant-baseline:auto;baseline-shift:baseline;text-anchor:start;white-space:normal;shape-padding:0;vector-effect:none;fill:#ffffff;fill-opacity:1;stroke:none;stroke-width:0.26458332;stroke-linecap:butt;stroke-linejoin:miter;stroke-miterlimit:4;stroke-dasharray:none;stroke-dashoffset:0;stroke-opacity:1">Wow!</tspan></text>
      </g>
    </g>
    <g
       id="g4815"
       transform="translate(14.816662)"
       inkscape:export-filename="E:\School\WEB-151\Git\M3T2\images\wow_button.png"
       inkscape:export-xdpi="96"
       inkscape:export-ydpi="96">
      <rect
         style="opacity:1;vector-effect:none;fill:#a52727;fill-opacity:1;fill-rule:evenodd;stroke:#ffffff;stroke-width:6.35000038;stroke-linecap:butt;stroke-linejoin:miter;stroke-miterlimit:4;stroke-dasharray:none;stroke-dashoffset:0;stroke-opacity:1"
         id="rect4795"
         width="61.383331"
         height="27.516666"
         x="-88.367737"
         y="220.38141"
         rx="14.17292"
         ry="12.706757" />
      <rect
         ry="12.706757"
         rx="14.17292"
         y="220.38141"
         x="-88.367737"
         height="27.516666"
         width="61.383331"
         id="rect4797"
         style="opacity:1;vector-effect:none;fill:#a52727;fill-opacity:1;fill-rule:evenodd;stroke:#ffffff;stroke-width:2.11666656;stroke-linecap:butt;stroke-linejoin:miter;stroke-miterlimit:4;stroke-dasharray:none;stroke-dashoffset:0;stroke-opacity:1" />
      <rect
         style="opacity:1;vector-effect:none;fill:#ffffff;fill-opacity:1;fill-rule:evenodd;stroke:#37abc8;stroke-width:2.11666656;stroke-linecap:butt;stroke-linejoin:miter;stroke-miterlimit:4;stroke-dasharray:none;stroke-dashoffset:0;stroke-opacity:1"
         id="rect4799"
         width="61.383331"
         height="27.516666"
         x="-88.367737"
         y="220.38141"
         rx="14.17292"
         ry="12.706757" />
      <g
         transform="translate(4.7625009,-0.89035022)"
         id="g4813">
        <text
           id="text4803"
           y="229.78989"
           x="-81.416023"
           style="font-style:normal;font-variant:normal;font-weight:normal;font-stretch:normal;font-size:13.59140015px;line-height:1.25;font-family:Forte;-inkscape-font-specification:'Forte, Normal';font-variant-ligatures:normal;font-variant-position:normal;font-variant-caps:normal;font-variant-numeric:normal;font-variant-alternates:normal;font-feature-settings:normal;text-indent:0;text-align:start;text-decoration:none;text-decoration-line:none;text-decoration-style:solid;text-decoration-color:#000000;letter-spacing:0px;word-spacing:0px;text-transform:none;writing-mode:lr-tb;direction:ltr;text-orientation:mixed;dominant-baseline:auto;baseline-shift:baseline;text-anchor:start;white-space:normal;shape-padding:0;opacity:1;vector-effect:none;fill:#37abc8;fill-opacity:1;stroke:#37abc8;stroke-width:6.3499999;stroke-linecap:butt;stroke-linejoin:miter;stroke-miterlimit:4;stroke-dasharray:none;stroke-dashoffset:0;stroke-opacity:1;"
           xml:space="preserve"
           transform="scale(0.96004214,1.0416209)"><tspan
             style="font-style:normal;font-variant:normal;font-weight:normal;font-stretch:normal;font-size:13.59140015px;line-height:1.25;font-family:Forte;-inkscape-font-specification:'Forte, Normal';font-variant-ligatures:normal;font-variant-position:normal;font-variant-caps:normal;font-variant-numeric:normal;font-variant-alternates:normal;font-feature-settings:normal;text-indent:0;text-align:start;text-decoration:none;text-decoration-line:none;text-decoration-style:solid;text-decoration-color:#000000;letter-spacing:0px;word-spacing:0px;text-transform:none;writing-mode:lr-tb;direction:ltr;text-orientation:mixed;dominant-baseline:auto;baseline-shift:baseline;text-anchor:start;white-space:normal;shape-padding:0;vector-effect:none;fill:#37abc8;fill-opacity:1;stroke:#37abc8;stroke-width:6.3499999;stroke-linecap:butt;stroke-linejoin:miter;stroke-miterlimit:4;stroke-dasharray:none;stroke-dashoffset:0;stroke-opacity:1;"
             y="229.78989"
             x="-81.416023"
             id="tspan4801"
             sodipodi:role="line">Wow!</tspan></text>
        <text
           xml:space="preserve"
           style="font-style:normal;font-variant:normal;font-weight:normal;font-stretch:normal;font-size:13.59140015px;line-height:1.25;font-family:Forte;-inkscape-font-specification:'Forte, Normal';font-variant-ligatures:normal;font-variant-position:normal;font-variant-caps:normal;font-variant-numeric:normal;font-variant-alternates:normal;font-feature-settings:normal;text-indent:0;text-align:start;text-decoration:none;text-decoration-line:none;text-decoration-style:solid;text-decoration-color:#000000;letter-spacing:0px;word-spacing:0px;text-transform:none;writing-mode:lr-tb;direction:ltr;text-orientation:mixed;dominant-baseline:auto;baseline-shift:baseline;text-anchor:start;white-space:normal;shape-padding:0;opacity:1;vector-effect:none;fill:#ffffff;fill-opacity:1;stroke:#ffffff;stroke-width:2.11666656;stroke-linecap:butt;stroke-linejoin:miter;stroke-miterlimit:4;stroke-dasharray:none;stroke-dashoffset:0;stroke-opacity:1;"
           x="-81.416023"
           y="229.78989"
           id="text4807"
           transform="scale(0.96004214,1.0416209)"><tspan
             sodipodi:role="line"
             id="tspan4805"
             x="-81.416023"
             y="229.78989"
             style="font-style:normal;font-variant:normal;font-weight:normal;font-stretch:normal;font-size:13.59140015px;line-height:1.25;font-family:Forte;-inkscape-font-specification:'Forte, Normal';font-variant-ligatures:normal;font-variant-position:normal;font-variant-caps:normal;font-variant-numeric:normal;font-variant-alternates:normal;font-feature-settings:normal;text-indent:0;text-align:start;text-decoration:none;text-decoration-line:none;text-decoration-style:solid;text-decoration-color:#000000;letter-spacing:0px;word-spacing:0px;text-transform:none;writing-mode:lr-tb;direction:ltr;text-orientation:mixed;dominant-baseline:auto;baseline-shift:baseline;text-anchor:start;white-space:normal;shape-padding:0;vector-effect:none;fill:#ffffff;fill-opacity:1;stroke:#ffffff;stroke-width:2.11666656;stroke-linecap:butt;stroke-linejoin:miter;stroke-miterlimit:4;stroke-dasharray:none;stroke-dashoffset:0;stroke-opacity:1;">Wow!</tspan></text>
        <text
           id="text4811"
           y="229.78989"
           x="-81.416023"
           style="font-style:normal;font-variant:normal;font-weight:normal;font-stretch:normal;font-size:13.59140015px;line-height:1.25;font-family:Forte;-inkscape-font-specification:'Forte, Normal';font-variant-ligatures:normal;font-variant-position:normal;font-variant-caps:normal;font-variant-numeric:normal;font-variant-alternates:normal;font-feature-settings:normal;text-indent:0;text-align:start;text-decoration:none;text-decoration-line:none;text-decoration-style:solid;text-decoration-color:#000000;letter-spacing:0px;word-spacing:0px;text-transform:none;writing-mode:lr-tb;direction:ltr;text-orientation:mixed;dominant-baseline:auto;baseline-shift:baseline;text-anchor:start;white-space:normal;shape-padding:0;opacity:1;vector-effect:none;fill:#37abc8;fill-opacity:1;stroke:none;stroke-width:0.26458332;stroke-linecap:butt;stroke-linejoin:miter;stroke-miterlimit:4;stroke-dasharray:none;stroke-dashoffset:0;stroke-opacity:1;"
           xml:space="preserve"
           transform="scale(0.96004214,1.0416209)"><tspan
             style="font-style:normal;font-variant:normal;font-weight:normal;font-stretch:normal;font-size:13.59140015px;line-height:1.25;font-family:Forte;-inkscape-font-specification:'Forte, Normal';font-variant-ligatures:normal;font-variant-position:normal;font-variant-caps:normal;font-variant-numeric:normal;font-variant-alternates:normal;font-feature-settings:normal;text-indent:0;text-align:start;text-decoration:none;text-decoration-line:none;text-decoration-style:solid;text-decoration-color:#000000;letter-spacing:0px;word-spacing:0px;text-transform:none;writing-mode:lr-tb;direction:ltr;text-orientation:mixed;dominant-baseline:auto;baseline-shift:baseline;text-anchor:start;white-space:normal;shape-padding:0;vector-effect:none;fill:#37abc8;fill-opacity:1;stroke:none;stroke-width:0.26458332;stroke-linecap:butt;stroke-linejoin:miter;stroke-miterlimit:4;stroke-dasharray:none;stroke-dashoffset:0;stroke-opacity:1;"
             y="229.78989"
             x="-81.416023"
             id="tspan4809"
             sodipodi:role="line">Wow!</tspan></text>
      </g>
    </g>
  </g>
</svg>
