<?xml version="1.0" encoding="UTF-8" standalone="no"?>
<!-- Created with Inkscape (http://www.inkscape.org/) -->

<svg
   xmlns:dc="http://purl.org/dc/elements/1.1/"
   xmlns:cc="http://creativecommons.org/ns#"
   xmlns:rdf="http://www.w3.org/1999/02/22-rdf-syntax-ns#"
   xmlns:svg="http://www.w3.org/2000/svg"
   xmlns="http://www.w3.org/2000/svg"
   xmlns:sodipodi="http://sodipodi.sourceforge.net/DTD/sodipodi-0.dtd"
   xmlns:inkscape="http://www.inkscape.org/namespaces/inkscape"
   version="1.1"
   id="svg10"
   width="256"
   height="256"
   viewBox="0 0 256 256"
   sodipodi:docname="firefox2.svg"
   inkscape:export-filename="E:\School\WEB-151\Module 3\M3T1_Lastname_Template\images\firefox2.png"
   inkscape:export-xdpi="96"
   inkscape:export-ydpi="96"
   inkscape:version="0.92.2 (5c3e80d, 2017-08-06)">
  <metadata
     id="metadata16">
    <rdf:RDF>
      <cc:Work
         rdf:about="">
        <dc:format>image/svg+xml</dc:format>
        <dc:type
           rdf:resource="http://purl.org/dc/dcmitype/StillImage" />
        <dc:title></dc:title>
      </cc:Work>
    </rdf:RDF>
  </metadata>
  <defs
     id="defs14" />
  <sodipodi:namedview
     pagecolor="#ffffff"
     bordercolor="#666666"
     borderopacity="1"
     objecttolerance="10"
     gridtolerance="10"
     guidetolerance="10"
     inkscape:pageopacity="0"
     inkscape:pageshadow="2"
     inkscape:window-width="1600"
     inkscape:window-height="848"
     id="namedview12"
     showgrid="false"
     inkscape:snap-global="false"
     inkscape:zoom="1.7097621"
     inkscape:cx="104.34436"
     inkscape:cy="109.54932"
     inkscape:window-x="-8"
     inkscape:window-y="-8"
     inkscape:window-maximized="1"
     inkscape:current-layer="svg10" />
  <path
     style="opacity:1;vector-effect:none;fill:#45a6c7;fill-opacity:1;stroke:#000000;stroke-width:3.99999976;stroke-linecap:butt;stroke-linejoin:miter;stroke-miterlimit:4;stroke-dasharray:none;stroke-dashoffset:0;stroke-opacity:1"
     d="m 56.144006,60.29714 5.85205,-8.288856 10.24109,-7.801276 15.117798,-8.288857 11.704102,-3.413058 10.728754,-0.975159 11.70411,-0.97516 14.63012,-0.48758 11.7041,-0.487579 12.19178,2.925478 10.72876,4.875798 1.46301,0.97516 33.16162,46.320078 17.55615,38.031221 -6.82739,35.10575 -39.01367,45.8325 -47.79175,9.26401 L 69.31112,177.80387 52.730309,125.14525 48.341271,87.114028 Z"
     id="path3725"
     inkscape:connector-curvature="0" />
  <path
     style="opacity:1;vector-effect:none;fill:#dc571a;fill-opacity:1;stroke:#000000;stroke-width:3.99999976;stroke-linecap:butt;stroke-linejoin:miter;stroke-miterlimit:4;stroke-dasharray:none;stroke-dashoffset:0;stroke-opacity:1"
     d="m 98.083704,77.850012 10.241086,0.97516 6.82739,1.462739 5.85206,-0.975159 h 4.8767 l 2.43836,5.363377 -6.33972,9.264016 -5.85205,3.900638 -7.80274,1.462739 -4.87671,0.48758 -5.852047,0.487578 -4.876709,-8.776434 0.487671,-10.239175 z"
     id="path3719"
     inkscape:connector-curvature="0" />
  <path
     style="opacity:1;vector-effect:none;fill:#dc571a;fill-opacity:1;stroke:#000000;stroke-width:3.99999976;stroke-linecap:butt;stroke-linejoin:miter;stroke-miterlimit:4;stroke-dasharray:none;stroke-dashoffset:0;stroke-opacity:1"
     d="m 92.231653,136.35958 10.241087,0.97517 13.16712,0.97516 15.1178,-1.46274 10.72876,-0.97517 11.21643,-0.48757 3.90136,6.33854 -2.92603,7.80127 -5.36437,2.4379 -7.31507,0.48758 -8.2904,2.4379 -9.75342,5.36337 -6.82739,2.92548 -9.75342,0.97516 h -5.36438 l -4.87671,-5.85096 -2.438355,-5.36337 -1.950683,-8.28885 z"
     id="path3723"
     inkscape:connector-curvature="0" />
  <path
     style="opacity:1;vector-effect:none;fill:#c33801;fill-opacity:1;stroke:#000000;stroke-width:3.99999976;stroke-linecap:butt;stroke-linejoin:miter;stroke-miterlimit:4;stroke-dasharray:none;stroke-dashoffset:0;stroke-opacity:1"
     d="M 58.094689,63.222619 C 56.652162,62.45594 57.987854,59.935192 57.607018,58.346821 56.875153,55.294391 56.091035,52.070943 54.193322,49.570386 53.210723,48.275646 51.45922,47.776052 50.291955,46.644906 49.54454,45.920619 48.943231,45.056001 48.341271,44.207008 47.45438,42.95615 47.244233,41.049652 45.902917,40.30637 c -1.706151,-0.945453 -4.001471,-0.616745 -5.852052,0 -3.084301,1.027908 -6.055449,3.109772 -7.802734,5.850957 -1.696307,2.661209 -1.623812,6.125288 -1.950684,9.264016 -0.151513,1.454873 0,2.925478 0,4.388217 0,4.063165 0.420869,8.148177 0,12.189495 -0.326872,3.138727 -1.024249,6.24732 -1.950683,9.264016 -1.134144,3.693049 -2.997023,7.122947 -4.389038,10.726755 -0.685457,1.774588 -1.620563,3.489904 -1.950684,5.363377 -0.33845,1.920739 0.08839,3.902637 0,5.850957 -0.162724,3.58664 -0.812618,7.14011 -0.975342,10.72675 -0.132591,2.92248 -0.191266,5.85722 0,8.77644 0.407264,6.21592 1.934034,12.31923 2.438355,18.52803 0.421266,5.18632 -0.328719,10.46358 0.487671,15.60255 0.637493,4.01286 2.149671,7.8403 3.413696,11.70192 1.775404,5.42389 3.313536,10.97858 5.852051,16.09013 2.667027,5.37032 5.710336,10.68663 9.753418,15.11497 3.200796,3.50581 7.304009,6.08747 11.216431,8.77644 8.592179,5.90533 16.936512,12.77554 26.8219,16.09013 4.340084,1.45524 9.202143,0.40049 13.654786,1.46274 6.255162,1.49229 11.729142,5.60997 18.043822,6.82612 8.4615,1.62962 17.25855,1.19431 25.84656,0.48758 4.44862,-0.36609 8.80196,-1.50552 13.16712,-2.4379 5.39795,-1.15299 10.82022,-2.26873 16.09314,-3.90063 4.81641,-1.49062 9.51242,-3.36791 14.14245,-5.36339 5.47466,-2.3595 11.53001,-3.96543 16.09314,-7.80127 3.83297,-3.22204 5.70247,-8.23831 8.77807,-12.18949 3.2597,-4.18768 6.94076,-8.03376 10.24109,-12.1895 3.53791,-4.45489 7.87852,-8.47743 10.24109,-13.65224 2.55529,-5.59691 2.41366,-12.07051 3.90137,-18.04044 1.87863,-7.53858 5.27301,-14.73318 6.33972,-22.42867 0.75873,-5.47359 0.54461,-11.07871 0,-16.57772 -0.65341,-6.59754 -2.40369,-13.04469 -3.90136,-19.503188 -2.01263,-8.679146 -3.32938,-17.647507 -6.82739,-25.841727 -2.69221,-6.306603 -6.30919,-12.309485 -10.72877,-17.552872 -4.4542,-5.284466 -9.69806,-10.064221 -15.60546,-13.652235 -3.43133,-2.084106 -7.34603,-3.321133 -11.21644,-4.388217 -2.85965,-0.788417 -5.83518,-1.090199 -8.77807,-1.46274 -3.72319,-0.471319 -7.46704,-0.81248 -11.21643,-0.975159 -3.7353,-0.162068 -7.47762,0 -11.21644,0 -4.38904,0 -8.77932,-0.104392 -13.16711,0 -3.4166,0.08129 -6.93457,-0.376359 -10.24109,0.487579 -1.05503,0.275663 -3.04502,0.378988 -2.92603,1.46274 0.21941,1.998339 3.89257,1.011794 5.85206,1.462739 3.07586,0.707862 6.14931,1.450436 9.26575,1.950319 2.90685,0.466267 5.87206,0.503666 8.77807,0.97516 2.29741,0.372749 6.69869,-0.860725 6.82739,1.462739 0.17056,3.079006 -5.80569,2.102329 -8.77808,2.925479 -1.44431,0.399979 -3.02744,0.349034 -4.38903,0.975159 -2.21528,1.018692 -6.01179,1.955556 -5.85205,4.388218 0.19548,2.977184 5.10254,3.117979 7.80273,4.388219 2.04871,0.963766 4.20857,1.673457 6.33973,2.437898 0.48385,0.173558 1.01878,0.228965 1.46301,0.48758 1.88994,1.100255 3.02576,3.223574 4.8767,4.388218 2.52937,1.591523 5.65987,1.994937 8.29041,3.413059 3.80988,2.053893 7.12337,4.919085 10.72876,7.313696 2.74171,1.820976 6.00271,2.99726 8.29041,5.363378 0.65879,0.681371 1.87437,1.58411 1.46301,2.437898 -1.06757,2.215788 -4.86053,0.812276 -7.31506,0.97516 -0.97321,0.06458 -2.53918,-0.895174 -2.92603,0 -1.50519,3.48301 5.96269,4.970481 7.80274,8.288856 1.54854,2.792678 1.87872,6.12028 2.43835,9.264014 0.60088,3.37546 0.8126,6.81454 0.97534,10.23918 0.0617,1.29874 0.70863,2.81042 0,3.90063 -0.87241,1.34218 -2.789,1.89475 -4.38904,1.95033 -1.90153,0.066 -3.94396,-0.68462 -5.36437,-1.95033 -0.27136,-0.24179 -0.13097,-1.04501 -0.48768,-0.97515 -4.1599,0.81473 -1.06083,8.43976 -0.97534,12.67707 0.0561,2.78144 0.81251,5.51161 0.97534,8.28885 0.1427,2.43372 0.81975,5.01771 0,7.31371 -0.77671,2.17549 -2.21314,6.13994 -4.38904,5.36337 -1.07166,-0.38248 0.57115,-2.42907 0,-3.41306 -0.65781,-1.13332 -2.1514,-2.3027 -3.4137,-1.95031 -1.61197,0.44999 -1.52328,2.98716 -2.43835,4.38821 -2.79085,4.27307 -5.68979,8.54774 -9.26575,12.18949 -2.75678,2.80751 -5.83264,5.39084 -9.26574,7.3137 -2.87163,1.60838 -6.05345,2.69532 -9.26575,3.41306 -3.66257,0.81835 -7.46704,0.81248 -11.21643,0.97516 -4.54731,0.1973 -9.27223,1.22871 -13.65478,0 -4.21443,-1.18157 -8.01821,-3.83848 -11.21644,-6.82612 -4.94327,-4.61778 -8.37445,-10.68974 -11.704097,-16.57771 -2.18521,-3.86421 -4.360504,-7.86536 -5.36438,-12.1895 -0.882874,-3.80292 -2.585526,-8.40919 -0.487671,-11.70191 1.135353,-1.78201 3.75428,-2.18272 5.852051,-2.4379 2.122452,-0.25818 4.205837,1.10938 6.339727,0.97516 2.36219,-0.14857 5.44535,-0.0292 6.82738,-1.95031 2.09037,-2.90573 0.29396,-7.23384 -0.48766,-10.72676 -0.46139,-2.06187 -1.53663,-3.94012 -2.43836,-5.85096 -1.33424,-2.827362 -2.9879,-5.494027 -4.38904,-8.288856 -1.5314,-3.054678 -3.877514,-5.88558 -4.389034,-9.264015 -0.688172,-4.545163 0.513453,-9.28565 1.950684,-13.652234 1.50051,-4.558846 4.21757,-8.649021 6.82739,-12.677074 1.44953,-2.237243 2.78143,-4.690197 4.87671,-6.338537 1.25821,-0.98982 3.03988,-1.088516 4.38904,-1.950319 1.45618,-0.930169 3.36998,-1.769096 3.90137,-3.413059 0.66694,-2.063301 -0.15872,-4.606112 -1.46302,-6.338537 -1.00651,-1.336894 -2.74075,-2.147844 -4.38904,-2.437898 -4.05331,-0.713274 -8.20391,0.93302 -12.19177,1.950319 -5.181122,1.321702 -10.337212,2.968492 -15.117795,5.363377 -3.144055,1.575049 -5.806474,3.970785 -8.778076,5.850957 -0.800954,0.506774 -1.971345,0.638064 -2.438355,1.462739 -1.081237,1.909313 1.432047,4.919763 0,6.582328 -1.072644,1.245306 -3.234346,0.663742 -4.876709,0.731369 -2.441698,0.100541 -4.926879,-1.005718 -7.315065,-0.48758 -2.345535,0.508886 -4.220425,4.539429 -6.339721,3.413059 z"
     id="path3709"
     inkscape:connector-curvature="0"
     sodipodi:nodetypes="aaaaaaaaaaaaaaaaaaaaaaaaaaaaaaaaaaaaaaaaaaaaaaaaaaaaaaaaaaaaaaaaaaaaaaaaaaaaaaaaaaaaaaaaaaaaaaaaaaaaaaaaaaaaaa" />
  <path
     style="opacity:1;vector-effect:none;fill:#fef8a6;fill-opacity:1;stroke:#000000;stroke-width:3.99999976;stroke-linecap:butt;stroke-linejoin:miter;stroke-miterlimit:4;stroke-dasharray:none;stroke-dashoffset:0;stroke-opacity:1"
     d="m 170.74667,179.2666 9.26574,-9.26401 5.36439,-16.09014 4.38904,-18.52802 1.95068,-10.72676 1.46302,-1.95032 9.26574,10.72676 -0.97534,15.11497 -4.87671,13.65224 -3.90137,9.75159 -5.36438,6.82611 -10.72876,4.8758 h -2.43836 z"
     id="path3711"
     inkscape:connector-curvature="0" />
  <path
     style="opacity:1;vector-effect:none;fill:#fef8a6;fill-opacity:1;stroke:#000000;stroke-width:3.99999976;stroke-linecap:butt;stroke-linejoin:miter;stroke-miterlimit:4;stroke-dasharray:none;stroke-dashoffset:0;stroke-opacity:1"
     d="m 209.76034,130.02105 4.38904,-14.62739 0.48767,-9.26402 -0.48767,-12.189495 0.97535,-4.388218 7.80272,5.363377 1.95069,17.552876 0.97534,9.75159 v 8.77644 l -2.92603,3.90063 -4.8767,0.97517 -5.36438,-1.95032 z"
     id="path3713"
     inkscape:connector-curvature="0" />
  <path
     style="opacity:1;vector-effect:none;fill:#fef8a6;fill-opacity:1;stroke:#000000;stroke-width:3.99999976;stroke-linecap:butt;stroke-linejoin:miter;stroke-miterlimit:4;stroke-dasharray:none;stroke-dashoffset:0;stroke-opacity:1"
     d="m 203.42062,79.800331 -8.29041,-7.801276 -10.72876,-7.801277 -13.16711,-8.776435 -9.75342,-4.875798 8.77808,-1.950319 13.65479,0.97516 11.7041,4.875797 3.90136,2.925479 5.85205,7.313696 3.4137,9.751596 v 2.925478 z"
     id="path3715"
     inkscape:connector-curvature="0" />
  <path
     style="opacity:1;vector-effect:none;fill:#e38319;fill-opacity:1;stroke:#000000;stroke-width:3.99999976;stroke-linecap:butt;stroke-linejoin:miter;stroke-miterlimit:4;stroke-dasharray:none;stroke-dashoffset:0;stroke-opacity:1"
     d="m 37.12484,82.23823 -7.802734,16.090133 -3.901368,7.313697 -0.975342,11.70191 v 14.13981 l -0.48767,12.1895 0.975341,9.26402 1.950684,8.28885 4.87671,7.3137 4.876708,0.97516 0.487671,-8.77643 1.463013,-2.92548 4.389038,9.26401 1.950684,9.26402 6.827393,6.33854 2.438354,0.48757 -1.463013,-7.80127 7.315064,9.26401 4.389038,6.33854 7.315064,2.4379 13.654786,3.90064 7.315063,0.48757 -9.753418,-4.87579 15.605469,3.41305 10.241095,5.36339 h 13.16711 4.38904 l -7.31507,-5.85096 -2.92602,-2.4379 26.33423,4.38821 14.63012,-4.87579 5.36438,-2.4379 -25.35888,-3.41306 -32.18629,-7.80128 -13.654779,-6.82611 -21.45752,-25.84173 -2.926026,-19.99077 11.704103,-9.7516 11.704101,-1.95031 11.216431,-5.36339 -1.950683,-8.28885 -3.413697,-12.677073 2.438355,-18.528031 7.315065,-11.701915 3.90136,-7.313696 -5.36437,-1.462739 -12.191777,3.413057 -15.117798,10.239176 -6.827393,4.875798 -14.142456,2.925478 -5.364381,-7.801276 -2.926025,-7.801276 -3.413697,-0.48758 -4.876708,10.239175 v 10.239175 z"
     id="path3717"
     inkscape:connector-curvature="0" />
  <path
     style="opacity:1;vector-effect:none;fill:#676767;fill-opacity:1;stroke:#000000;stroke-width:3.99999976;stroke-linecap:butt;stroke-linejoin:miter;stroke-miterlimit:4;stroke-dasharray:none;stroke-dashoffset:0;stroke-opacity:1"
     d="m 129.29464,77.850012 -7.31506,-1.462739 -6.8274,1.950319 2.92603,9.751595 6.33972,1.46274 5.36439,-2.925479 0.97534,-4.388218 v -4.875798 z"
     id="path3721"
     inkscape:connector-curvature="0" />
</svg>
