<?xml version="1.0" encoding="UTF-8" standalone="no"?>
<!-- Created with Inkscape (http://www.inkscape.org/) -->

<svg
   xmlns:dc="http://purl.org/dc/elements/1.1/"
   xmlns:cc="http://creativecommons.org/ns#"
   xmlns:rdf="http://www.w3.org/1999/02/22-rdf-syntax-ns#"
   xmlns:svg="http://www.w3.org/2000/svg"
   xmlns="http://www.w3.org/2000/svg"
   xmlns:sodipodi="http://sodipodi.sourceforge.net/DTD/sodipodi-0.dtd"
   xmlns:inkscape="http://www.inkscape.org/namespaces/inkscape"
   width="800"
   height="600"
   version="1.1"
   id="svg8"
   inkscape:version="0.92.2 (5c3e80d, 2017-08-06)"
   sodipodi:docname="Background.svg"
   inkscape:export-filename="M:\School\WEB-151\Git\Final\sneaksy\Resources\Background.png"
   inkscape:export-xdpi="96"
   inkscape:export-ydpi="96">
  <defs
     id="defs2" />
  <sodipodi:namedview
     id="base"
     pagecolor="#ffffff"
     bordercolor="#666666"
     borderopacity="1.0"
     inkscape:pageopacity="0.0"
     inkscape:pageshadow="2"
     inkscape:zoom="1"
     inkscape:cx="144"
     inkscape:cy="277"
     inkscape:document-units="px"
     inkscape:current-layer="layer1"
     showgrid="false"
     units="px"
     inkscape:window-width="1920"
     inkscape:window-height="1017"
     inkscape:window-x="-8"
     inkscape:window-y="-8"
     inkscape:window-maximized="1"
     inkscape:snap-global="false"
     showguides="false" />
  <metadata
     id="metadata5">
    <rdf:RDF>
      <cc:Work
         rdf:about="">
        <dc:format>image/svg+xml</dc:format>
        <dc:type
           rdf:resource="http://purl.org/dc/dcmitype/StillImage" />
        <dc:title />
      </cc:Work>
    </rdf:RDF>
  </metadata>
  <g
     inkscape:label="Layer 1"
     inkscape:groupmode="layer"
     id="layer1"
     transform="translate(0,-73.53331)">
    <rect
       style="opacity:1;vector-effect:none;fill:#abc837;fill-opacity:1;stroke:none;stroke-width:3;stroke-linecap:butt;stroke-linejoin:miter;stroke-miterlimit:4;stroke-dasharray:none;stroke-dashoffset:0;stroke-opacity:1;marker:none"
       id="rect7"
       width="820"
       height="618"
       x="-6"
       y="66.53331" />
    <path
       style="opacity:1;vector-effect:none;fill:#86b338;fill-opacity:1;stroke:none;stroke-width:2;stroke-linecap:butt;stroke-linejoin:miter;stroke-miterlimit:4;stroke-dasharray:none;stroke-dashoffset:0;stroke-opacity:1;font-variant-east_asian:normal"
       d="m -19,241.53331 59,-33 -3,-52 82,-33 -1,-53 46,-27 21,10 -48,22 4,54 -91,38 8,45 -76,51 z"
       id="path9"
       inkscape:connector-curvature="0" />
    <path
       style="opacity:1;vector-effect:none;fill:#c3dc20;fill-opacity:1;stroke:none;stroke-width:2;stroke-linecap:butt;stroke-linejoin:miter;stroke-miterlimit:4;stroke-dasharray:none;stroke-dashoffset:0;stroke-opacity:1;font-variant-east_asian:normal"
       d="m -15,285.53331 90,-61 -7,-43 91,-41 -4,-51 61,-34 28,2 -73,39 8,52 -98,42 14,41 -109,82 z"
       id="path11"
       inkscape:connector-curvature="0" />
    <path
       style="opacity:1;vector-effect:none;fill:#86b338;fill-opacity:1;stroke:none;stroke-width:2;stroke-linecap:butt;stroke-linejoin:miter;stroke-miterlimit:4;stroke-dasharray:none;stroke-dashoffset:0;stroke-opacity:1"
       d="m 338,54.53331 -47,88 -58,49 -35,97 -106,74 -34,91 -82,44 v 19 l 95,-53 27,-94 111,-78 34,-94 62,-53 49,-91 z"
       id="path13"
       inkscape:connector-curvature="0"
       sodipodi:nodetypes="ccccccccccccccc" />
    <path
       style="opacity:1;vector-effect:none;fill:#c3dc20;fill-opacity:1;stroke:none;stroke-width:2;stroke-linecap:butt;stroke-linejoin:miter;stroke-miterlimit:4;stroke-dasharray:none;stroke-dashoffset:0;stroke-opacity:1"
       d="m 381,53.53331 -48,115 -75,50 -28,87 -122,79 -20,92 -112,50 3,25 124,-72 15,-91 127,-78 24,-85 83,-50 52,-123 z"
       id="path15"
       inkscape:connector-curvature="0"
       sodipodi:nodetypes="ccccccccccccccc" />
    <path
       style="opacity:1;vector-effect:none;fill:#86b338;fill-opacity:1;stroke:none;stroke-width:2;stroke-linecap:butt;stroke-linejoin:miter;stroke-miterlimit:4;stroke-dasharray:none;stroke-dashoffset:0;stroke-opacity:1"
       d="m 454,52.53331 23,3 -48,147 -117,63 -24,95 -127,78 -5,72 -174,101 1,-19 157,-91 8,-77 129,-78 26,-95 117,-58 z"
       id="path17"
       inkscape:connector-curvature="0" />
    <path
       style="opacity:1;vector-effect:none;fill:#90b24d;fill-opacity:1;stroke:none;stroke-width:2;stroke-linecap:butt;stroke-linejoin:miter;stroke-miterlimit:4;stroke-dasharray:none;stroke-dashoffset:0;stroke-opacity:1"
       d="m 363,280.53331 47,-26 46,11 4,37 -42,34 -55,-10 z"
       id="path19"
       inkscape:connector-curvature="0"
       sodipodi:nodetypes="ccccccc" />
    <path
       sodipodi:nodetypes="ccccccc"
       inkscape:connector-curvature="0"
       id="path21"
       d="m 319,368.53331 47,-26 46,11 4,37 -42,34 -55,-10 z"
       style="opacity:1;vector-effect:none;fill:#90b24d;fill-opacity:1;stroke:none;stroke-width:2;stroke-linecap:butt;stroke-linejoin:miter;stroke-miterlimit:4;stroke-dasharray:none;stroke-dashoffset:0;stroke-opacity:1" />
    <path
       style="opacity:1;vector-effect:none;fill:#90b24d;fill-opacity:1;stroke:none;stroke-width:2;stroke-linecap:butt;stroke-linejoin:miter;stroke-miterlimit:4;stroke-dasharray:none;stroke-dashoffset:0;stroke-opacity:1"
       d="m 431,345.53331 47,-26 46,11 4,37 -42,34 -55,-10 z"
       id="path23"
       inkscape:connector-curvature="0"
       sodipodi:nodetypes="ccccccc" />
    <path
       sodipodi:nodetypes="ccccccc"
       inkscape:connector-curvature="0"
       id="path25"
       d="m 474,259.53331 47,-26 46,11 4,37 -42,34 -55,-10 z"
       style="opacity:1;vector-effect:none;fill:#90b24d;fill-opacity:1;stroke:none;stroke-width:2;stroke-linecap:butt;stroke-linejoin:miter;stroke-miterlimit:4;stroke-dasharray:none;stroke-dashoffset:0;stroke-opacity:1" />
    <path
       style="opacity:1;vector-effect:none;fill:#90b24d;fill-opacity:1;stroke:none;stroke-width:2;stroke-linecap:butt;stroke-linejoin:miter;stroke-miterlimit:4;stroke-dasharray:none;stroke-dashoffset:0;stroke-opacity:1"
       d="m 378,433.53331 47,-26 46,11 4,37 -42,34 -55,-10 z"
       id="path27"
       inkscape:connector-curvature="0"
       sodipodi:nodetypes="ccccccc" />
    <path
       sodipodi:nodetypes="ccccccc"
       inkscape:connector-curvature="0"
       id="path29"
       d="m 503,409.53331 47,-26 46,11 4,37 -42,34 -55,-10 z"
       style="opacity:1;vector-effect:none;fill:#90b24d;fill-opacity:1;stroke:none;stroke-width:2;stroke-linecap:butt;stroke-linejoin:miter;stroke-miterlimit:4;stroke-dasharray:none;stroke-dashoffset:0;stroke-opacity:1" />
    <path
       style="opacity:1;vector-effect:none;fill:#90b24d;fill-opacity:1;stroke:none;stroke-width:2;stroke-linecap:butt;stroke-linejoin:miter;stroke-miterlimit:4;stroke-dasharray:none;stroke-dashoffset:0;stroke-opacity:1"
       d="m 543,322.53331 47,-26 46,11 4,37 -42,34 -55,-10 z"
       id="path31"
       inkscape:connector-curvature="0"
       sodipodi:nodetypes="ccccccc" />
    <path
       style="opacity:1;vector-effect:none;fill:#b8814a;fill-opacity:1;stroke:#000000;stroke-width:4;stroke-linecap:butt;stroke-linejoin:miter;stroke-miterlimit:4;stroke-dasharray:none;stroke-dashoffset:0;stroke-opacity:1"
       d="m 12,58.53331 c -7.5149219,10.613061 -1.283584,26.197799 1,39 3.276346,18.36782 14.95935,34.5917 18,53 3.422369,20.71925 0.645238,42.00992 0,63 -0.666982,21.6974 -1.986086,43.38597 -4,65 -1.994589,21.40663 -5.207685,42.68275 -8,64 -3.189905,24.35255 -8.329465,48.4963 -10,73 -1.2243047,17.95832 -1.5700521,36.0686 0,54 1.505739,17.19688 6.803741,33.8776 9,51 2.637871,20.56527 5.105626,41.26651 5,62 -0.05627,11.04522 -2.619429,21.9612 -3,33 -0.528439,15.32785 2.21126,30.71095 1,46 -1.177313,14.86056 -17.0351503,32.14301 -8,44 18.254582,23.95582 66.628563,26.99703 90,8 13.28278,-10.79665 6.06202,-33.88287 6,-51 -0.0876,-24.18661 -4.60798,-48.21534 -9,-72 -3.55271,-19.23944 -9.564485,-37.94471 -14,-57 -3.868859,-16.6209 -8.313052,-33.14763 -11,-50 -3.164737,-19.84904 -7.148999,-39.93312 -6,-60 0.897,-15.66581 6.878376,-30.62217 10,-46 3.576577,-17.61903 7.269117,-35.23024 10,-53 2.14159,-13.93526 3.465154,-27.98494 5,-42 1.458748,-13.3202 3.332505,-26.6168 4,-40 0.730601,-14.64846 0.911349,-29.36168 0,-44 -0.834947,-13.41113 -0.544183,-27.3232 -5,-40 -3.374493,-9.60043 -11.571741,-16.83779 -16,-26 -3.395591,-7.02559 -7.511475,-14.21217 -8,-22 -0.47082,-7.50559 3.176883,-14.703987 5,-22 1.842711,-7.374428 6.017843,-14.398851 6,-22 -0.01462,-6.227163 -0.108036,-14.146889 -5,-18 -7.598478,-5.984871 -19.421168,-2.34221 -29,-1 -11.796467,1.65295 -27.116448,1.278601 -34,11 z"
       id="path866"
       inkscape:connector-curvature="0"
       sodipodi:nodetypes="aaaaaaaaaaaaaaaaaaaaaaaaaaaaaaaa" />
    <circle
       style="opacity:1;vector-effect:none;fill:#9b6c3d;fill-opacity:1;stroke:none;stroke-width:4;stroke-linecap:butt;stroke-linejoin:miter;stroke-miterlimit:4;stroke-dasharray:none;stroke-dashoffset:0;stroke-opacity:1;marker:none"
       id="path870"
       cx="32"
       cy="75.53331"
       r="11" />
    <circle
       style="opacity:1;vector-effect:none;fill:#9b6c3d;fill-opacity:1;stroke:none;stroke-width:4;stroke-linecap:butt;stroke-linejoin:miter;stroke-miterlimit:4;stroke-dasharray:none;stroke-dashoffset:0;stroke-opacity:1;marker:none"
       id="path872"
       cx="61"
       cy="59.53331"
       r="6" />
    <circle
       style="opacity:1;vector-effect:none;fill:#9b6c3d;fill-opacity:1;stroke:none;stroke-width:4;stroke-linecap:butt;stroke-linejoin:miter;stroke-miterlimit:4;stroke-dasharray:none;stroke-dashoffset:0;stroke-opacity:1;marker:none"
       id="path874"
       cx="39"
       cy="110.53331"
       r="10" />
    <circle
       style="opacity:1;vector-effect:none;fill:#9b6c3d;fill-opacity:1;stroke:none;stroke-width:4;stroke-linecap:butt;stroke-linejoin:miter;stroke-miterlimit:4;stroke-dasharray:none;stroke-dashoffset:0;stroke-opacity:1;marker:none"
       id="path876"
       cx="78.5"
       cy="168.03331"
       r="10.5" />
    <circle
       style="opacity:1;vector-effect:none;fill:#9b6c3d;fill-opacity:1;stroke:none;stroke-width:4;stroke-linecap:butt;stroke-linejoin:miter;stroke-miterlimit:4;stroke-dasharray:none;stroke-dashoffset:0;stroke-opacity:1;marker:none"
       id="path878"
       cx="52"
       cy="182.53331"
       r="12" />
    <circle
       style="opacity:1;vector-effect:none;fill:#9b6c3d;fill-opacity:1;stroke:none;stroke-width:4;stroke-linecap:butt;stroke-linejoin:miter;stroke-miterlimit:4;stroke-dasharray:none;stroke-dashoffset:0;stroke-opacity:1;marker:none"
       id="path880"
       cx="52"
       cy="144.53331"
       r="12" />
    <circle
       style="opacity:1;vector-effect:none;fill:#9b6c3d;fill-opacity:1;stroke:none;stroke-width:4;stroke-linecap:butt;stroke-linejoin:miter;stroke-miterlimit:4;stroke-dasharray:none;stroke-dashoffset:0;stroke-opacity:1;marker:none"
       id="path882"
       cx="75.5"
       cy="218.03331"
       r="10.5" />
    <circle
       style="opacity:1;vector-effect:none;fill:#9b6c3d;fill-opacity:1;stroke:none;stroke-width:4;stroke-linecap:butt;stroke-linejoin:miter;stroke-miterlimit:4;stroke-dasharray:none;stroke-dashoffset:0;stroke-opacity:1;marker:none"
       id="path884"
       cx="47"
       cy="260.53333"
       r="14" />
    <circle
       style="opacity:1;vector-effect:none;fill:#9b6c3d;fill-opacity:1;stroke:none;stroke-width:4;stroke-linecap:butt;stroke-linejoin:miter;stroke-miterlimit:4;stroke-dasharray:none;stroke-dashoffset:0;stroke-opacity:1;marker:none"
       id="path886"
       cx="53"
       cy="227.53331"
       r="10" />
    <circle
       style="opacity:1;vector-effect:none;fill:#9b6c3d;fill-opacity:1;stroke:none;stroke-width:4;stroke-linecap:butt;stroke-linejoin:miter;stroke-miterlimit:4;stroke-dasharray:none;stroke-dashoffset:0;stroke-opacity:1;marker:none"
       id="path888"
       cx="68"
       cy="288.53333"
       r="16" />
    <circle
       style="opacity:1;vector-effect:none;fill:#9b6c3d;fill-opacity:1;stroke:none;stroke-width:4;stroke-linecap:butt;stroke-linejoin:miter;stroke-miterlimit:4;stroke-dasharray:none;stroke-dashoffset:0;stroke-opacity:1;marker:none"
       id="path890"
       cx="37.5"
       cy="316.03333"
       r="7.5" />
    <circle
       style="opacity:1;vector-effect:none;fill:#9b6c3d;fill-opacity:1;stroke:none;stroke-width:4;stroke-linecap:butt;stroke-linejoin:miter;stroke-miterlimit:4;stroke-dasharray:none;stroke-dashoffset:0;stroke-opacity:1;marker:none"
       id="path892"
       cx="59.5"
       cy="347.03333"
       r="15.5" />
    <circle
       style="opacity:1;vector-effect:none;fill:#9b6c3d;fill-opacity:1;stroke:none;stroke-width:4;stroke-linecap:butt;stroke-linejoin:miter;stroke-miterlimit:4;stroke-dasharray:none;stroke-dashoffset:0;stroke-opacity:1;marker:none"
       id="path894"
       cx="30.5"
       cy="369.03333"
       r="7.5" />
    <circle
       style="opacity:1;vector-effect:none;fill:#9b6c3d;fill-opacity:1;stroke:none;stroke-width:4;stroke-linecap:butt;stroke-linejoin:miter;stroke-miterlimit:4;stroke-dasharray:none;stroke-dashoffset:0;stroke-opacity:1;marker:none"
       id="path896"
       cx="47"
       cy="398.53333"
       r="14" />
    <circle
       style="opacity:1;vector-effect:none;fill:#9b6c3d;fill-opacity:1;stroke:none;stroke-width:4;stroke-linecap:butt;stroke-linejoin:miter;stroke-miterlimit:4;stroke-dasharray:none;stroke-dashoffset:0;stroke-opacity:1;marker:none"
       id="path898"
       cx="62.5"
       cy="320.03333"
       r="7.5" />
    <circle
       style="opacity:1;vector-effect:none;fill:#9b6c3d;fill-opacity:1;stroke:none;stroke-width:4;stroke-linecap:butt;stroke-linejoin:miter;stroke-miterlimit:4;stroke-dasharray:none;stroke-dashoffset:0;stroke-opacity:1;marker:none"
       id="path900"
       cx="76"
       cy="249.53331"
       r="12" />
    <circle
       style="opacity:1;vector-effect:none;fill:#9b6c3d;fill-opacity:1;stroke:none;stroke-width:4;stroke-linecap:butt;stroke-linejoin:miter;stroke-miterlimit:4;stroke-dasharray:none;stroke-dashoffset:0;stroke-opacity:1;marker:none"
       id="path902"
       cx="27.5"
       cy="429.03333"
       r="11.5" />
    <circle
       style="opacity:1;vector-effect:none;fill:#9b6c3d;fill-opacity:1;stroke:none;stroke-width:4;stroke-linecap:butt;stroke-linejoin:miter;stroke-miterlimit:4;stroke-dasharray:none;stroke-dashoffset:0;stroke-opacity:1;marker:none"
       id="path904"
       cx="51.5"
       cy="432.03333"
       r="8.5" />
    <circle
       style="opacity:1;vector-effect:none;fill:#9b6c3d;fill-opacity:1;stroke:none;stroke-width:4;stroke-linecap:butt;stroke-linejoin:miter;stroke-miterlimit:4;stroke-dasharray:none;stroke-dashoffset:0;stroke-opacity:1;marker:none"
       id="path906"
       cx="29"
       cy="460.53333"
       r="12" />
    <circle
       style="opacity:1;vector-effect:none;fill:#9b6c3d;fill-opacity:1;stroke:none;stroke-width:4;stroke-linecap:butt;stroke-linejoin:miter;stroke-miterlimit:4;stroke-dasharray:none;stroke-dashoffset:0;stroke-opacity:1;marker:none"
       id="path908"
       cx="56.5"
       cy="481.03333"
       r="9.5" />
    <circle
       style="opacity:1;vector-effect:none;fill:#9b6c3d;fill-opacity:1;stroke:none;stroke-width:4;stroke-linecap:butt;stroke-linejoin:miter;stroke-miterlimit:4;stroke-dasharray:none;stroke-dashoffset:0;stroke-opacity:1;marker:none"
       id="path910"
       cx="39"
       cy="510.53333"
       r="16" />
    <circle
       style="opacity:1;vector-effect:none;fill:#9b6c3d;fill-opacity:1;stroke:none;stroke-width:4;stroke-linecap:butt;stroke-linejoin:miter;stroke-miterlimit:4;stroke-dasharray:none;stroke-dashoffset:0;stroke-opacity:1;marker:none"
       id="path912"
       cx="67"
       cy="527.53333"
       r="9" />
    <circle
       style="opacity:1;vector-effect:none;fill:#9b6c3d;fill-opacity:1;stroke:none;stroke-width:4;stroke-linecap:butt;stroke-linejoin:miter;stroke-miterlimit:4;stroke-dasharray:none;stroke-dashoffset:0;stroke-opacity:1;marker:none"
       id="path914"
       cx="45"
       cy="561.53333"
       r="18" />
    <circle
       style="opacity:1;vector-effect:none;fill:#9b6c3d;fill-opacity:1;stroke:none;stroke-width:4;stroke-linecap:butt;stroke-linejoin:miter;stroke-miterlimit:4;stroke-dasharray:none;stroke-dashoffset:0;stroke-opacity:1;marker:none"
       id="path916"
       cx="77"
       cy="570.53333"
       r="9" />
    <circle
       style="opacity:1;vector-effect:none;fill:#9b6c3d;fill-opacity:1;stroke:none;stroke-width:4;stroke-linecap:butt;stroke-linejoin:miter;stroke-miterlimit:4;stroke-dasharray:none;stroke-dashoffset:0;stroke-opacity:1;marker:none"
       id="path918"
       cx="40"
       cy="602.53333"
       r="7" />
    <circle
       style="opacity:1;vector-effect:none;fill:#9b6c3d;fill-opacity:1;stroke:none;stroke-width:4;stroke-linecap:butt;stroke-linejoin:miter;stroke-miterlimit:4;stroke-dasharray:none;stroke-dashoffset:0;stroke-opacity:1;marker:none"
       id="path920"
       cx="74"
       cy="610.53333"
       r="16" />
    <circle
       style="opacity:1;vector-effect:none;fill:#9b6c3d;fill-opacity:1;stroke:none;stroke-width:4;stroke-linecap:butt;stroke-linejoin:miter;stroke-miterlimit:4;stroke-dasharray:none;stroke-dashoffset:0;stroke-opacity:1;marker:none"
       id="path922"
       cx="77"
       cy="645.53333"
       r="6" />
    <circle
       style="opacity:1;vector-effect:none;fill:#9b6c3d;fill-opacity:1;stroke:none;stroke-width:4;stroke-linecap:butt;stroke-linejoin:miter;stroke-miterlimit:4;stroke-dasharray:none;stroke-dashoffset:0;stroke-opacity:1;marker:none"
       id="path924"
       cx="45"
       cy="636.53333"
       r="12" />
    <circle
       style="opacity:1;vector-effect:none;fill:#9b6c3d;fill-opacity:1;stroke:none;stroke-width:4;stroke-linecap:butt;stroke-linejoin:miter;stroke-miterlimit:4;stroke-dasharray:none;stroke-dashoffset:0;stroke-opacity:1;marker:none"
       id="path926"
       cx="48"
       cy="682.53333"
       r="18" />
    <circle
       style="opacity:1;vector-effect:none;fill:#9b6c3d;fill-opacity:1;stroke:none;stroke-width:4;stroke-linecap:butt;stroke-linejoin:miter;stroke-miterlimit:4;stroke-dasharray:none;stroke-dashoffset:0;stroke-opacity:1;marker:none"
       id="path928"
       cx="89"
       cy="679.53333"
       r="10" />
    <path
       style="opacity:1;vector-effect:none;fill:#c3dc20;fill-opacity:1;stroke:none;stroke-width:2;stroke-linecap:butt;stroke-linejoin:miter;stroke-miterlimit:4;stroke-dasharray:none;stroke-dashoffset:0;stroke-opacity:1"
       d="m 734,53.53331 111,8 -62,179 4,126 -127,171 -8,78 -62,104 -76,-16 87,-106 v -92 l 137,-161 -16,-126 z"
       id="path930"
       inkscape:connector-curvature="0" />
  </g>
</svg>
