<?xml version="1.0" encoding="UTF-8" standalone="no"?>
<!-- Created with Inkscape (http://www.inkscape.org/) -->

<svg
   xmlns:dc="http://purl.org/dc/elements/1.1/"
   xmlns:cc="http://creativecommons.org/ns#"
   xmlns:rdf="http://www.w3.org/1999/02/22-rdf-syntax-ns#"
   xmlns:svg="http://www.w3.org/2000/svg"
   xmlns="http://www.w3.org/2000/svg"
   xmlns:sodipodi="http://sodipodi.sourceforge.net/DTD/sodipodi-0.dtd"
   xmlns:inkscape="http://www.inkscape.org/namespaces/inkscape"
   width="256"
   height="128"
   viewBox="0 0 67.733331 33.866666"
   version="1.1"
   id="svg8"
   inkscape:version="0.92.2 (5c3e80d, 2017-08-06)"
   sodipodi:docname="Cow.svg"
   inkscape:export-filename="E:\School\WEB-151\Git\Final\sneaksy\Resources\Cow\Cow.png"
   inkscape:export-xdpi="48"
   inkscape:export-ydpi="48">
  <defs
     id="defs2" />
  <sodipodi:namedview
     id="base"
     pagecolor="#ffffff"
     bordercolor="#666666"
     borderopacity="1.0"
     inkscape:pageopacity="0.0"
     inkscape:pageshadow="2"
     inkscape:zoom="1.979899"
     inkscape:cx="149.28797"
     inkscape:cy="61.344828"
     inkscape:document-units="px"
     inkscape:current-layer="layer1"
     showgrid="false"
     units="px"
     inkscape:window-width="1600"
     inkscape:window-height="848"
     inkscape:window-x="-8"
     inkscape:window-y="-8"
     inkscape:window-maximized="1"
     inkscape:snap-global="false" />
  <metadata
     id="metadata5">
    <rdf:RDF>
      <cc:Work
         rdf:about="">
        <dc:format>image/svg+xml</dc:format>
        <dc:type
           rdf:resource="http://purl.org/dc/dcmitype/StillImage" />
        <dc:title />
      </cc:Work>
    </rdf:RDF>
  </metadata>
  <g
     inkscape:label="Layer 1"
     inkscape:groupmode="layer"
     id="layer1"
     transform="translate(0,-263.13334)">
    <path
       style="opacity:1;vector-effect:none;fill:#d38d5f;fill-opacity:1;stroke:#000000;stroke-width:1.05833328;stroke-linecap:butt;stroke-linejoin:miter;stroke-miterlimit:4;stroke-dasharray:none;stroke-dashoffset:0;stroke-opacity:1"
       d="m 16.630952,280.65254 c 0,0 -2.186496,-3.07503 -3.874256,-3.49628 -2.268076,-0.56609 -5.2864182,-0.0776 -6.8035711,1.70089 -1.8877997,2.21293 -0.7559524,8.69345 -0.7559524,8.69345 0,0 0.763707,0.43405 1.1741725,0.39194 0.3832529,-0.0393 0.9991907,-0.58093 0.9991907,-0.58093 0,0 -0.7928471,-4.94275 0.6614583,-6.61458 0.787193,-0.90494 2.326529,-1.11552 3.49628,-0.85045 1.506493,0.34138 3.590773,2.92932 3.590773,2.92932 0,0 1.351676,0.17305 1.700894,-0.28349 0.384648,-0.50285 -0.188989,-1.88987 -0.188989,-1.88987 z"
       id="path837"
       inkscape:connector-curvature="0"
       sodipodi:nodetypes="caacacaacac" />
    <path
       style="opacity:1;vector-effect:none;fill:#d38d5f;fill-opacity:1;stroke:#000000;stroke-width:1.05833328;stroke-linecap:butt;stroke-linejoin:miter;stroke-miterlimit:4;stroke-dasharray:none;stroke-dashoffset:0;stroke-opacity:1"
       d="m 44.166519,277.81772 c -7.228897,-2.53501 -15.72895,-3.46793 -22.962054,-0.94495 -3.458114,1.20622 -7.059031,3.74136 -8.315476,7.18155 -0.755012,2.06725 -0.640635,5.0985 1.039435,6.52009 5.867225,4.96455 15.371051,-0.25435 23.056547,-0.18899 3.749319,0.0319 8.275724,2.57326 11.244791,0.28349 2.280818,-1.75899 2.979671,-5.7071 1.984374,-8.40998 -0.86425,-2.347 -3.687462,-3.61356 -6.047617,-4.44121 z"
       id="path829"
       inkscape:connector-curvature="0"
       sodipodi:nodetypes="aaaaaaaa" />
    <path
       style="opacity:1;vector-effect:none;fill:#ffffff;fill-opacity:1;stroke:#000000;stroke-width:1.05833328;stroke-linecap:butt;stroke-linejoin:miter;stroke-miterlimit:4;stroke-dasharray:none;stroke-dashoffset:0;stroke-opacity:1"
       d="m 39.593006,280.27456 -2.929316,2.45685 0.09449,2.74032 3.307291,1.79539 2.362351,0.66146 2.929316,-2.26786 1.322917,-2.55134 0.472471,-1.13393 -3.212798,-1.41741 h -1.606399 z"
       id="path833"
       inkscape:connector-curvature="0" />
    <path
       sodipodi:nodetypes="cacac"
       inkscape:connector-curvature="0"
       id="path823"
       d="m 48.107299,272.98468 c 0,0 -0.660623,-2.43233 -0.554943,-3.6626 0.120152,-1.39875 1.33186,-3.99558 1.33186,-3.99558 0,0 2.921907,1.90389 3.44063,3.44064 0.441763,1.30875 -0.554942,4.10656 -0.554942,4.10656"
       style="opacity:1;vector-effect:none;fill:#ffffff;fill-opacity:1;stroke:#000000;stroke-width:1.24306631;stroke-linecap:butt;stroke-linejoin:miter;stroke-miterlimit:4;stroke-dasharray:none;stroke-dashoffset:0;stroke-opacity:1" />
    <path
       style="opacity:1;vector-effect:none;fill:#d38d5f;fill-opacity:1;stroke:#000000;stroke-width:1.34027636;stroke-linecap:butt;stroke-linejoin:miter;stroke-miterlimit:4;stroke-dasharray:none;stroke-dashoffset:0;stroke-opacity:1"
       d="m 46.043098,270.23087 c 2.159359,-0.29599 4.740469,-0.2514 6.41929,1.3385 1.286012,1.21789 1.836834,3.43804 1.8188,5.35399 -0.01911,2.02938 -0.592123,4.44992 -2.032778,5.62166 -2.332909,1.89747 -5.722209,0.92733 -8.559053,0.53541 -1.331604,-0.18397 -3.044075,-0.10673 -3.851573,-1.33849 -1.448132,-2.20889 -1.404316,-5.96909 -0.106981,-8.29867 1.241045,-2.2285 4.027614,-2.89923 6.312295,-3.2124 z"
       id="path819"
       inkscape:connector-curvature="0"
       sodipodi:nodetypes="aaaaaaaa" />
    <path
       style="opacity:1;vector-effect:none;fill:#ffffff;fill-opacity:1;stroke:#000000;stroke-width:1.05833328;stroke-linecap:butt;stroke-linejoin:miter;stroke-miterlimit:4;stroke-dasharray:none;stroke-dashoffset:0;stroke-opacity:1"
       d="m 32.411458,284.14882 -1.889882,1.79538 -0.850445,1.6064 -0.188989,1.22842 1.606399,0.37798 2.078869,0.0945 1.606399,-1.03943 -0.09449,-1.6064 -0.850447,-1.32292 -1.039434,-1.03943 z"
       id="path835"
       inkscape:connector-curvature="0" />
    <path
       inkscape:connector-curvature="0"
       id="path827"
       d="m 49.683141,275.18238 1.095367,-3.44816 2.274988,0.47891 -1.516659,4.59756 z"
       style="opacity:1;vector-effect:none;fill:#ffffff;fill-opacity:1;stroke:#000000;stroke-width:1.00616443;stroke-linecap:butt;stroke-linejoin:miter;stroke-miterlimit:4;stroke-dasharray:none;stroke-dashoffset:0;stroke-opacity:1" />
    <path
       style="opacity:1;vector-effect:none;fill:#d38d5f;fill-opacity:1;stroke:#000000;stroke-width:1.28896368;stroke-linecap:butt;stroke-linejoin:miter;stroke-miterlimit:4;stroke-dasharray:none;stroke-dashoffset:0;stroke-opacity:1"
       d="m 48.219154,276.22236 c 0,0 6.043347,-0.22557 8.223349,1.51078 0.888654,0.7078 1.294628,1.99472 1.350101,3.12945 0.05901,1.20708 -0.08232,2.80868 -1.10463,3.4532 -2.689744,1.69576 -9.450715,-1.29495 -9.450715,-1.29495"
       id="path821"
       inkscape:connector-curvature="0"
       sodipodi:nodetypes="caaac" />
    <path
       style="opacity:1;vector-effect:none;fill:#ffffff;fill-opacity:1;stroke:#000000;stroke-width:1.24306631;stroke-linecap:butt;stroke-linejoin:miter;stroke-miterlimit:4;stroke-dasharray:none;stroke-dashoffset:0;stroke-opacity:1"
       d="m 41.020244,273.36265 c 0,0 -0.660623,-2.43233 -0.554943,-3.6626 0.120152,-1.39875 1.33186,-3.99558 1.33186,-3.99558 0,0 2.921907,1.90389 3.44063,3.44064 0.441763,1.30875 -0.554942,4.10656 -0.554942,4.10656"
       id="path817"
       inkscape:connector-curvature="0"
       sodipodi:nodetypes="cacac" />
    <path
       style="opacity:1;vector-effect:none;fill:#ffffff;fill-opacity:1;stroke:#000000;stroke-width:1.05833328;stroke-linecap:butt;stroke-linejoin:miter;stroke-miterlimit:4;stroke-dasharray:none;stroke-dashoffset:0;stroke-opacity:1"
       d="m 48.286458,275.17188 -1.228424,-3.40178 -2.551337,0.47247 1.700892,4.53571 z"
       id="path825"
       inkscape:connector-curvature="0" />
    <path
       style="opacity:1;vector-effect:none;fill:#ffffff;fill-opacity:1;stroke:#000000;stroke-width:1.05833328;stroke-linecap:butt;stroke-linejoin:miter;stroke-miterlimit:4;stroke-dasharray:none;stroke-dashoffset:0;stroke-opacity:1"
       d="m 25.135416,278.95164 -3.023809,1.98438 0.755952,2.45684 0.377976,3.02381 4.063246,-0.28348 2.645833,-4.25223 2.83482,-0.75595 -0.472469,-2.45685 -1.795389,-0.94494 -3.118302,-0.66146 -2.362352,0.94494 z"
       id="path831"
       inkscape:connector-curvature="0" />
  </g>
</svg>
