<?xml version="1.0" encoding="UTF-8" standalone="no"?>
<!-- Created with Inkscape (http://www.inkscape.org/) -->

<svg
   xmlns:dc="http://purl.org/dc/elements/1.1/"
   xmlns:cc="http://creativecommons.org/ns#"
   xmlns:rdf="http://www.w3.org/1999/02/22-rdf-syntax-ns#"
   xmlns:svg="http://www.w3.org/2000/svg"
   xmlns="http://www.w3.org/2000/svg"
   xmlns:sodipodi="http://sodipodi.sourceforge.net/DTD/sodipodi-0.dtd"
   xmlns:inkscape="http://www.inkscape.org/namespaces/inkscape"
   width="512mm"
   height="256mm"
   viewBox="0 0 512 256"
   version="1.1"
   id="svg8"
   inkscape:version="0.92.3 (2405546, 2018-03-11)"
   sodipodi:docname="Dragon.svg"
   inkscape:export-filename="E:\School\WEB-151\Git\Final\sneaksy\Resources\Dragon\Dragon.png"
   inkscape:export-xdpi="12.7"
   inkscape:export-ydpi="12.7">
  <defs
     id="defs2" />
  <sodipodi:namedview
     id="base"
     pagecolor="#ffffff"
     bordercolor="#666666"
     borderopacity="1.0"
     inkscape:pageopacity="0.0"
     inkscape:pageshadow="2"
     inkscape:zoom="0.49497475"
     inkscape:cx="776.93949"
     inkscape:cy="516.16607"
     inkscape:document-units="mm"
     inkscape:current-layer="layer1"
     showgrid="false"
     inkscape:window-width="1920"
     inkscape:window-height="1017"
     inkscape:window-x="-8"
     inkscape:window-y="-8"
     inkscape:window-maximized="1"
     inkscape:snap-global="false"
     showguides="false" />
  <metadata
     id="metadata5">
    <rdf:RDF>
      <cc:Work
         rdf:about="">
        <dc:format>image/svg+xml</dc:format>
        <dc:type
           rdf:resource="http://purl.org/dc/dcmitype/StillImage" />
        <dc:title />
      </cc:Work>
    </rdf:RDF>
  </metadata>
  <g
     inkscape:label="Layer 1"
     inkscape:groupmode="layer"
     id="layer1"
     transform="translate(0,-41)">
    <path
       sodipodi:nodetypes="caacacacacac"
       inkscape:connector-curvature="0"
       id="path925"
       d="m 372.71688,147.8493 c 0,0 -53.79945,-70.431468 -92.98303,-85.885235 C 230.94421,42.72173 170.58032,40.251743 122.50485,61.232109 90.618281,75.147559 51.647621,138.14996 51.647621,138.14996 c 0,0 51.187209,-36.68808 77.672249,-28.86859 23.61036,6.97077 44.40149,59.28744 44.40149,59.28744 0,0 30.42587,-38.4282 51.04762,-35.92604 14.3059,1.73582 28.49713,32.67755 28.49713,32.67755 0,0 26.12156,-24.54754 42.18781,-23.60253 19.48408,1.14602 47.4927,34.42636 47.4927,34.42636 0,0 16.90126,-2.76617 22.55795,-8.49495 4.92554,-4.98834 7.21231,-19.7999 7.21231,-19.7999 z"
       style="opacity:1;vector-effect:none;fill:#37c837;fill-opacity:1;stroke:#000000;stroke-width:4;stroke-linecap:butt;stroke-linejoin:miter;stroke-miterlimit:4;stroke-dasharray:none;stroke-dashoffset:0;stroke-opacity:1" />
    <path
       sodipodi:nodetypes="aaaccacacaa"
       inkscape:connector-curvature="0"
       id="path907"
       d="m 364.55563,163.36525 c -14.01761,-1.00532 -33.14317,12.68356 -32.60688,26.72694 0.45399,11.88815 21.2863,11.61399 29.24784,20.45414 9.91433,11.00844 21.53338,38.8797 21.53338,38.8797 l -2.13818,13.36348 c 0,0 32.02015,3.09095 47.57399,0 5.48486,-1.08998 15.50162,-6.41447 15.50162,-6.41447 0,0 -8.73818,-12.94925 -15.50162,-16.03617 -6.00626,-2.74133 -19.77795,-1.06908 -19.77795,-1.06908 0,0 -11.04592,-35.32958 -20.84702,-50.78121 -6.07977,-9.58487 -11.66378,-24.31138 -22.98518,-25.12333 z"
       style="opacity:1;vector-effect:none;fill:#37c837;fill-opacity:1;stroke:#000000;stroke-width:4;stroke-linecap:butt;stroke-linejoin:miter;stroke-miterlimit:4;stroke-dasharray:none;stroke-dashoffset:0;stroke-opacity:1" />
    <path
       sodipodi:nodetypes="aaccacaccaa"
       inkscape:connector-curvature="0"
       id="path889"
       d="m 228.78272,186.35042 c -12.19004,-0.21705 -28.58108,5.06258 -32.60688,16.57071 -5.10782,14.6012 19.2434,42.22859 19.2434,42.22859 l -6.41446,20.31248 c 0,0 36.66118,5.79106 55.05752,4.81085 9.24708,-0.49271 27.26149,-5.34539 27.26149,-5.34539 0,0 -10.40242,-19.04977 -19.77795,-22.45064 -6.60937,-2.39747 -20.84702,3.20724 -20.84702,3.20724 l -5.34539,-20.31249 c 0,0 19.60888,-10.9402 18.17433,-19.77795 -2.12127,-13.06832 -21.50778,-19.0077 -34.74504,-19.2434 z"
       style="opacity:1;vector-effect:none;fill:#37c837;fill-opacity:1;stroke:#000000;stroke-width:4;stroke-linecap:butt;stroke-linejoin:miter;stroke-miterlimit:4;stroke-dasharray:none;stroke-dashoffset:0;stroke-opacity:1" />
    <path
       style="opacity:1;vector-effect:none;fill:#37c837;fill-opacity:1;stroke:#000000;stroke-width:4;stroke-linecap:butt;stroke-linejoin:miter;stroke-miterlimit:4;stroke-dasharray:none;stroke-dashoffset:0;stroke-opacity:1"
       d="m 364.55563,154.22132 c 0,0 -39.90375,-11.62368 -60.4029,-11.55299 -42.86997,0.14784 -126.15122,25.03149 -126.15122,25.03149 0,0 -28.69652,-32.02998 -29.93419,-51.98847 -1.27874,-20.620763 24.05426,-57.123128 24.05426,-57.123128 0,0 -54.76666,28.297214 -59.86838,54.885398 -7.18427,37.44166 23.72667,75.10841 49.71214,103.00549 15.53881,16.68192 37.09702,28.99067 59.33383,34.01714 49.50048,11.18923 106.80461,11.9011 151.80909,-11.55298 14.21998,-7.41074 24.63663,-22.28933 30.46872,-37.22631 5.53421,-14.17405 2.67269,-45.57014 2.67269,-45.57014 z"
       id="path857"
       inkscape:connector-curvature="0"
       sodipodi:nodetypes="cacacaaaaacc" />
    <path
       style="opacity:1;vector-effect:none;fill:#ffffff;fill-opacity:1;stroke:#000000;stroke-width:4;stroke-linecap:butt;stroke-linejoin:miter;stroke-miterlimit:4;stroke-dasharray:none;stroke-dashoffset:0;stroke-opacity:1"
       d="m 361.17103,89.75509 c 0,0 8.01572,-5.010392 11.33927,-8.315479 6.89696,-6.858646 17.38691,-23.434522 17.38691,-23.434522 0,0 5.27216,10.297128 5.29166,15.875 0.0398,11.395074 -10.58333,32.505951 -10.58333,32.505951 L 356.6353,88.243184 Z"
       id="path14"
       inkscape:connector-curvature="0"
       sodipodi:nodetypes="cacaccc" />
    <path
       style="opacity:1;vector-effect:none;fill:#37c837;fill-opacity:1;stroke:#000000;stroke-width:4;stroke-linecap:butt;stroke-linejoin:miter;stroke-miterlimit:4;stroke-dasharray:none;stroke-dashoffset:0;stroke-opacity:1"
       d="m 318.08175,110.92176 c 3.43411,-12.406918 13.39398,-23.801872 24.94643,-29.482149 14.93983,-7.345837 35.32996,-10.335212 49.89285,-2.267855 9.8699,5.467595 16.63094,29.482144 16.63094,29.482144 0,0 44.20981,-1.90156 61.23215,9.82738 6.22837,4.29155 11.89974,12.11183 11.3393,19.65476 -0.93018,12.51926 -23.43455,29.48214 -23.43455,29.48214 0,0 -53.51475,-3.61567 -80.13094,-6.80357 -17.97584,-2.15302 -53.67263,-8.31548 -53.67263,-8.31548 0,0 -10.54978,-28.04282 -6.80355,-41.57737 z"
       id="path10"
       inkscape:connector-curvature="0"
       sodipodi:nodetypes="aaacaacaca" />
    <path
       style="opacity:1;vector-effect:none;fill:#ffffff;fill-opacity:1;stroke:#000000;stroke-width:4;stroke-linecap:butt;stroke-linejoin:miter;stroke-miterlimit:4;stroke-dasharray:none;stroke-dashoffset:0;stroke-opacity:1"
       d="m 341.51627,94.290802 c 0,0 -17.54123,-8.817578 -24.94643,-15.119046 -6.8066,-5.792081 -17.3869,-20.410715 -17.3869,-20.410715 0,0 -6.18781,18.378024 -3.77976,27.214285 4.48037,16.440604 31.75,40.065474 31.75,40.065474 l 12.85118,-12.09523 z"
       id="path12"
       inkscape:connector-curvature="0"
       sodipodi:nodetypes="cacaccc" />
    <path
       style="opacity:1;vector-effect:none;fill:#ffffff;fill-opacity:1;stroke:#000000;stroke-width:2;stroke-linecap:butt;stroke-linejoin:miter;stroke-miterlimit:4;stroke-dasharray:none;stroke-dashoffset:0;stroke-opacity:1"
       d="m 384.41655,137.1911 5.48066,17.95387 4.91371,-16.44196 z"
       id="path837"
       inkscape:connector-curvature="0" />
    <path
       style="opacity:1;vector-effect:none;fill:none;fill-opacity:1;stroke:#000000;stroke-width:5;stroke-linecap:butt;stroke-linejoin:miter;stroke-miterlimit:4;stroke-dasharray:none;stroke-dashoffset:0;stroke-opacity:1"
       d="m 479.0996,144.18366 -51.40476,0.75595 -45.35715,-8.31548"
       id="path835"
       inkscape:connector-curvature="0" />
    <path
       style="opacity:1;vector-effect:none;fill:#ffffff;fill-opacity:1;stroke:#000000;stroke-width:4;stroke-linecap:butt;stroke-linejoin:miter;stroke-miterlimit:4;stroke-dasharray:none;stroke-dashoffset:0;stroke-opacity:1;font-variant-east_asian:normal"
       d="m 352.65177,92.514888 24.19048,-2.645834 0.37799,30.994046 -10.96132,3.40179 z"
       id="path839"
       inkscape:connector-curvature="0" />
    <path
       inkscape:connector-curvature="0"
       id="path855"
       d="m 384.24721,90.373271 16.78515,-1.872682 0.26228,21.937121 -7.60578,2.40774 z"
       style="opacity:1;vector-effect:none;fill:#ffffff;fill-opacity:1;stroke:#000000;stroke-width:4;stroke-linecap:butt;stroke-linejoin:miter;stroke-miterlimit:4;stroke-dasharray:none;stroke-dashoffset:0;stroke-opacity:1" />
    <path
       style="opacity:1;vector-effect:none;fill:#37c837;fill-opacity:1;stroke:#000000;stroke-width:4;stroke-linecap:butt;stroke-linejoin:miter;stroke-miterlimit:4;stroke-dasharray:none;stroke-dashoffset:0;stroke-opacity:1"
       d="m 192.9686,201.31751 c -12.19004,-0.21705 -28.58108,5.06258 -32.60688,16.57071 -5.10782,14.6012 19.2434,42.22859 19.2434,42.22859 l -6.41446,20.31248 c 0,0 36.66118,5.79106 55.05752,4.81085 9.24708,-0.49271 27.26149,-5.34539 27.26149,-5.34539 0,0 -10.40242,-19.04977 -19.77795,-22.45064 -6.60937,-2.39747 -20.84702,3.20724 -20.84702,3.20724 l -5.34539,-20.31249 c 0,0 19.60888,-10.9402 18.17433,-19.77795 -2.12127,-13.06832 -21.50778,-19.0077 -34.74504,-19.2434 z"
       id="path873"
       inkscape:connector-curvature="0"
       sodipodi:nodetypes="aaccacaccaa" />
    <path
       style="opacity:1;vector-effect:none;fill:#37c837;fill-opacity:1;stroke:#000000;stroke-width:4;stroke-linecap:butt;stroke-linejoin:miter;stroke-miterlimit:4;stroke-dasharray:none;stroke-dashoffset:0;stroke-opacity:1"
       d="m 330.34513,191.16128 c -14.01761,-1.00532 -33.14317,12.68356 -32.60688,26.72694 0.45399,11.88815 21.2863,11.61399 29.24784,20.45414 9.91433,11.00844 21.53338,38.8797 21.53338,38.8797 l -2.13818,13.36348 c 0,0 32.02015,3.09095 47.57399,0 5.48486,-1.08998 15.50162,-6.41447 15.50162,-6.41447 0,0 -8.73818,-12.94925 -15.50162,-16.03617 -6.00626,-2.74133 -19.77795,-1.06908 -19.77795,-1.06908 0,0 -11.04592,-35.32958 -20.84702,-50.78121 -6.07977,-9.58487 -11.66378,-24.31138 -22.98518,-25.12333 z"
       id="path891"
       inkscape:connector-curvature="0"
       sodipodi:nodetypes="aaaccacacaa" />
    <path
       style="opacity:1;vector-effect:none;fill:#37c837;fill-opacity:1;stroke:#000000;stroke-width:4;stroke-linecap:butt;stroke-linejoin:miter;stroke-miterlimit:4;stroke-dasharray:none;stroke-dashoffset:0;stroke-opacity:1"
       d="m 322.47021,156.40192 c 0,0 -53.79945,-70.431463 -92.98303,-85.88523 C 180.69754,51.274355 120.33365,48.804368 72.258178,69.784734 40.37161,83.700184 1.4009496,146.70258 1.4009496,146.70258 c 0,0 51.1872064,-36.68808 77.6722504,-28.86859 23.61036,6.97077 44.40149,59.28744 44.40149,59.28744 0,0 30.42587,-38.4282 51.04762,-35.92604 14.3059,1.73582 28.49713,32.67755 28.49713,32.67755 0,0 26.12156,-24.54754 42.18781,-23.60253 19.48408,1.14602 47.4927,34.42636 47.4927,34.42636 0,0 16.90126,-2.76617 22.55795,-8.49495 4.92554,-4.98834 7.21231,-19.7999 7.21231,-19.7999 z"
       id="path909"
       inkscape:connector-curvature="0"
       sodipodi:nodetypes="caacacacacac" />
  </g>
</svg>
