<?xml version="1.0" encoding="UTF-8" standalone="no"?>
<!-- Created with Inkscape (http://www.inkscape.org/) -->

<svg
   xmlns:dc="http://purl.org/dc/elements/1.1/"
   xmlns:cc="http://creativecommons.org/ns#"
   xmlns:rdf="http://www.w3.org/1999/02/22-rdf-syntax-ns#"
   xmlns:svg="http://www.w3.org/2000/svg"
   xmlns="http://www.w3.org/2000/svg"
   xmlns:sodipodi="http://sodipodi.sourceforge.net/DTD/sodipodi-0.dtd"
   xmlns:inkscape="http://www.inkscape.org/namespaces/inkscape"
   width="64"
   height="64"
   version="1.1"
   id="svg8"
   inkscape:version="0.92.3 (2405546, 2018-03-11)"
   sodipodi:docname="Fire Blast.svg"
   inkscape:export-filename="E:\School\WEB-151\Git\Final\sneaksy\Resources\Projectile\Fireball.png"
   inkscape:export-xdpi="96"
   inkscape:export-ydpi="96">
  <defs
     id="defs2">
    <inkscape:path-effect
       effect="spiro"
       id="path-effect763"
       is_visible="true" />
    <inkscape:path-effect
       effect="spiro"
       id="path-effect1758"
       is_visible="true" />
    <inkscape:path-effect
       effect="spiro"
       id="path-effect1579"
       is_visible="true" />
    <inkscape:path-effect
       effect="spiro"
       id="path-effect1583"
       is_visible="true" />
  </defs>
  <sodipodi:namedview
     id="base"
     pagecolor="#ffffff"
     bordercolor="#666666"
     borderopacity="1.0"
     inkscape:pageopacity="0.0"
     inkscape:pageshadow="2"
     inkscape:zoom="4"
     inkscape:cx="9.3824223"
     inkscape:cy="12.102201"
     inkscape:document-units="px"
     inkscape:current-layer="layer1"
     showgrid="false"
     units="px"
     inkscape:window-width="1920"
     inkscape:window-height="1017"
     inkscape:window-x="-8"
     inkscape:window-y="-8"
     inkscape:window-maximized="1"
     inkscape:snap-global="false" />
  <metadata
     id="metadata5">
    <rdf:RDF>
      <cc:Work
         rdf:about="">
        <dc:format>image/svg+xml</dc:format>
        <dc:type
           rdf:resource="http://purl.org/dc/dcmitype/StillImage" />
        <dc:title />
      </cc:Work>
    </rdf:RDF>
  </metadata>
  <g
     inkscape:label="Layer 1"
     inkscape:groupmode="layer"
     id="layer1"
     transform="translate(0,-609.53331)">
    <g
       id="g1610"
       transform="matrix(-0.32139267,-1.0886882,0.96923249,-0.22874422,-343.6147,347.71403)"
       style="stroke-width:0.94125879">
      <g
         style="fill:#e5571a;fill-opacity:1;stroke:none;stroke-width:0.94125879"
         id="g1571">
        <path
           style="opacity:1;vector-effect:none;fill:#e5571a;fill-opacity:1;stroke:none;stroke-width:1.88251758;stroke-linecap:butt;stroke-linejoin:miter;stroke-miterlimit:20;stroke-dasharray:none;stroke-dashoffset:0;stroke-opacity:1"
           d="m -319.99999,273.03332 c 0.34097,2.08159 0.0726,4.2593 -0.76366,6.1958 -0.83622,1.93651 -2.23734,3.62509 -3.98634,4.8042 1.5915,0.851 3.52647,1.03528 5.25,0.5 2.10727,-0.65446 3.84554,-2.39273 4.5,-4.5 0.84664,4.19363 0.84664,8.55637 0,12.75 -0.4578,2.2676 -1.16588,4.49759 -2.26504,6.53313 -1.09917,2.03554 -2.60056,3.87499 -4.48496,5.21687 -2.10138,1.49639 -4.64919,2.34027 -7.22594,2.4641 -2.57675,0.12382 -5.17537,-0.4644 -7.48018,-1.62321 -2.4608,-1.23724 -4.58249,-3.11453 -6.19692,-5.34611 -1.61442,-2.23158 -2.72717,-4.81109 -3.34696,-7.49478 -1.36737,-5.92075 -0.26132,-12.37274 3,-17.5 l 4,9 c -0.9799,-5.50223 -0.45604,-11.26468 1.5,-16.5 1.61478,-4.32194 4.19596,-8.27975 7.5,-11.5 -1.95993,3.28238 -2.84869,7.19293 -2.5,11 0.18148,1.98141 0.69044,3.93244 1.5,5.75 -0.49802,-4.18196 1.25525,-8.56514 4.5,-11.25 3.07276,-2.54254 7.3896,-3.50184 11.25,-2.5 -1.69112,0.21811 -3.29414,1.06309 -4.42979,2.33501 -1.13564,1.27192 -1.79433,2.96005 -1.82021,4.66499 -0.0182,1.19684 0.26303,2.37748 0.59348,3.52794 0.33044,1.15046 0.71303,2.29082 0.90652,3.47206 z"
           id="path761"
           inkscape:connector-curvature="0"
           sodipodi:nodetypes="acacaaaaccacacacaa"
           inkscape:path-effect="#path-effect763"
           inkscape:original-d="m -319.99999,273.03332 c -0.39185,3.97465 -4.75,11 -4.75,11 0,0 3.5958,1.09489 5.25,0.5 1.99616,-0.71787 4.5,-4.5 4.5,-4.5 0,0 1.09554,8.64363 0,12.75 -1.16435,4.36429 -2.90686,9.37659 -6.75,11.75 -4.1776,2.57997 -10.25803,2.92009 -14.70612,0.84089 -4.83131,-2.25833 -8.30371,-7.65403 -9.54388,-12.84089 -1.37629,-5.75618 3,-17.5 3,-17.5 l 4,9 c 0,0 -0.31194,-11.28302 1.5,-16.5 1.50151,-4.32318 7.5,-11.5 7.5,-11.5 0,0 -2.55961,7.2403 -2.5,11 0.0314,1.98056 1.5,5.75 1.5,5.75 0,0 1.42259,-8.63427 4.5,-11.25 2.92701,-2.48788 11.25,-2.5 11.25,-2.5 0,0 -5.44922,3.97618 -6.25,7 -0.61089,2.30679 1.73412,4.62521 1.5,7 z" />
      </g>
      <g
         id="g1575"
         style="fill:#e5571a;fill-opacity:1;stroke:#000000;stroke-width:0.94125879">
        <path
           inkscape:original-d="m -319.99999,273.03332 c -0.39185,3.97465 -4.75,11 -4.75,11 0,0 3.5958,1.09489 5.25,0.5 1.99616,-0.71787 4.5,-4.5 4.5,-4.5 0,0 1.0112,8.72702 0,12.75 -1.20342,4.7877 -3.26278,9.87256 -6.9607,12.51887 -3.93053,2.81276 -9.6454,4.32134 -14.15552,2.11818 -5.02228,-2.45336 -8.62241,-8.97638 -9.88378,-14.88705 -1.26661,-5.93518 3,-17.5 3,-17.5 l 4,9 c 0,0 -0.31194,-11.28302 1.5,-16.5 1.50151,-4.32318 7.5,-11.5 7.5,-11.5 0,0 -2.55961,7.2403 -2.5,11 0.0314,1.98056 1.5,5.75 1.5,5.75 0,0 1.42259,-8.63427 4.5,-11.25 2.92701,-2.48788 11.25,-2.5 11.25,-2.5 0,0 -5.44922,3.97618 -6.25,7 -0.61089,2.30679 1.73412,4.62521 1.5,7 z"
           inkscape:path-effect="#path-effect763"
           sodipodi:nodetypes="acacaaaaccacacacaa"
           inkscape:connector-curvature="0"
           id="path1573"
           d="m -319.99999,273.03332 c 0.34097,2.08159 0.0726,4.2593 -0.76366,6.1958 -0.83622,1.93651 -2.23734,3.62509 -3.98634,4.8042 1.5915,0.851 3.52647,1.03528 5.25,0.5 2.10727,-0.65446 3.84554,-2.39273 4.5,-4.5 0.84045,4.19445 0.84045,8.55555 0,12.75 -0.95792,4.78073 -3.13376,9.49769 -6.9607,12.51887 -1.96443,1.55082 -4.32249,2.60898 -6.79521,2.99593 -2.47271,0.38696 -5.0547,0.096 -7.36031,-0.87775 -2.87109,-1.2126 -5.24837,-3.45134 -6.88814,-6.10176 -1.63976,-2.65043 -2.5713,-5.69765 -2.99564,-8.78529 -0.81855,-5.95604 0.24442,-12.15666 3,-17.5 l 4,9 c -0.9799,-5.50223 -0.45604,-11.26468 1.5,-16.5 1.61478,-4.32194 4.19596,-8.27975 7.5,-11.5 -1.95993,3.28238 -2.84869,7.19293 -2.5,11 0.18148,1.98141 0.69044,3.93244 1.5,5.75 -0.49802,-4.18196 1.25525,-8.56514 4.5,-11.25 3.07276,-2.54254 7.3896,-3.50184 11.25,-2.5 -1.69112,0.21811 -3.29414,1.06309 -4.42979,2.33501 -1.13564,1.27192 -1.79433,2.96005 -1.82021,4.66499 -0.0182,1.19684 0.26303,2.37748 0.59348,3.52794 0.33044,1.15046 0.71303,2.29082 0.90652,3.47206 z"
           style="opacity:1;vector-effect:none;fill:#e5571a;fill-opacity:1;stroke:#000000;stroke-width:2.82377648;stroke-linecap:butt;stroke-linejoin:miter;stroke-miterlimit:20;stroke-dasharray:none;stroke-dashoffset:0;stroke-opacity:1" />
      </g>
      <path
         inkscape:original-d="m -342.2826,286.63186 c 0,0 -1.24318,3.59022 -0.84096,5.41735 0.86268,3.91878 3.39421,7.50331 6.54074,9.8995 2.11998,1.61443 4.98212,2.96485 7.6014,2.47487 3.66369,-0.68536 6.60898,-3.96024 8.66206,-7.07107 1.99293,-3.01969 3.0052,-10.42982 3.0052,-10.42982 0,0 -3.19938,1.7 -4.94986,1.76467 -1.77115,0.0654 -3.61425,-0.48665 -5.12641,-1.41112 -1.63682,-1.00069 -2.85786,-2.62489 -3.88909,-4.24264 -1.40585,-2.20542 -3.0052,-7.24784 -3.0052,-7.24784 0,0 -0.24122,6.2372 -0.17678,9.36916 0.10552,5.12875 0.92199,15.40011 0.92199,15.40011 0,0 -4.87254,-4.23078 -6.51527,-7.05897 -1.19655,-2.06004 -2.22782,-6.8642 -2.22782,-6.8642 z"
         inkscape:path-effect="#path-effect1579"
         sodipodi:nodetypes="caaaacaaacacac"
         inkscape:connector-curvature="0"
         id="path1577"
         d="m -342.2826,286.63186 c -0.74636,1.69105 -1.03953,3.57962 -0.84096,5.41735 0.21902,2.027 1.02799,3.96832 2.19367,5.64101 1.16568,1.67269 2.68006,3.0847 4.34707,4.25849 1.11337,0.78396 2.30511,1.46948 3.58723,1.92815 1.28211,0.45867 2.65959,0.68569 4.01417,0.54672 1.93197,-0.19821 3.74104,-1.13787 5.19056,-2.43042 1.44953,-1.29255 2.56243,-2.92443 3.4715,-4.64065 1.70565,-3.22007 2.73596,-6.79587 3.0052,-10.42982 -1.41925,1.0728 -3.17203,1.69768 -4.94986,1.76467 -1.7989,0.0678 -3.6135,-0.43555 -5.12641,-1.41112 -1.62581,-1.04838 -2.8704,-2.59807 -3.88909,-4.24264 -1.38324,-2.23309 -2.40243,-4.69114 -3.0052,-7.24784 -0.15173,3.12038 -0.21069,6.24527 -0.17678,9.36916 0.0558,5.14431 0.36366,10.28588 0.92199,15.40011 -2.70838,-1.7688 -4.96875,-4.2178 -6.51527,-7.05897 -1.15663,-2.12488 -1.91615,-4.46508 -2.22782,-6.8642 z"
         style="opacity:1;vector-effect:none;fill:#ffc628;fill-opacity:1;stroke:none;stroke-width:1.88251758;stroke-linecap:butt;stroke-linejoin:miter;stroke-miterlimit:4;stroke-dasharray:none;stroke-dashoffset:0;stroke-opacity:1" />
      <path
         inkscape:original-d="m -327.49999,281.53332 c 0,0 3.73944,-2.65219 4.375,-4.875 0.71949,-2.51632 -1.08805,-5.37479 -1.06868,-8.06515 0.0142,-1.96693 0.86525,-5.76101 0.86525,-5.76101 0,0 -3.32882,2.85316 -3.86525,5.01101 -0.6932,2.78847 1.42084,5.89975 1.19368,8.81515 -0.13531,1.73659 -1.5,4.875 -1.5,4.875 z"
         inkscape:path-effect="#path-effect1583"
         sodipodi:nodetypes="caacaac"
         inkscape:connector-curvature="0"
         id="path1581"
         d="m -327.49999,281.53332 c 1.10004,-0.32968 2.10588,-0.96773 2.8729,-1.8224 0.76701,-0.85467 1.29292,-1.92343 1.5021,-3.0526 0.24857,-1.34181 0.0545,-2.72615 -0.23757,-4.05918 -0.29203,-1.33304 -0.68233,-2.64946 -0.83111,-4.00597 -0.21409,-1.95193 0.0872,-3.95808 0.86525,-5.76101 -1.01291,0.43352 -1.91197,1.12997 -2.5849,2.00237 -0.67293,0.87241 -1.11825,1.91884 -1.28035,3.00864 -0.21926,1.47407 0.0737,2.97327 0.42241,4.42219 0.34867,1.44892 0.75691,2.90274 0.77127,4.39296 0.0166,1.72731 -0.51521,3.45582 -1.5,4.875 z"
         style="opacity:1;vector-effect:none;fill:#ffc628;fill-opacity:1;stroke:none;stroke-width:1.88251758;stroke-linecap:butt;stroke-linejoin:miter;stroke-miterlimit:4;stroke-dasharray:none;stroke-dashoffset:0;stroke-opacity:1" />
    </g>
  </g>
</svg>
