<?xml version="1.0" encoding="UTF-8" standalone="no"?>
<!-- Created with Inkscape (http://www.inkscape.org/) -->

<svg
   xmlns:dc="http://purl.org/dc/elements/1.1/"
   xmlns:cc="http://creativecommons.org/ns#"
   xmlns:rdf="http://www.w3.org/1999/02/22-rdf-syntax-ns#"
   xmlns:svg="http://www.w3.org/2000/svg"
   xmlns="http://www.w3.org/2000/svg"
   xmlns:sodipodi="http://sodipodi.sourceforge.net/DTD/sodipodi-0.dtd"
   xmlns:inkscape="http://www.inkscape.org/namespaces/inkscape"
   width="512"
   height="512"
   viewBox="0 0 135.46666 135.46667"
   version="1.1"
   id="svg4596"
   inkscape:version="0.92.3 (2405546, 2018-03-11)"
   sodipodi:docname="Goblin_Attack.svg"
   inkscape:export-filename="E:\School\WEB-151\Git\Final\sneaksy\Resources\Goblin\Goblin_Attack.png"
   inkscape:export-xdpi="48"
   inkscape:export-ydpi="48">
  <defs
     id="defs4590">
    <inkscape:path-effect
       effect="spiro"
       id="path-effect1102"
       is_visible="true" />
    <inkscape:path-effect
       effect="spiro"
       id="path-effect5513"
       is_visible="true" />
    <inkscape:path-effect
       is_visible="true"
       id="path-effect5509"
       effect="spiro" />
    <inkscape:path-effect
       effect="spiro"
       id="path-effect5417"
       is_visible="true" />
    <inkscape:path-effect
       effect="spiro"
       id="path-effect5349"
       is_visible="true" />
    <inkscape:path-effect
       is_visible="true"
       id="path-effect5328"
       effect="spiro" />
    <inkscape:path-effect
       is_visible="true"
       id="path-effect5324"
       effect="spiro" />
    <inkscape:path-effect
       effect="spiro"
       id="path-effect5320"
       is_visible="true" />
    <inkscape:path-effect
       effect="spiro"
       id="path-effect5314"
       is_visible="true" />
    <inkscape:path-effect
       is_visible="true"
       id="path-effect5312"
       effect="spiro" />
    <inkscape:path-effect
       effect="spiro"
       id="path-effect5306"
       is_visible="true" />
    <inkscape:path-effect
       is_visible="true"
       id="path-effect5255"
       effect="spiro" />
    <inkscape:path-effect
       effect="spiro"
       id="path-effect5249"
       is_visible="true" />
    <inkscape:path-effect
       effect="spiro"
       id="path-effect5212"
       is_visible="true" />
    <inkscape:path-effect
       effect="spiro"
       id="path-effect5208"
       is_visible="true" />
    <inkscape:path-effect
       effect="spiro"
       id="path-effect5204"
       is_visible="true" />
    <inkscape:path-effect
       effect="spiro"
       id="path-effect5196"
       is_visible="true" />
    <inkscape:path-effect
       is_visible="true"
       id="path-effect5192"
       effect="spiro" />
    <inkscape:path-effect
       is_visible="true"
       id="path-effect5188"
       effect="spiro" />
    <inkscape:path-effect
       is_visible="true"
       id="path-effect5182"
       effect="spiro" />
    <inkscape:path-effect
       effect="spiro"
       id="path-effect5178"
       is_visible="true" />
    <inkscape:path-effect
       is_visible="true"
       id="path-effect5174"
       effect="spiro" />
    <inkscape:path-effect
       effect="spiro"
       id="path-effect5170"
       is_visible="true" />
    <inkscape:path-effect
       effect="spiro"
       id="path-effect5163"
       is_visible="true" />
    <inkscape:path-effect
       is_visible="true"
       id="path-effect5159"
       effect="spiro" />
    <inkscape:path-effect
       effect="spiro"
       id="path-effect5155"
       is_visible="true" />
    <inkscape:path-effect
       is_visible="true"
       id="path-effect5151"
       effect="spiro" />
    <inkscape:path-effect
       effect="spiro"
       id="path-effect5147"
       is_visible="true" />
    <inkscape:path-effect
       effect="spiro"
       id="path-effect5143"
       is_visible="true" />
    <inkscape:path-effect
       effect="spiro"
       id="path-effect5208-8"
       is_visible="true" />
    <inkscape:path-effect
       is_visible="true"
       id="path-effect5509-7"
       effect="spiro" />
  </defs>
  <sodipodi:namedview
     id="base"
     pagecolor="#ffffff"
     bordercolor="#666666"
     borderopacity="1.0"
     inkscape:pageopacity="0.0"
     inkscape:pageshadow="2"
     inkscape:zoom="1.4"
     inkscape:cx="364.58117"
     inkscape:cy="258.41704"
     inkscape:document-units="px"
     inkscape:current-layer="layer1"
     showgrid="false"
     units="px"
     inkscape:snap-global="false"
     inkscape:window-width="1920"
     inkscape:window-height="1017"
     inkscape:window-x="-8"
     inkscape:window-y="-8"
     inkscape:window-maximized="1" />
  <metadata
     id="metadata4593">
    <rdf:RDF>
      <cc:Work
         rdf:about="">
        <dc:format>image/svg+xml</dc:format>
        <dc:type
           rdf:resource="http://purl.org/dc/dcmitype/StillImage" />
        <dc:title></dc:title>
      </cc:Work>
    </rdf:RDF>
  </metadata>
  <g
     inkscape:label="Layer 1"
     inkscape:groupmode="layer"
     id="layer1"
     transform="translate(0,-161.53331)">
    <path
       sodipodi:nodetypes="czczc"
       inkscape:connector-curvature="0"
       id="path1078"
       d="m 77.957589,204.86828 c 0,0 -6.815131,-4.60376 -8.882441,-7.9375 -2.067309,-3.33374 -3.590774,-11.90625 -3.590774,-11.90625 0,0 -2.286021,12.08802 -0.566965,17.3869 1.719056,5.29888 9.827382,12.6622 9.827382,12.6622"
       style="opacity:1;vector-effect:none;fill:#abc837;fill-opacity:1;stroke:#000000;stroke-width:1.05833328;stroke-linecap:butt;stroke-linejoin:miter;stroke-miterlimit:4;stroke-dasharray:none;stroke-dashoffset:0;stroke-opacity:1" />
    <g
       id="g1076"
       transform="translate(17.670387,-4.2522321)">
      <path
         style="opacity:1;vector-effect:none;fill:#c78449;fill-opacity:1;stroke:#000000;stroke-width:1.05833328;stroke-linecap:butt;stroke-linejoin:miter;stroke-miterlimit:4;stroke-dasharray:none;stroke-dashoffset:0;stroke-opacity:1"
         d="m 54.426534,277.46407 4.72923,-3.70854 5.346088,2.26633 -1.439332,6.59297 c 0,0 5.3625,-3.71096 8.224749,-3.09046 1.896482,0.41113 3.89289,2.19253 4.112377,4.12061 0.219721,1.93013 -3.084282,4.94474 -3.084282,4.94474 l -10.280938,-0.20603 -5.962941,-1.03016 z"
         id="path1068"
         inkscape:connector-curvature="0"
         sodipodi:nodetypes="ccccaacccc" />
      <path
         style="opacity:1;vector-effect:none;fill:#a05a2c;fill-opacity:1;stroke:none;stroke-width:0.26458332px;stroke-linecap:butt;stroke-linejoin:miter;stroke-miterlimit:4;stroke-dasharray:none;stroke-dashoffset:0;stroke-opacity:1"
         d="m 54.617558,277.81768 4.15774,1.79539 1.41741,5.66964 1.984375,0.37798 7.276041,-2.45685 1.322917,2.26786 -3.023809,3.02381 -6.614584,-0.56696 -5.10268,-1.03944 -1.322916,-9.63839 z"
         id="path1070"
         inkscape:connector-curvature="0" />
      <ellipse
         style="opacity:1;vector-effect:none;fill:#f4e6da;fill-opacity:1;stroke:none;stroke-width:1.05833328;stroke-linecap:butt;stroke-linejoin:miter;stroke-miterlimit:4;stroke-dasharray:none;stroke-dashoffset:0;stroke-opacity:1"
         id="ellipse1072"
         cx="71.957222"
         cy="281.92816"
         rx="1.9371279"
         ry="1.7481399" />
      <path
         sodipodi:nodetypes="ccccaacccc"
         inkscape:connector-curvature="0"
         id="path1074"
         d="m 54.426534,277.46407 4.72923,-3.70854 5.346088,2.26633 -1.439332,6.59297 c 0,0 5.3625,-3.71096 8.224749,-3.09046 1.896482,0.41113 3.89289,2.19253 4.112377,4.12061 0.219721,1.93013 -3.084282,4.94474 -3.084282,4.94474 l -10.280938,-0.20603 -5.962941,-1.03016 z"
         style="opacity:1;vector-effect:none;fill:none;fill-opacity:1;stroke:#000000;stroke-width:1.05833328;stroke-linecap:butt;stroke-linejoin:miter;stroke-miterlimit:4;stroke-dasharray:none;stroke-dashoffset:0;stroke-opacity:1" />
    </g>
    <path
       sodipodi:nodetypes="aacaaca"
       inkscape:connector-curvature="0"
       id="path943"
       d="m 83.419134,227.07437 c 3.293971,0.46253 5.885185,3.42995 7.937499,6.04762 1.949634,2.4867 3.779761,8.69346 3.779761,8.69346 0,0 -6.233015,2.29752 -9.260416,1.5119 -3.733029,-0.96873 -7.077824,-3.88011 -9.071428,-7.18155 -1.060211,-1.75572 -1.13393,-6.04762 -1.13393,-6.04762 0,0 5.002907,-3.40934 7.748514,-3.02381 z"
       style="opacity:1;vector-effect:none;fill:#cccccc;fill-opacity:1;stroke:#000000;stroke-width:1.05833328;stroke-linecap:butt;stroke-linejoin:miter;stroke-miterlimit:4;stroke-dasharray:none;stroke-dashoffset:0;stroke-opacity:1" />
    <path
       style="opacity:1;vector-effect:none;fill:#bd4234;fill-opacity:1;stroke:#000000;stroke-width:1.0583334;stroke-linecap:butt;stroke-linejoin:miter;stroke-miterlimit:4;stroke-dasharray:none;stroke-dashoffset:0;stroke-opacity:1"
       d="m 59.639047,230.09819 c 0,0 -6.093698,5.46905 -7.539612,9.07143 -4.282738,10.6701 -2.182518,34.20684 -2.182518,34.20684 0,0 10.46705,4.43937 16.071276,4.91369 5.450334,0.4613 11.012588,-0.63319 16.269689,-2.07887 2.445326,-0.67245 6.944379,-3.0238 6.944379,-3.0238 0,0 -0.915696,-26.45292 -7.142791,-37.79762 -1.603423,-2.92116 -7.3412,-6.99256 -7.3412,-6.99256 z"
       id="path921"
       inkscape:connector-curvature="0"
       sodipodi:nodetypes="cacaacacc" />
    <path
       style="opacity:1;vector-effect:none;fill:#abc837;fill-opacity:1;stroke:#000000;stroke-width:1.05833328;stroke-linecap:butt;stroke-linejoin:miter;stroke-miterlimit:4;stroke-dasharray:none;stroke-dashoffset:0;stroke-opacity:1"
       d="m 51.782739,205.15176 c -0.496616,-3.11614 -0.566965,-9.4494 -0.566965,-9.4494 0,0 5.41902,-3.49668 8.504464,-4.15774 5.670037,-1.21482 12.168675,-1.96191 17.386905,0.56696 2.373535,1.15027 5.102678,6.04762 5.102678,6.04762 0,0 0.690556,16.20264 -1.133928,24.00149 -1.002449,4.28502 -5.291667,12.09524 -5.291667,12.09524 l -7.937502,2.07886 c 0,0 -7.543365,-3.97197 -9.82738,-7.37053 -4.576807,-6.81017 -4.945245,-15.70954 -6.236605,-23.8125 z"
       id="path915"
       inkscape:connector-curvature="0"
       sodipodi:nodetypes="acaacaccaa" />
    <path
       style="opacity:1;vector-effect:none;fill:#8ba22d;fill-opacity:1;stroke:none;stroke-width:0.26458332px;stroke-linecap:butt;stroke-linejoin:miter;stroke-miterlimit:4;stroke-dasharray:none;stroke-dashoffset:0;stroke-opacity:1"
       d="m 51.499256,195.51337 8.315476,1.98437 c 0,0 1.080213,7.2543 2.078868,10.77233 1.067131,3.75926 2.641627,7.35962 4.157739,10.96131 2.23619,5.31232 7.276042,15.68601 7.276042,15.68601 l -4.819198,0.66145 -6.3311,-3.1183 -4.346726,-4.53571 -3.779764,-8.31548 -2.36235,-16.25297 z"
       id="path1096"
       inkscape:connector-curvature="0"
       sodipodi:nodetypes="ccaaccccccc" />
    <path
       sodipodi:nodetypes="acaacaccaa"
       inkscape:connector-curvature="0"
       id="path1098"
       d="m 51.782739,205.15176 c -0.496616,-3.11614 -0.566965,-9.4494 -0.566965,-9.4494 0,0 5.41902,-3.49668 8.504464,-4.15774 5.670037,-1.21482 12.168675,-1.96191 17.386905,0.56696 2.373535,1.15027 5.102678,6.04762 5.102678,6.04762 0,0 0.690556,16.20264 -1.133928,24.00149 -1.002449,4.28502 -5.291667,12.09524 -5.291667,12.09524 l -7.937502,2.07886 c 0,0 -7.543365,-3.97197 -9.82738,-7.37053 -4.576807,-6.81017 -4.945245,-15.70954 -6.236605,-23.8125 z"
       style="opacity:1;vector-effect:none;fill:none;fill-opacity:1;stroke:#000000;stroke-width:1.05833328;stroke-linecap:butt;stroke-linejoin:miter;stroke-miterlimit:4;stroke-dasharray:none;stroke-dashoffset:0;stroke-opacity:1" />
    <path
       style="opacity:1;vector-effect:none;fill:#abc837;fill-opacity:1;stroke:#000000;stroke-width:1.05833328;stroke-linecap:butt;stroke-linejoin:miter;stroke-miterlimit:4;stroke-dasharray:none;stroke-dashoffset:0;stroke-opacity:1"
       d="m 59.720238,208.74254 c 0,0 -6.815131,-4.60376 -8.882441,-7.9375 -2.067309,-3.33374 -3.590774,-11.90625 -3.590774,-11.90625 0,0 -2.286021,12.08802 -0.566965,17.3869 1.719056,5.29888 9.827382,12.6622 9.827382,12.6622"
       id="path108"
       inkscape:connector-curvature="0"
       sodipodi:nodetypes="czczc" />
    <path
       style="opacity:1;vector-effect:none;fill:#ffffff;fill-opacity:1;stroke:#000000;stroke-width:1.05833332;stroke-linecap:butt;stroke-linejoin:miter;stroke-miterlimit:4;stroke-dasharray:none;stroke-dashoffset:0;stroke-opacity:1"
       d="m 65.578868,218.56991 -4.157736,-11.33928 8.882438,-1.88988 V 217.247 Z"
       id="path917"
       inkscape:connector-curvature="0" />
    <path
       inkscape:connector-curvature="0"
       id="path919"
       d="m 75.620167,215.05345 -3.625211,-9.94728 7.744771,-1.65788 v 10.44465 z"
       style="opacity:1;vector-effect:none;fill:#ffffff;fill-opacity:1;stroke:#000000;stroke-width:1.05833328;stroke-linecap:butt;stroke-linejoin:miter;stroke-miterlimit:4;stroke-dasharray:none;stroke-dashoffset:0;stroke-opacity:1" />
    <path
       style="opacity:1;vector-effect:none;fill:#a05a2c;fill-opacity:1;stroke:#000000;stroke-width:1.05833328;stroke-linecap:butt;stroke-linejoin:miter;stroke-miterlimit:4;stroke-dasharray:none;stroke-dashoffset:0;stroke-opacity:1"
       d="m 48.565713,260.5371 c 0,0 11.147335,0.54453 16.728488,0.49948 3.623358,-0.0293 7.239824,-0.25791 10.845944,-0.49948 3.320509,-0.22243 9.926795,-0.87408 9.926795,-0.87408 l 2.757442,-0.49949 -0.551489,6.99271 c 0,0 -10.380207,1.19431 -15.625509,1.37357 -4.346861,0.14855 -8.716124,0.008 -13.051899,-0.24974 -3.763936,-0.22383 -11.213602,-1.12383 -11.213602,-1.12383 z"
       id="path967"
       inkscape:connector-curvature="0"
       sodipodi:nodetypes="caacccaacc" />
    <path
       style="opacity:1;vector-effect:none;fill:#a05a2c;fill-opacity:1;stroke:#000000;stroke-width:1.05833332;stroke-linecap:butt;stroke-linejoin:miter;stroke-miterlimit:4;stroke-dasharray:none;stroke-dashoffset:0;stroke-opacity:1"
       d="m 57.263392,229.9092 -5.291667,4.53572 c 0,0 3.546587,15.40155 8.504465,21.16666 3.480029,4.04664 8.891336,6.022 13.796132,8.12649 4.636068,1.98919 14.552083,4.15774 14.552083,4.15774 l 0.188986,-7.74851 c 0,0 -7.893477,0.34124 -11.528274,-0.94494 -4.743956,-1.67866 -9.369725,-4.54324 -12.473212,-8.50447 -4.560851,-5.82139 -7.748513,-20.78869 -7.748513,-20.78869 z"
       id="path939"
       inkscape:connector-curvature="0"
       sodipodi:nodetypes="ccaaccaac" />
    <path
       style="opacity:1;vector-effect:none;fill:#cccccc;fill-opacity:1;stroke:#000000;stroke-width:1.05833328;stroke-linecap:butt;stroke-linejoin:miter;stroke-miterlimit:4;stroke-dasharray:none;stroke-dashoffset:0;stroke-opacity:1"
       d="m 54.050593,231.61009 c -3.293971,0.46253 -5.885185,3.42995 -7.937499,6.04762 -1.949634,2.4867 -3.779761,8.69346 -3.779761,8.69346 0,0 6.233015,2.29752 9.260416,1.5119 3.733029,-0.96873 7.077824,-3.88011 9.071428,-7.18155 1.060211,-1.75572 1.13393,-6.04762 1.13393,-6.04762 0,0 -5.002907,-3.40934 -7.748514,-3.02381 z"
       id="path937"
       inkscape:connector-curvature="0"
       sodipodi:nodetypes="aacaaca" />
    <path
       sodipodi:nodetypes="ccaaccaac"
       inkscape:connector-curvature="0"
       id="path941"
       d="m 80.653191,229.9092 5.291667,4.53572 c 0,0 -3.546587,15.40155 -8.504465,21.16666 -3.480029,4.04664 -8.891336,6.022 -13.796132,8.12649 -4.636068,1.98919 -14.552083,4.15774 -14.552083,4.15774 l -0.188986,-7.74851 c 0,0 7.893477,0.34124 11.528274,-0.94494 4.743956,-1.67866 9.369725,-4.54324 12.473212,-8.50447 4.560851,-5.82139 7.748513,-20.78869 7.748513,-20.78869 z"
       style="opacity:1;vector-effect:none;fill:#a05a2c;fill-opacity:1;stroke:#000000;stroke-width:1.05833328;stroke-linecap:butt;stroke-linejoin:miter;stroke-miterlimit:4;stroke-dasharray:none;stroke-dashoffset:0;stroke-opacity:1" />
    <circle
       style="opacity:1;vector-effect:none;fill:#cccccc;fill-opacity:1;stroke:#000000;stroke-width:1.05833328;stroke-linecap:butt;stroke-linejoin:miter;stroke-miterlimit:4;stroke-dasharray:none;stroke-dashoffset:0;stroke-opacity:1"
       id="path945"
       cx="59.625744"
       cy="248.07094"
       r="3.1183035" />
    <rect
       style="opacity:1;vector-effect:none;fill:#cccccc;fill-opacity:1;stroke:#000000;stroke-width:1.05833328;stroke-linecap:butt;stroke-linejoin:miter;stroke-miterlimit:4;stroke-dasharray:none;stroke-dashoffset:0;stroke-opacity:1"
       id="rect983"
       width="8.8824406"
       height="7.3705359"
       x="64.444939"
       y="259.01337"
       rx="0.23386149"
       ry="0.23386149" />
    <circle
       style="opacity:1;vector-effect:none;fill:#cccccc;fill-opacity:1;stroke:#000000;stroke-width:1.05833328;stroke-linecap:butt;stroke-linejoin:miter;stroke-miterlimit:4;stroke-dasharray:none;stroke-dashoffset:0;stroke-opacity:1"
       id="circle965"
       cx="77.126045"
       cy="250.71677"
       r="2.5513391" />
    <path
       style="opacity:1;vector-effect:none;fill:#ffffff;fill-opacity:1;stroke:#000000;stroke-width:1.05833332;stroke-linecap:butt;stroke-linejoin:miter;stroke-miterlimit:4;stroke-dasharray:none;stroke-dashoffset:0;stroke-opacity:1"
       d="m 85.800593,194.00147 4.157739,0.94493 -6.992559,47.81399 8.504465,34.9628 -3.401787,1.5119 -7.9375,-36.28571 z"
       id="path1104"
       inkscape:connector-curvature="0" />
    <path
       style="opacity:1;vector-effect:none;fill:#784421;fill-opacity:1;stroke:#000000;stroke-width:1.05833332;stroke-linecap:butt;stroke-linejoin:miter;stroke-miterlimit:4;stroke-dasharray:none;stroke-dashoffset:0;stroke-opacity:1"
       d="m 84.288691,188.52081 c 8.787488,0.0786 17.477969,3.93326 23.434519,10.39434 4.04167,4.384 6.78961,9.79915 9.07143,15.30804 2.75386,6.64854 4.91839,13.61438 5.48066,20.78869 0.78326,9.99398 -1.66208,20.23626 -6.99256,28.72619 -5.35877,8.53498 -13.60102,15.22337 -23.05655,18.70982 l -7.748514,-2.83482 5.10268,-5.48065 c 7.382302,-2.2411 13.924354,-7.14765 18.142854,-13.60715 4.82141,-7.3827 6.52566,-16.54844 5.66965,-25.3244 -0.55455,-5.68533 -2.12477,-11.22445 -3.96875,-16.63095 -1.61791,-4.74368 -3.49709,-9.49371 -6.61459,-13.41816 -4.215359,-5.30649 -10.641179,-8.79878 -17.386903,-9.4494 z"
       id="path1100"
       inkscape:connector-curvature="0"
       sodipodi:nodetypes="caaaacccaaaacc"
       inkscape:path-effect="#path-effect1102"
       inkscape:original-d="m 84.288691,188.52081 c 0,0 17.047679,4.71696 23.434519,10.39434 4.43307,3.94064 6.78154,9.83655 9.07143,15.30804 2.76668,6.61074 5.4126,13.62268 5.48066,20.78869 0.0936,9.85456 -1.72488,20.39716 -6.99256,28.72619 -5.29044,8.36502 -23.05655,18.70982 -23.05655,18.70982 l -7.748514,-2.83482 5.10268,-5.48065 c 0,0 14.039514,-7.25821 18.142854,-13.60715 4.69549,-7.26515 5.73023,-16.67418 5.66965,-25.3244 -0.0399,-5.69917 -2.03522,-11.26964 -3.96875,-16.63095 -1.69175,-4.69091 -3.1594,-9.82256 -6.61459,-13.41816 -4.570466,-4.7562 -17.386903,-9.4494 -17.386903,-9.4494 z" />
    <circle
       r="2.5513391"
       cy="242.21231"
       cx="80.527832"
       id="circle963"
       style="opacity:1;vector-effect:none;fill:#cccccc;fill-opacity:1;stroke:#000000;stroke-width:1.05833328;stroke-linecap:butt;stroke-linejoin:miter;stroke-miterlimit:4;stroke-dasharray:none;stroke-dashoffset:0;stroke-opacity:1" />
    <circle
       r="3.1183035"
       cy="254.87451"
       cx="64.161461"
       id="circle961"
       style="opacity:1;vector-effect:none;fill:#cccccc;fill-opacity:1;stroke:#000000;stroke-width:1.05833328;stroke-linecap:butt;stroke-linejoin:miter;stroke-miterlimit:4;stroke-dasharray:none;stroke-dashoffset:0;stroke-opacity:1" />
    <g
       id="g1013"
       transform="rotate(8.51794,85.027898,245.02314)">
      <path
         inkscape:connector-curvature="0"
         id="path1001"
         d="m 72.571427,237.09075 2.07887,3.02381 -2.07887,3.40178 1.511905,5.10268 -5.669642,2.64584 -1.511906,-6.23661 h -3.401785 v -5.85863 l 2.645833,-3.59078 z"
         style="opacity:1;vector-effect:none;fill:#ffffff;fill-opacity:1;stroke:#000000;stroke-width:1.05833328;stroke-linecap:butt;stroke-linejoin:miter;stroke-miterlimit:4;stroke-dasharray:none;stroke-dashoffset:0;stroke-opacity:1" />
      <circle
         r="1.4999999"
         cy="241.40791"
         cx="66.750565"
         style="fill:#000000;fill-opacity:1;stroke:none"
         id="path1003" />
      <circle
         r="1.4999999"
         cy="239.47021"
         cx="70.49234"
         style="fill:#000000;fill-opacity:1;stroke:none"
         id="path1005" />
      <path
         inkscape:connector-curvature="0"
         id="path1007"
         d="m 68.821902,246.7533 2.672697,-1.20271"
         style="opacity:1;vector-effect:none;fill:none;fill-opacity:1;stroke:#000000;stroke-width:1.05833328;stroke-linecap:butt;stroke-linejoin:miter;stroke-miterlimit:4;stroke-dasharray:none;stroke-dashoffset:0;stroke-opacity:1" />
    </g>
    <g
       id="g1030"
       transform="matrix(1.1339532,0,0,1.1299774,39.24449,-55.805034)"
       style="stroke-width:0.88342065">
      <path
         inkscape:connector-curvature="0"
         id="path1015"
         d="m 36.215021,258.78043 6.280832,2.93997 -1.603616,2.13815 0.935443,2.6727 -2.405425,2.00452 0.133633,2.93996 -5.211755,-2.13815 -1.737251,-4.94449 z"
         style="opacity:1;vector-effect:none;fill:#c78449;fill-opacity:1;stroke:#000000;stroke-width:0.93495351;stroke-linecap:butt;stroke-linejoin:miter;stroke-miterlimit:4;stroke-dasharray:none;stroke-dashoffset:0;stroke-opacity:1" />
      <circle
         style="opacity:1;vector-effect:none;fill:#cccccc;fill-opacity:1;stroke:#000000;stroke-width:0.93495351;stroke-linecap:butt;stroke-linejoin:miter;stroke-miterlimit:4;stroke-dasharray:none;stroke-dashoffset:0;stroke-opacity:1"
         id="circle1026"
         cx="37.035618"
         cy="264.88205"
         r="1.2149916" />
    </g>
    <g
       id="g1066">
      <path
         sodipodi:nodetypes="ccccaacccc"
         inkscape:connector-curvature="0"
         id="path1038"
         d="m 54.426534,277.46407 4.72923,-3.70854 5.346088,2.26633 -1.439332,6.59297 c 0,0 5.3625,-3.71096 8.224749,-3.09046 1.896482,0.41113 3.89289,2.19253 4.112377,4.12061 0.219721,1.93013 -3.084282,4.94474 -3.084282,4.94474 l -10.280938,-0.20603 -5.962941,-1.03016 z"
         style="opacity:1;vector-effect:none;fill:#c78449;fill-opacity:1;stroke:#000000;stroke-width:1.05833328;stroke-linecap:butt;stroke-linejoin:miter;stroke-miterlimit:4;stroke-dasharray:none;stroke-dashoffset:0;stroke-opacity:1" />
      <path
         inkscape:connector-curvature="0"
         id="path1058"
         d="m 54.617558,277.81768 4.15774,1.79539 1.41741,5.66964 1.984375,0.37798 7.276041,-2.45685 1.322917,2.26786 -3.023809,3.02381 -6.614584,-0.56696 -5.10268,-1.03944 -1.322916,-9.63839 z"
         style="opacity:1;vector-effect:none;fill:#a05a2c;fill-opacity:1;stroke:none;stroke-width:0.26458332px;stroke-linecap:butt;stroke-linejoin:miter;stroke-miterlimit:4;stroke-dasharray:none;stroke-dashoffset:0;stroke-opacity:1" />
      <ellipse
         ry="1.7481399"
         rx="1.9371279"
         cy="281.92816"
         cx="71.957222"
         id="path1060"
         style="opacity:1;vector-effect:none;fill:#f4e6da;fill-opacity:1;stroke:none;stroke-width:1.05833328;stroke-linecap:butt;stroke-linejoin:miter;stroke-miterlimit:4;stroke-dasharray:none;stroke-dashoffset:0;stroke-opacity:1" />
      <path
         style="opacity:1;vector-effect:none;fill:none;fill-opacity:1;stroke:#000000;stroke-width:1.05833328;stroke-linecap:butt;stroke-linejoin:miter;stroke-miterlimit:4;stroke-dasharray:none;stroke-dashoffset:0;stroke-opacity:1"
         d="m 54.426534,277.46407 4.72923,-3.70854 5.346088,2.26633 -1.439332,6.59297 c 0,0 5.3625,-3.71096 8.224749,-3.09046 1.896482,0.41113 3.89289,2.19253 4.112377,4.12061 0.219721,1.93013 -3.084282,4.94474 -3.084282,4.94474 l -10.280938,-0.20603 -5.962941,-1.03016 z"
         id="path1056"
         inkscape:connector-curvature="0"
         sodipodi:nodetypes="ccccaacccc" />
    </g>
    <path
       style="opacity:1;vector-effect:none;fill:#abc837;fill-opacity:1;stroke:#000000;stroke-width:1.05833328;stroke-linecap:butt;stroke-linejoin:miter;stroke-miterlimit:4;stroke-dasharray:none;stroke-dashoffset:0;stroke-opacity:1"
       d="m 72.870389,215.01014 c 0,0 7.116449,-2.7792 10.777274,-2.39994 3.256696,0.3374 6.904145,1.49587 8.946238,4.05512 1.538132,1.92766 1.482363,7.24832 1.482363,7.24832 0,0 -1.487125,-3.23997 -2.882293,-4.21491 -2.480748,-1.73355 -5.789664,-2.55111 -8.799651,-2.23603 -3.546719,0.37126 -9.598389,4.72487 -9.598389,4.72487"
       id="path1080"
       inkscape:connector-curvature="0"
       sodipodi:nodetypes="caacaac" />
    <g
       style="stroke-width:0.88342065"
       transform="matrix(1.1339532,0,0,1.1299774,74.989822,-65.376947)"
       id="g1036">
      <path
         style="opacity:1;vector-effect:none;fill:#c78449;fill-opacity:1;stroke:#000000;stroke-width:0.93495351;stroke-linecap:butt;stroke-linejoin:miter;stroke-miterlimit:4;stroke-dasharray:none;stroke-dashoffset:0;stroke-opacity:1"
         d="m 36.215021,258.78043 6.280832,2.93997 -1.603616,2.13815 0.935443,2.6727 -2.405425,2.00452 0.133633,2.93996 -5.211755,-2.13815 -1.737251,-4.94449 z"
         id="path1032"
         inkscape:connector-curvature="0" />
      <circle
         r="1.2149916"
         cy="264.88205"
         cx="37.035618"
         id="circle1034"
         style="opacity:1;vector-effect:none;fill:#cccccc;fill-opacity:1;stroke:#000000;stroke-width:0.93495351;stroke-linecap:butt;stroke-linejoin:miter;stroke-miterlimit:4;stroke-dasharray:none;stroke-dashoffset:0;stroke-opacity:1" />
    </g>
  </g>
</svg>
