<?xml version="1.0" encoding="UTF-8" standalone="no"?>
<!-- Created with Inkscape (http://www.inkscape.org/) -->

<svg
   xmlns:dc="http://purl.org/dc/elements/1.1/"
   xmlns:cc="http://creativecommons.org/ns#"
   xmlns:rdf="http://www.w3.org/1999/02/22-rdf-syntax-ns#"
   xmlns:svg="http://www.w3.org/2000/svg"
   xmlns="http://www.w3.org/2000/svg"
   xmlns:sodipodi="http://sodipodi.sourceforge.net/DTD/sodipodi-0.dtd"
   xmlns:inkscape="http://www.inkscape.org/namespaces/inkscape"
   width="128"
   height="256"
   viewBox="0 0 33.866665 67.733335"
   version="1.1"
   id="svg4596"
   inkscape:version="0.92.3 (2405546, 2018-03-11)"
   sodipodi:docname="StrongWizard.svg"
   inkscape:export-filename="E:\School\WEB-151\Git\Final\sneaksy\Resources\StrongWizard\StrongWziard.png"
   inkscape:export-xdpi="48"
   inkscape:export-ydpi="48">
  <defs
     id="defs4590">
    <inkscape:path-effect
       is_visible="true"
       id="path-effect1081"
       effect="spiro" />
    <inkscape:path-effect
       is_visible="true"
       id="path-effect1026"
       effect="spiro" />
    <inkscape:path-effect
       is_visible="true"
       id="path-effect1020"
       effect="spiro" />
    <inkscape:path-effect
       is_visible="true"
       id="path-effect1014"
       effect="spiro" />
    <inkscape:path-effect
       is_visible="true"
       id="path-effect1010"
       effect="spiro" />
    <inkscape:path-effect
       effect="spiro"
       id="path-effect1006"
       is_visible="true" />
    <inkscape:path-effect
       effect="spiro"
       id="path-effect968"
       is_visible="true" />
    <inkscape:path-effect
       effect="spiro"
       id="path-effect964"
       is_visible="true" />
    <inkscape:path-effect
       effect="spiro"
       id="path-effect943"
       is_visible="true" />
    <inkscape:path-effect
       effect="spiro"
       id="path-effect935"
       is_visible="true" />
    <inkscape:path-effect
       effect="spiro"
       id="path-effect931"
       is_visible="true" />
    <inkscape:path-effect
       effect="spiro"
       id="path-effect927"
       is_visible="true" />
    <inkscape:path-effect
       is_visible="true"
       id="path-effect4822"
       effect="spiro" />
    <inkscape:path-effect
       effect="spiro"
       id="path-effect4818"
       is_visible="true" />
    <inkscape:path-effect
       is_visible="true"
       id="path-effect4762"
       effect="spiro" />
    <inkscape:path-effect
       effect="spiro"
       id="path-effect4750"
       is_visible="true" />
    <inkscape:path-effect
       is_visible="true"
       id="path-effect4746"
       effect="spiro" />
    <inkscape:path-effect
       effect="spiro"
       id="path-effect4724"
       is_visible="true" />
    <inkscape:path-effect
       effect="spiro"
       id="path-effect4722"
       is_visible="true" />
    <inkscape:path-effect
       effect="spiro"
       id="path-effect4718"
       is_visible="true" />
    <inkscape:path-effect
       is_visible="true"
       id="path-effect4707"
       effect="spiro" />
    <inkscape:path-effect
       is_visible="true"
       id="path-effect4699"
       effect="spiro" />
    <inkscape:path-effect
       is_visible="true"
       id="path-effect4695"
       effect="spiro" />
    <inkscape:path-effect
       effect="spiro"
       id="path-effect4691"
       is_visible="true" />
    <inkscape:path-effect
       effect="spiro"
       id="path-effect4638"
       is_visible="true" />
    <inkscape:path-effect
       effect="spiro"
       id="path-effect4634"
       is_visible="true" />
    <inkscape:path-effect
       is_visible="true"
       id="path-effect4626"
       effect="spiro" />
    <inkscape:path-effect
       effect="spiro"
       id="path-effect4622"
       is_visible="true" />
    <inkscape:path-effect
       effect="spiro"
       id="path-effect4614"
       is_visible="true" />
    <inkscape:path-effect
       effect="spiro"
       id="path-effect4608"
       is_visible="true" />
    <inkscape:path-effect
       effect="spiro"
       id="path-effect5513"
       is_visible="true" />
    <inkscape:path-effect
       is_visible="true"
       id="path-effect5509"
       effect="spiro" />
    <inkscape:path-effect
       effect="spiro"
       id="path-effect5417"
       is_visible="true" />
    <inkscape:path-effect
       effect="spiro"
       id="path-effect5349"
       is_visible="true" />
    <inkscape:path-effect
       is_visible="true"
       id="path-effect5328"
       effect="spiro" />
    <inkscape:path-effect
       is_visible="true"
       id="path-effect5324"
       effect="spiro" />
    <inkscape:path-effect
       effect="spiro"
       id="path-effect5320"
       is_visible="true" />
    <inkscape:path-effect
       effect="spiro"
       id="path-effect5314"
       is_visible="true" />
    <inkscape:path-effect
       is_visible="true"
       id="path-effect5312"
       effect="spiro" />
    <inkscape:path-effect
       effect="spiro"
       id="path-effect5306"
       is_visible="true" />
    <inkscape:path-effect
       is_visible="true"
       id="path-effect5255"
       effect="spiro" />
    <inkscape:path-effect
       effect="spiro"
       id="path-effect5249"
       is_visible="true" />
    <inkscape:path-effect
       effect="spiro"
       id="path-effect5212"
       is_visible="true" />
    <inkscape:path-effect
       effect="spiro"
       id="path-effect5208"
       is_visible="true" />
    <inkscape:path-effect
       effect="spiro"
       id="path-effect5204"
       is_visible="true" />
    <inkscape:path-effect
       effect="spiro"
       id="path-effect5196"
       is_visible="true" />
    <inkscape:path-effect
       is_visible="true"
       id="path-effect5192"
       effect="spiro" />
    <inkscape:path-effect
       is_visible="true"
       id="path-effect5188"
       effect="spiro" />
    <inkscape:path-effect
       is_visible="true"
       id="path-effect5182"
       effect="spiro" />
    <inkscape:path-effect
       effect="spiro"
       id="path-effect5178"
       is_visible="true" />
    <inkscape:path-effect
       is_visible="true"
       id="path-effect5174"
       effect="spiro" />
    <inkscape:path-effect
       effect="spiro"
       id="path-effect5170"
       is_visible="true" />
    <inkscape:path-effect
       effect="spiro"
       id="path-effect5163"
       is_visible="true" />
    <inkscape:path-effect
       is_visible="true"
       id="path-effect5159"
       effect="spiro" />
    <inkscape:path-effect
       effect="spiro"
       id="path-effect5155"
       is_visible="true" />
    <inkscape:path-effect
       is_visible="true"
       id="path-effect5151"
       effect="spiro" />
    <inkscape:path-effect
       effect="spiro"
       id="path-effect5147"
       is_visible="true" />
    <inkscape:path-effect
       effect="spiro"
       id="path-effect5143"
       is_visible="true" />
    <inkscape:path-effect
       effect="spiro"
       id="path-effect5208-8"
       is_visible="true" />
    <inkscape:path-effect
       is_visible="true"
       id="path-effect5509-7"
       effect="spiro" />
    <inkscape:path-effect
       effect="spiro"
       id="path-effect4638-0"
       is_visible="true" />
    <inkscape:path-effect
       effect="spiro"
       id="path-effect935-0"
       is_visible="true" />
    <inkscape:path-effect
       effect="spiro"
       id="path-effect931-4"
       is_visible="true" />
    <inkscape:path-effect
       effect="spiro"
       id="path-effect968-5"
       is_visible="true" />
  </defs>
  <sodipodi:namedview
     id="base"
     pagecolor="#ffffff"
     bordercolor="#666666"
     borderopacity="1.0"
     inkscape:pageopacity="0.0"
     inkscape:pageshadow="2"
     inkscape:zoom="1.979899"
     inkscape:cx="103.94337"
     inkscape:cy="101.43766"
     inkscape:document-units="px"
     inkscape:current-layer="g1052"
     showgrid="false"
     units="px"
     inkscape:snap-global="false"
     inkscape:window-width="1920"
     inkscape:window-height="1017"
     inkscape:window-x="-8"
     inkscape:window-y="-8"
     inkscape:window-maximized="1"
     showguides="true" />
  <metadata
     id="metadata4593">
    <rdf:RDF>
      <cc:Work
         rdf:about="">
        <dc:format>image/svg+xml</dc:format>
        <dc:type
           rdf:resource="http://purl.org/dc/dcmitype/StillImage" />
        <dc:title></dc:title>
      </cc:Work>
    </rdf:RDF>
  </metadata>
  <g
     inkscape:label="Layer 1"
     inkscape:groupmode="layer"
     id="layer1"
     transform="translate(0,-229.26664)">
    <g
       id="g1052"
       transform="matrix(0.97606009,0,0,0.97647142,-33.037605,6.717818)"
       style="stroke-width:1.0243113">
      <path
         style="fill:#5ebfff;fill-opacity:1;stroke:#000000;stroke-width:1.0840627;stroke-linecap:butt;stroke-linejoin:miter;stroke-miterlimit:4;stroke-dasharray:none;stroke-opacity:1"
         d="m 64.222136,277.29562 c -0.704071,-0.21779 -1.586032,-0.15172 -2.19501,0.26367 -0.714191,0.48717 -1.240097,1.42011 -1.229206,2.28518 0.01784,1.4171 0.744676,3.30658 2.10721,3.69145 0.99585,0.2813 1.972064,-0.78028 2.721814,-1.49415 0.647396,-0.61642 1.538465,-1.40085 1.404806,-2.28519 -0.186159,-1.23171 -1.620644,-2.09318 -2.809614,-2.46096 z"
         id="path1032"
         inkscape:connector-curvature="0"
         sodipodi:nodetypes="aaaaaaa" />
      <path
         style="opacity:1;vector-effect:none;fill:#5ebfff;fill-opacity:1;stroke:#000000;stroke-width:1.0840627;stroke-linecap:butt;stroke-linejoin:miter;stroke-miterlimit:4;stroke-dasharray:none;stroke-dashoffset:0;stroke-opacity:1"
         d="m 54.037286,288.9852 -0.08781,5.3614 9.394648,1.31837 c 1.369414,-0.68603 2.356945,-2.08364 2.546213,-3.60355 0.129822,-1.04252 -0.11455,-2.14675 -0.759847,-2.97578 -0.322648,-0.41452 -0.741003,-0.75613 -1.217772,-0.97663 -0.476769,-0.22049 -1.011667,-0.31816 -1.534398,-0.26639 -0.525612,0.0521 -1.035335,0.25572 -1.452095,0.5802 -0.416759,0.32448 -0.739183,0.76871 -0.918518,1.26552 0.268342,-0.0935 0.562811,-0.11063 0.84019,-0.0489 0.27738,0.0617 0.536811,0.20207 0.740217,0.40049 0.277586,0.27079 0.446711,0.64981 0.462838,1.03727 0.01613,0.38745 -0.120915,0.77922 -0.375038,1.07214 l -3.775418,-1.0547 0.0878,-2.10941 -2.019409,-1.0547 z"
         id="path1008"
         inkscape:connector-curvature="0"
         sodipodi:nodetypes="cccaacaccccc"
         inkscape:path-effect="#path-effect1010"
         inkscape:original-d="m 54.037286,288.9852 -0.08781,5.3614 9.394648,1.31837 c 0,0 2.604339,-2.13341 2.546213,-3.60355 -0.07232,-1.82912 -1.693924,-4.02239 -3.512017,-4.2188 -0.995301,-0.10754 -2.370613,1.84572 -2.370613,1.84572 0,0 1.23404,-0.0627 1.580407,0.35156 0.451217,0.53967 0.0878,2.10941 0.0878,2.10941 l -3.775418,-1.0547 0.0878,-2.10941 -2.019409,-1.0547 z" />
      <path
         style="opacity:1;vector-effect:none;fill:#5ebfff;fill-opacity:1;stroke:#000000;stroke-width:1.0840627;stroke-linecap:butt;stroke-linejoin:miter;stroke-miterlimit:4;stroke-dasharray:none;stroke-dashoffset:0;stroke-opacity:1"
         d="m 47.013252,268.68224 c -1.403889,2.68516 -2.524238,5.51845 -3.336417,8.43759 -1.025841,3.68708 -1.558851,7.51095 -1.580408,11.33802 2.064012,1.18951 4.283973,2.10804 6.585032,2.72464 3.836981,1.02817 8.050066,1.17968 11.677458,-0.43945 1.752437,-0.78222 3.325471,-1.96322 4.565624,-3.42778 -0.572429,-4.43125 -1.72683,-8.78697 -3.424217,-12.92007 -1.076162,-2.62043 -2.369792,-5.15151 -3.863221,-7.55868 l -5.882629,-0.9668 z"
         id="path1012"
         inkscape:connector-curvature="0"
         sodipodi:nodetypes="cacsscaccc"
         inkscape:path-effect="#path-effect1014"
         inkscape:original-d="m 47.013252,268.68224 c 0,0 -2.566093,5.51268 -3.336417,8.43759 -0.971789,3.68988 -1.580408,11.33802 -1.580408,11.33802 0,0 7.54887,5.88514 6.585032,2.72464 -0.372185,-1.22043 8.243258,1.1915 11.677458,-0.43945 0.805939,-0.38276 4.565624,-3.42778 4.565624,-3.42778 0,0 -1.830763,-8.7597 -3.424217,-12.92007 -1.012137,-2.64261 -3.863221,-7.55868 -3.863221,-7.55868 l -5.882629,-0.9668 z" />
      <path
         sodipodi:nodetypes="cacccccc"
         inkscape:connector-curvature="0"
         id="path1016"
         d="m 51.930077,268.85802 c 0,0 -0.430824,10.72855 -0.175603,16.08417 0.105186,2.20724 0.702403,6.59186 0.702403,6.59186 l -5.004624,-0.70313 -5.531428,-2.90042 0.878005,-8.61338 3.863218,-10.72277 z"
         style="fill:#368dff;fill-opacity:1;stroke:none;stroke-width:0.27101567px;stroke-linecap:butt;stroke-linejoin:miter;stroke-opacity:1" />
      <path
         style="fill:#368dff;fill-opacity:1;stroke:none;stroke-width:0.2710157px;stroke-linecap:butt;stroke-linejoin:miter;stroke-opacity:1"
         d="m 57.187603,291.38522 c 0,0 0.460334,-6.49223 0.954108,-7.95578 0.493774,-1.46354 0.186215,-0.96225 0.636069,-1.08198 0.449854,-0.11972 0.410064,-0.26202 1.335748,0.76375 0.925684,1.02577 2.735102,6.17369 2.735102,6.17369 l -2.671495,1.52751 z"
         id="path1084"
         inkscape:connector-curvature="0"
         sodipodi:nodetypes="czzzccc" />
      <path
         inkscape:original-d="m 47.013252,268.68224 c 0,0 -2.566093,5.51268 -3.336417,8.43759 -0.971789,3.68988 -1.580408,11.33802 -1.580408,11.33802 0,0 7.54887,5.88514 6.585032,2.72464 -0.372185,-1.22043 8.243258,1.1915 11.677458,-0.43945 0.805939,-0.38276 4.565624,-3.42778 4.565624,-3.42778 0,0 -1.830763,-8.7597 -3.424217,-12.92007 -1.012137,-2.64261 -3.863221,-7.55868 -3.863221,-7.55868 l -5.882629,-0.9668 z"
         inkscape:path-effect="#path-effect968"
         sodipodi:nodetypes="cacsscaccc"
         inkscape:connector-curvature="0"
         id="path966"
         d="m 47.013252,268.68224 c -1.403889,2.68516 -2.524238,5.51845 -3.336417,8.43759 -1.025841,3.68708 -1.558851,7.51095 -1.580408,11.33802 2.064012,1.18951 4.283973,2.10804 6.585032,2.72464 3.836981,1.02817 8.050066,1.17968 11.677458,-0.43945 1.752437,-0.78222 3.325471,-1.96322 4.565624,-3.42778 -0.572429,-4.43125 -1.72683,-8.78697 -3.424217,-12.92007 -1.076162,-2.62043 -2.369792,-5.15151 -3.863221,-7.55868 l -5.882629,-0.9668 z"
         style="opacity:1;vector-effect:none;fill:none;fill-opacity:1;stroke:#000000;stroke-width:1.0840627;stroke-linecap:butt;stroke-linejoin:miter;stroke-miterlimit:4;stroke-dasharray:none;stroke-dashoffset:0;stroke-opacity:1" />
      <path
         inkscape:original-d="m 41.481823,256.37741 c 0,0 -0.898163,4.34582 -0.175601,6.3282 0.980544,2.69017 3.075097,5.29404 5.707029,6.41609 2.829348,1.20621 6.33067,0.70518 9.219046,-0.35157 1.429661,-0.52307 2.761778,-1.54053 3.599818,-2.81254 1.199866,-1.82119 1.617092,-4.14718 1.668208,-6.32819 0.05897,-2.51614 -1.580408,-7.38289 -1.580408,-7.38289 z"
         inkscape:path-effect="#path-effect935"
         sodipodi:nodetypes="caaaaacc"
         inkscape:connector-curvature="0"
         id="path933"
         d="m 41.481823,256.37741 c -0.722655,2.02034 -0.785106,4.2709 -0.175601,6.3282 0.840021,2.83538 2.984461,5.26168 5.707029,6.41609 2.916032,1.23644 6.34995,0.99019 9.219046,-0.35157 1.394092,-0.65196 2.692284,-1.56959 3.599818,-2.81254 1.309278,-1.79317 1.700015,-4.10813 1.668208,-6.32819 -0.03629,-2.53273 -0.576693,-5.05725 -1.580408,-7.38289 z"
         style="fill:#d7b96f;fill-opacity:1;stroke:#000000;stroke-width:1.0840627;stroke-linecap:butt;stroke-linejoin:miter;stroke-miterlimit:4;stroke-dasharray:none;stroke-opacity:1" />
      <path
         inkscape:original-d="m 40.516017,254.79536 c 0,0 -1.500355,4.0631 -1.317006,6.15241 0.163131,1.85892 0.9024,3.76166 2.107211,5.18561 0.866196,1.02375 3.424216,2.1094 3.424216,2.1094 0,0 -0.574314,-3.55548 10e-7,-5.18561 0.449987,-1.27723 1.313922,-2.60503 2.546212,-3.1641 1.280644,-0.58099 2.82079,0.36226 4.214422,0.17579 3.834874,-0.51313 11.062855,-3.51566 11.062855,-3.51566 l -1.404806,-3.1641 -8.077642,-1.0547 z"
         inkscape:path-effect="#path-effect964"
         sodipodi:nodetypes="caacaaacccc"
         inkscape:connector-curvature="0"
         id="path962"
         d="m 40.516017,254.79536 c -1.02472,1.86424 -1.488769,4.03205 -1.317006,6.15241 0.153386,1.89351 0.831527,3.77794 2.107211,5.18561 0.91231,1.0067 2.114737,1.74743 3.424216,2.1094 -0.51075,-1.67794 -0.51075,-3.50767 10e-7,-5.18561 0.20424,-0.67097 0.491266,-1.32308 0.911214,-1.88483 0.419947,-0.56175 0.979108,-1.03082 1.634998,-1.27927 0.666281,-0.25239 1.400766,-0.26851 2.108774,-0.18878 0.708008,0.0797 1.402222,0.25133 2.105648,0.36457 3.962829,0.63796 8.1953,-0.70708 11.062855,-3.51566 l -1.404806,-3.1641 -8.077642,-1.0547 z"
         style="fill:#7f4823;stroke:#28170b;stroke-width:1.0840627;stroke-linecap:butt;stroke-linejoin:miter;stroke-miterlimit:4;stroke-dasharray:none;stroke-opacity:1;fill-opacity:1" />
      <path
         inkscape:original-d="m 47.293996,249.52187 c -4.311793,1.32116 -10.429384,1.73075 -10.617229,7.11921 0,0 4.242501,1.18711 6.400457,1.14259 5.26159,-0.10853 10.713901,-0.90425 15.511697,-3.42776 1.41898,-0.74635 3.689675,-3.33989 3.689675,-3.33989 -4.856353,-2.95556 -10.672809,-2.81532 -14.9846,-1.49415 z"
         inkscape:path-effect="#path-effect927"
         sodipodi:nodetypes="zcaacz"
         inkscape:connector-curvature="0"
         id="path925"
         d="m 47.293996,249.52187 c -4.169826,1.17658 -7.945572,3.70834 -10.617229,7.11921 2.092674,0.57504 4.238077,0.95803 6.400457,1.14259 5.380248,0.45921 11.042685,-0.39694 15.511697,-3.42776 1.377453,-0.93417 2.623378,-2.06198 3.689675,-3.33989 -4.572804,-2.34463 -10.038858,-2.88966 -14.9846,-1.49415 z"
         style="fill:#ececec;fill-opacity:1;stroke:#000000;stroke-width:1.0840627;stroke-linecap:butt;stroke-linejoin:miter;stroke-miterlimit:4;stroke-dasharray:none;stroke-opacity:1" />
      <path
         sodipodi:nodetypes="ccccccccacc"
         inkscape:connector-curvature="0"
         id="path1028"
         d="m 46.390401,249.52187 -0.677694,0.17579 -4.292073,2.19728 -4.442668,3.95513 -0.376499,0.52734 4.216772,0.96681 6.17456,0.17579 4.14147,-0.43946 c 0,0 -2.917081,-0.27002 -3.840273,-1.40627 -0.69539,-0.85588 -0.752994,-3.42777 -0.752994,-3.42777 z"
         style="fill:#d4d4d4;fill-opacity:1;stroke:none;stroke-width:0.27101567px;stroke-linecap:butt;stroke-linejoin:miter;stroke-opacity:1" />
      <path
         style="fill:none;stroke:#000000;stroke-width:1.0840627;stroke-linecap:butt;stroke-linejoin:miter;stroke-miterlimit:4;stroke-dasharray:none;stroke-opacity:1"
         d="m 47.293996,249.52187 c -4.169826,1.17658 -7.945572,3.70834 -10.617229,7.11921 2.092674,0.57504 4.238077,0.95803 6.400457,1.14259 5.380248,0.45921 11.042685,-0.39694 15.511697,-3.42776 1.377453,-0.93417 2.623378,-2.06198 3.689675,-3.33989 -4.572804,-2.34463 -10.038858,-2.88966 -14.9846,-1.49415 z"
         id="path1024"
         inkscape:connector-curvature="0"
         sodipodi:nodetypes="zcaacz"
         inkscape:path-effect="#path-effect1026"
         inkscape:original-d="m 47.293996,249.52187 c -4.311793,1.32116 -10.429384,1.73075 -10.617229,7.11921 0,0 4.242501,1.18711 6.400457,1.14259 5.26159,-0.10853 10.713901,-0.90425 15.511697,-3.42776 1.41898,-0.74635 3.689675,-3.33989 3.689675,-3.33989 -4.856353,-2.95556 -10.672809,-2.81532 -14.9846,-1.49415 z" />
      <path
         inkscape:original-d="m 43.673978,254.35027 c 0,0 1.102492,-4.82997 0.19552,-7.02665 -0.641928,-1.55472 -2.207458,-2.73213 -3.714886,-3.68898 -1.383958,-0.87848 -3.997739,-0.36808 -4.692487,-1.75667 -0.452091,-0.9036 0.142542,-2.28238 1.075362,-2.81065 3.607545,-2.04299 8.923508,-0.44685 12.70882,1.3175 2.519872,1.17451 4.222876,3.51494 5.670089,5.70914 1.339875,2.03145 2.639524,6.67531 2.639524,6.67531"
         inkscape:path-effect="#path-effect931"
         sodipodi:nodetypes="caaaaaac"
         inkscape:connector-curvature="0"
         id="path929"
         d="m 43.673978,254.35027 c 1.003765,-2.18829 1.076045,-4.78593 0.19552,-7.02665 -0.331376,-0.84327 -0.795597,-1.64151 -1.420847,-2.29724 -0.62525,-0.65573 -1.416874,-1.16481 -2.294039,-1.39174 -0.851144,-0.2202 -1.7492,-0.17156 -2.613969,-0.33002 -0.432385,-0.0792 -0.860025,-0.21249 -1.233072,-0.44502 -0.373047,-0.23253 -0.689575,-0.57061 -0.845446,-0.98163 -0.189544,-0.49982 -0.126686,-1.07223 0.0917,-1.56014 0.218382,-0.4879 0.580807,-0.89916 0.983665,-1.25051 0.867444,-0.75654 1.940743,-1.2632 3.064562,-1.51189 1.12382,-0.24868 2.296814,-0.24413 3.43086,-0.0473 2.26809,0.39372 4.342343,1.5356 6.213398,2.87665 2.19228,1.57128 4.185337,3.45736 5.670089,5.70914 1.326539,2.01184 2.231436,4.3003 2.639524,6.67531"
         style="fill:#5ebfff;fill-opacity:1;stroke:#000000;stroke-width:1.0840627;stroke-linecap:butt;stroke-linejoin:miter;stroke-miterlimit:4;stroke-dasharray:none;stroke-opacity:1" />
      <path
         sodipodi:nodetypes="aaaaccaaaaaa"
         inkscape:connector-curvature="0"
         id="path1022"
         d="m 35.613619,240.02957 c 0.47299,-0.64107 1.486709,-0.69508 2.28281,-0.70313 1.491383,-0.0151 3.079878,0.375 4.302222,1.23048 1.957468,1.36997 3.334666,3.57804 4.214421,5.80085 1.032252,2.60811 1.053606,8.3497 1.053606,8.3497 H 43.69126 c 0,0 1.202886,-3.44338 0.965804,-5.1856 -0.206702,-1.51897 -1.115506,-2.89342 -2.019409,-4.1309 -0.549808,-0.75271 -1.154916,-1.58638 -2.019411,-1.93362 -0.651883,-0.26184 -1.412395,0.10307 -2.107212,0 -0.998273,-0.14809 -2.296131,-0.0676 -2.897413,-0.87892 -0.505692,-0.68235 -0.504237,-1.86543 0,-2.54886 z"
         style="fill:#368dff;fill-opacity:1;stroke:none;stroke-width:0.27101567px;stroke-linecap:butt;stroke-linejoin:miter;stroke-opacity:1" />
      <path
         inkscape:connector-curvature="0"
         id="path937"
         d="m 50.788668,260.24464 5.180227,-1.66993 0.175602,6.2403 -2.458412,1.40627 z"
         style="fill:#f2f2f2;stroke:#000000;stroke-width:1.0840627;stroke-linecap:butt;stroke-linejoin:miter;stroke-miterlimit:4;stroke-dasharray:none;stroke-opacity:1" />
      <path
         style="fill:#f2f2f2;stroke:#000000;stroke-width:0.91476458;stroke-linecap:butt;stroke-linejoin:miter;stroke-miterlimit:4;stroke-dasharray:none;stroke-opacity:1"
         d="m 57.250299,258.12145 4.37123,-1.40914 0.148179,5.26575 -2.074482,1.18666 z"
         id="path939"
         inkscape:connector-curvature="0" />
      <path
         inkscape:original-d="m 57.988305,261.47513 c 0,0 2.837432,1.69313 2.546214,2.90042 -0.291217,1.20729 -3.336417,1.31837 -3.336417,1.31837"
         inkscape:path-effect="#path-effect943"
         sodipodi:nodetypes="czc"
         inkscape:connector-curvature="0"
         id="path941"
         d="m 57.988305,261.47513 c 0.378664,-0.0607 0.772561,-0.0238 1.133376,0.10611 0.360814,0.12994 0.687777,0.35267 0.940783,0.64087 0.253007,0.28821 0.431516,0.64126 0.513633,1.01587 0.08212,0.3746 0.06767,0.76996 -0.04158,1.13757 -0.196042,0.65968 -0.707461,1.2179 -1.347499,1.47081 -0.640039,0.25291 -1.394897,0.19505 -1.988918,-0.15244"
         style="opacity:1;vector-effect:none;fill:#d7b96f;fill-opacity:1;stroke:#000000;stroke-width:1.0840627;stroke-linecap:butt;stroke-linejoin:miter;stroke-miterlimit:4;stroke-dasharray:none;stroke-dashoffset:0;stroke-opacity:1" />
      <path
         inkscape:original-d="m 46.135248,290.0399 -0.08781,5.36139 9.394648,1.31837 c 0,0 2.604339,-2.13341 2.546212,-3.60355 -0.07232,-1.82912 -1.693924,-4.02239 -3.512017,-4.2188 -0.9953,-0.10754 -2.370612,1.84573 -2.370612,1.84573 0,0 1.23404,-0.0627 1.580407,0.35156 0.451217,0.53966 0.0878,2.1094 0.0878,2.1094 l -3.775418,-1.0547 0.0878,-2.1094 -2.019409,-1.05471 z"
         inkscape:path-effect="#path-effect1006"
         sodipodi:nodetypes="cccaacaccccc"
         inkscape:connector-curvature="0"
         id="path987"
         d="m 46.135248,290.0399 -0.08781,5.36139 9.394648,1.31837 c 1.369413,-0.68603 2.356944,-2.08364 2.546212,-3.60355 0.129822,-1.04252 -0.114549,-2.14675 -0.759846,-2.97578 -0.322649,-0.41452 -0.741004,-0.75613 -1.217773,-0.97663 -0.476769,-0.2205 -1.011667,-0.31816 -1.534398,-0.26639 -0.525613,0.0521 -1.035337,0.25572 -1.452096,0.58021 -0.41676,0.32448 -0.739183,0.76871 -0.918516,1.26552 0.268341,-0.0935 0.562811,-0.11064 0.840191,-0.0489 0.277379,0.0617 0.53681,0.20206 0.740216,0.40049 0.277584,0.27079 0.446708,0.64981 0.462835,1.03726 0.01613,0.38745 -0.120914,0.77922 -0.375035,1.07214 l -3.775418,-1.0547 0.0878,-2.1094 -2.019409,-1.05471 z"
         style="opacity:1;vector-effect:none;fill:#5ebfff;fill-opacity:1;stroke:#000000;stroke-width:1.0840627;stroke-linecap:butt;stroke-linejoin:miter;stroke-miterlimit:4;stroke-dasharray:none;stroke-dashoffset:0;stroke-opacity:1" />
      <path
         style="fill:none;stroke:#000000;stroke-width:1.0840627;stroke-linecap:butt;stroke-linejoin:miter;stroke-miterlimit:4;stroke-dasharray:none;stroke-opacity:1"
         d="m 43.673978,254.35027 c 1.003765,-2.18829 1.076045,-4.78593 0.19552,-7.02665 -0.331376,-0.84327 -0.795597,-1.64151 -1.420847,-2.29724 -0.62525,-0.65573 -1.416874,-1.16481 -2.294039,-1.39174 -0.851144,-0.2202 -1.7492,-0.17156 -2.613969,-0.33002 -0.432385,-0.0792 -0.860025,-0.21249 -1.233072,-0.44502 -0.373047,-0.23253 -0.689575,-0.57061 -0.845446,-0.98163 -0.189544,-0.49982 -0.126686,-1.07223 0.0917,-1.56014 0.218382,-0.4879 0.580807,-0.89916 0.983665,-1.25051 0.867444,-0.75654 1.940743,-1.2632 3.064562,-1.51189 1.12382,-0.24868 2.296814,-0.24413 3.43086,-0.0473 2.26809,0.39372 4.342343,1.5356 6.213398,2.87665 2.19228,1.57128 4.185337,3.45736 5.670089,5.70914 1.326539,2.01184 2.231436,4.3003 2.639524,6.67531"
         id="path1018"
         inkscape:connector-curvature="0"
         sodipodi:nodetypes="caaaaaac"
         inkscape:path-effect="#path-effect1020"
         inkscape:original-d="m 43.673978,254.35027 c 0,0 1.102492,-4.82997 0.19552,-7.02665 -0.641928,-1.55472 -2.207458,-2.73213 -3.714886,-3.68898 -1.383958,-0.87848 -3.997739,-0.36808 -4.692487,-1.75667 -0.452091,-0.9036 0.142542,-2.28238 1.075362,-2.81065 3.607545,-2.04299 8.923508,-0.44685 12.70882,1.3175 2.519872,1.17451 4.222876,3.51494 5.670089,5.70914 1.339875,2.03145 2.639524,6.67531 2.639524,6.67531" />
      <path
         style="opacity:1;vector-effect:none;fill:#ececec;fill-opacity:1;stroke:#000000;stroke-width:1.0840627;stroke-linecap:butt;stroke-linejoin:miter;stroke-miterlimit:4;stroke-dasharray:none;stroke-dashoffset:0;stroke-opacity:1"
         d="m 42.624292,267.43069 c -0.04436,0.003 -0.08814,0.01 -0.129871,0.0236 -1.666658,0.54372 -4.452509,2.80035 -4.452509,2.80035 0,0 2.729171,-0.17332 3.816436,0.50897 2.022696,1.26931 3.943356,5.98317 3.943356,5.98317 l 4.961662,-0.89145 c 0,0 -0.194469,6.47165 1.780806,8.65602 0.476972,0.52747 1.342304,0.79364 2.03563,0.63647 0.790093,-0.17912 1.468838,-0.90681 1.780807,-1.65491 1.029236,-2.46812 -0.254332,-8.01905 -0.254332,-8.01905 l 2.03563,-1.27293 c 0,0 0.959668,5.55378 2.67121,7.63757 0.530964,0.64645 1.33302,1.37827 2.162549,1.27245 0.535415,-0.0683 1.145224,-1.14545 1.145224,-1.14545 l -3.307773,-9.80146 -2.926033,-4.20076 -0.276466,0.0423 c -0.441226,0.28628 -0.903298,0.54227 -1.378405,0.76445 -2.869506,1.34185 -6.302585,1.58812 -9.218872,0.35146 -0.689627,-0.29244 -1.341829,-0.66678 -1.945606,-1.10853 -0.830855,-0.26743 -1.66022,-0.49597 -2.310621,-0.5769 -0.04355,-0.006 -0.08846,-0.008 -0.132822,-0.006 z"
         id="path1060"
         inkscape:connector-curvature="0" />
      <path
         sodipodi:nodetypes="aaaaaaa"
         inkscape:connector-curvature="0"
         id="path1030"
         d="m 49.991327,280.92497 c -0.694623,-0.24629 -1.578546,-0.21619 -2.203911,0.17406 -0.733417,0.45767 -1.296838,1.36842 -1.321145,2.23322 -0.03981,1.41665 0.609551,3.33416 1.955304,3.77421 0.983584,0.32162 2.002167,-0.69931 2.780335,-1.38206 0.671943,-0.58955 1.594172,-1.33703 1.496603,-2.22608 -0.135907,-1.23827 -1.534159,-2.15745 -2.707186,-2.57335 z"
         style="fill:#5ebfff;fill-opacity:1;stroke:#000000;stroke-width:1.0840627;stroke-linecap:butt;stroke-linejoin:miter;stroke-miterlimit:4;stroke-dasharray:none;stroke-opacity:1" />
    </g>
  </g>
</svg>
