<?xml version="1.0" encoding="UTF-8" standalone="no"?>
<!-- Created with Inkscape (http://www.inkscape.org/) -->

<svg
   xmlns:dc="http://purl.org/dc/elements/1.1/"
   xmlns:cc="http://creativecommons.org/ns#"
   xmlns:rdf="http://www.w3.org/1999/02/22-rdf-syntax-ns#"
   xmlns:svg="http://www.w3.org/2000/svg"
   xmlns="http://www.w3.org/2000/svg"
   xmlns:sodipodi="http://sodipodi.sourceforge.net/DTD/sodipodi-0.dtd"
   xmlns:inkscape="http://www.inkscape.org/namespaces/inkscape"
   width="128"
   height="256"
   viewBox="0 0 33.866665 67.733335"
   version="1.1"
   id="svg4596"
   inkscape:version="0.92.2 (5c3e80d, 2017-08-06)"
   sodipodi:docname="StrongKnight.svg"
   inkscape:export-filename="M:\School\WEB-151\Git\Final\sneaksy\Resources\StrongKnight\StrongKnight.png"
   inkscape:export-xdpi="48"
   inkscape:export-ydpi="48">
  <defs
     id="defs4590">
    <inkscape:path-effect
       is_visible="true"
       id="path-effect4822"
       effect="spiro" />
    <inkscape:path-effect
       effect="spiro"
       id="path-effect4818"
       is_visible="true" />
    <inkscape:path-effect
       is_visible="true"
       id="path-effect4762"
       effect="spiro" />
    <inkscape:path-effect
       effect="spiro"
       id="path-effect4750"
       is_visible="true" />
    <inkscape:path-effect
       is_visible="true"
       id="path-effect4746"
       effect="spiro" />
    <inkscape:path-effect
       effect="spiro"
       id="path-effect4724"
       is_visible="true" />
    <inkscape:path-effect
       effect="spiro"
       id="path-effect4722"
       is_visible="true" />
    <inkscape:path-effect
       effect="spiro"
       id="path-effect4718"
       is_visible="true" />
    <inkscape:path-effect
       is_visible="true"
       id="path-effect4707"
       effect="spiro" />
    <inkscape:path-effect
       is_visible="true"
       id="path-effect4699"
       effect="spiro" />
    <inkscape:path-effect
       is_visible="true"
       id="path-effect4695"
       effect="spiro" />
    <inkscape:path-effect
       effect="spiro"
       id="path-effect4691"
       is_visible="true" />
    <inkscape:path-effect
       effect="spiro"
       id="path-effect4638"
       is_visible="true" />
    <inkscape:path-effect
       effect="spiro"
       id="path-effect4634"
       is_visible="true" />
    <inkscape:path-effect
       is_visible="true"
       id="path-effect4626"
       effect="spiro" />
    <inkscape:path-effect
       effect="spiro"
       id="path-effect4622"
       is_visible="true" />
    <inkscape:path-effect
       effect="spiro"
       id="path-effect4614"
       is_visible="true" />
    <inkscape:path-effect
       effect="spiro"
       id="path-effect4608"
       is_visible="true" />
    <inkscape:path-effect
       effect="spiro"
       id="path-effect5513"
       is_visible="true" />
    <inkscape:path-effect
       is_visible="true"
       id="path-effect5509"
       effect="spiro" />
    <inkscape:path-effect
       effect="spiro"
       id="path-effect5417"
       is_visible="true" />
    <inkscape:path-effect
       effect="spiro"
       id="path-effect5349"
       is_visible="true" />
    <inkscape:path-effect
       is_visible="true"
       id="path-effect5328"
       effect="spiro" />
    <inkscape:path-effect
       is_visible="true"
       id="path-effect5324"
       effect="spiro" />
    <inkscape:path-effect
       effect="spiro"
       id="path-effect5320"
       is_visible="true" />
    <inkscape:path-effect
       effect="spiro"
       id="path-effect5314"
       is_visible="true" />
    <inkscape:path-effect
       is_visible="true"
       id="path-effect5312"
       effect="spiro" />
    <inkscape:path-effect
       effect="spiro"
       id="path-effect5306"
       is_visible="true" />
    <inkscape:path-effect
       is_visible="true"
       id="path-effect5255"
       effect="spiro" />
    <inkscape:path-effect
       effect="spiro"
       id="path-effect5249"
       is_visible="true" />
    <inkscape:path-effect
       effect="spiro"
       id="path-effect5212"
       is_visible="true" />
    <inkscape:path-effect
       effect="spiro"
       id="path-effect5208"
       is_visible="true" />
    <inkscape:path-effect
       effect="spiro"
       id="path-effect5204"
       is_visible="true" />
    <inkscape:path-effect
       effect="spiro"
       id="path-effect5196"
       is_visible="true" />
    <inkscape:path-effect
       is_visible="true"
       id="path-effect5192"
       effect="spiro" />
    <inkscape:path-effect
       is_visible="true"
       id="path-effect5188"
       effect="spiro" />
    <inkscape:path-effect
       is_visible="true"
       id="path-effect5182"
       effect="spiro" />
    <inkscape:path-effect
       effect="spiro"
       id="path-effect5178"
       is_visible="true" />
    <inkscape:path-effect
       is_visible="true"
       id="path-effect5174"
       effect="spiro" />
    <inkscape:path-effect
       effect="spiro"
       id="path-effect5170"
       is_visible="true" />
    <inkscape:path-effect
       effect="spiro"
       id="path-effect5163"
       is_visible="true" />
    <inkscape:path-effect
       is_visible="true"
       id="path-effect5159"
       effect="spiro" />
    <inkscape:path-effect
       effect="spiro"
       id="path-effect5155"
       is_visible="true" />
    <inkscape:path-effect
       is_visible="true"
       id="path-effect5151"
       effect="spiro" />
    <inkscape:path-effect
       effect="spiro"
       id="path-effect5147"
       is_visible="true" />
    <inkscape:path-effect
       effect="spiro"
       id="path-effect5143"
       is_visible="true" />
    <inkscape:path-effect
       effect="spiro"
       id="path-effect5208-8"
       is_visible="true" />
    <inkscape:path-effect
       is_visible="true"
       id="path-effect5509-7"
       effect="spiro" />
    <inkscape:path-effect
       effect="spiro"
       id="path-effect4638-0"
       is_visible="true" />
    <inkscape:path-effect
       effect="spiro"
       id="path-effect4822-3"
       is_visible="true" />
    <inkscape:path-effect
       is_visible="true"
       id="path-effect4818-7"
       effect="spiro" />
    <inkscape:path-effect
       effect="spiro"
       id="path-effect4762-1"
       is_visible="true" />
    <inkscape:path-effect
       is_visible="true"
       id="path-effect4750-1"
       effect="spiro" />
    <inkscape:path-effect
       effect="spiro"
       id="path-effect4746-4"
       is_visible="true" />
    <inkscape:path-effect
       is_visible="true"
       id="path-effect4724-3"
       effect="spiro" />
    <inkscape:path-effect
       is_visible="true"
       id="path-effect4722-3"
       effect="spiro" />
    <inkscape:path-effect
       is_visible="true"
       id="path-effect4718-2"
       effect="spiro" />
    <inkscape:path-effect
       effect="spiro"
       id="path-effect4707-0"
       is_visible="true" />
    <inkscape:path-effect
       effect="spiro"
       id="path-effect4699-5"
       is_visible="true" />
    <inkscape:path-effect
       effect="spiro"
       id="path-effect4695-7"
       is_visible="true" />
    <inkscape:path-effect
       is_visible="true"
       id="path-effect4691-6"
       effect="spiro" />
    <inkscape:path-effect
       is_visible="true"
       id="path-effect4638-06"
       effect="spiro" />
    <inkscape:path-effect
       is_visible="true"
       id="path-effect4634-5"
       effect="spiro" />
    <inkscape:path-effect
       effect="spiro"
       id="path-effect4626-8"
       is_visible="true" />
    <inkscape:path-effect
       is_visible="true"
       id="path-effect4622-8"
       effect="spiro" />
    <inkscape:path-effect
       is_visible="true"
       id="path-effect4614-0"
       effect="spiro" />
    <inkscape:path-effect
       is_visible="true"
       id="path-effect4608-6"
       effect="spiro" />
    <inkscape:path-effect
       is_visible="true"
       id="path-effect5513-2"
       effect="spiro" />
    <inkscape:path-effect
       effect="spiro"
       id="path-effect5509-2"
       is_visible="true" />
    <inkscape:path-effect
       is_visible="true"
       id="path-effect5417-8"
       effect="spiro" />
    <inkscape:path-effect
       is_visible="true"
       id="path-effect5349-2"
       effect="spiro" />
    <inkscape:path-effect
       effect="spiro"
       id="path-effect5328-5"
       is_visible="true" />
    <inkscape:path-effect
       effect="spiro"
       id="path-effect5324-6"
       is_visible="true" />
    <inkscape:path-effect
       is_visible="true"
       id="path-effect5320-0"
       effect="spiro" />
    <inkscape:path-effect
       is_visible="true"
       id="path-effect5314-1"
       effect="spiro" />
    <inkscape:path-effect
       effect="spiro"
       id="path-effect5312-9"
       is_visible="true" />
    <inkscape:path-effect
       is_visible="true"
       id="path-effect5306-6"
       effect="spiro" />
    <inkscape:path-effect
       effect="spiro"
       id="path-effect5255-6"
       is_visible="true" />
    <inkscape:path-effect
       is_visible="true"
       id="path-effect5249-6"
       effect="spiro" />
    <inkscape:path-effect
       is_visible="true"
       id="path-effect5212-6"
       effect="spiro" />
    <inkscape:path-effect
       is_visible="true"
       id="path-effect5208-3"
       effect="spiro" />
    <inkscape:path-effect
       is_visible="true"
       id="path-effect5204-8"
       effect="spiro" />
    <inkscape:path-effect
       is_visible="true"
       id="path-effect5196-1"
       effect="spiro" />
    <inkscape:path-effect
       effect="spiro"
       id="path-effect5192-5"
       is_visible="true" />
    <inkscape:path-effect
       effect="spiro"
       id="path-effect5188-5"
       is_visible="true" />
    <inkscape:path-effect
       effect="spiro"
       id="path-effect5182-7"
       is_visible="true" />
    <inkscape:path-effect
       is_visible="true"
       id="path-effect5178-2"
       effect="spiro" />
    <inkscape:path-effect
       effect="spiro"
       id="path-effect5174-0"
       is_visible="true" />
    <inkscape:path-effect
       is_visible="true"
       id="path-effect5170-3"
       effect="spiro" />
    <inkscape:path-effect
       is_visible="true"
       id="path-effect5163-1"
       effect="spiro" />
    <inkscape:path-effect
       effect="spiro"
       id="path-effect5159-3"
       is_visible="true" />
    <inkscape:path-effect
       is_visible="true"
       id="path-effect5155-4"
       effect="spiro" />
    <inkscape:path-effect
       effect="spiro"
       id="path-effect5151-7"
       is_visible="true" />
    <inkscape:path-effect
       is_visible="true"
       id="path-effect5147-9"
       effect="spiro" />
    <inkscape:path-effect
       is_visible="true"
       id="path-effect5143-0"
       effect="spiro" />
    <inkscape:path-effect
       is_visible="true"
       id="path-effect5208-8-0"
       effect="spiro" />
    <inkscape:path-effect
       effect="spiro"
       id="path-effect5509-7-1"
       is_visible="true" />
    <inkscape:path-effect
       is_visible="true"
       id="path-effect4638-0-9"
       effect="spiro" />
  </defs>
  <sodipodi:namedview
     id="base"
     pagecolor="#ffffff"
     bordercolor="#666666"
     borderopacity="1.0"
     inkscape:pageopacity="0.0"
     inkscape:pageshadow="2"
     inkscape:zoom="2.8"
     inkscape:cx="42.095643"
     inkscape:cy="84.387929"
     inkscape:document-units="px"
     inkscape:current-layer="layer1"
     showgrid="false"
     units="px"
     inkscape:snap-global="false"
     inkscape:window-width="1920"
     inkscape:window-height="1017"
     inkscape:window-x="-8"
     inkscape:window-y="-8"
     inkscape:window-maximized="1"
     showguides="false" />
  <metadata
     id="metadata4593">
    <rdf:RDF>
      <cc:Work
         rdf:about="">
        <dc:format>image/svg+xml</dc:format>
        <dc:type
           rdf:resource="http://purl.org/dc/dcmitype/StillImage" />
        <dc:title />
      </cc:Work>
    </rdf:RDF>
  </metadata>
  <g
     inkscape:label="Layer 1"
     inkscape:groupmode="layer"
     id="layer1"
     transform="translate(0,-229.26664)">
    <g
       style="stroke-width:1.25069499"
       transform="matrix(0.7970816,0,0,0.80203695,11.893547,96.227558)"
       id="g5000">
      <path
         style="fill:#87cdde;fill-opacity:1;stroke:#000000;stroke-width:1.32365215;stroke-linecap:butt;stroke-linejoin:miter;stroke-miterlimit:4;stroke-dasharray:none;stroke-opacity:1"
         d="m 16.83798,224.4363 -2.80633,4.67722 3.0736,6.5481 2.53906,0.4009 3.741773,-5.74629 -2.138156,-2.93997 z"
         id="path4994"
         inkscape:connector-curvature="0"
         sodipodi:nodetypes="ccccccc" />
      <path
         style="fill:none;stroke:#000000;stroke-width:0.33091304px;stroke-linecap:butt;stroke-linejoin:miter;stroke-opacity:1"
         d="m 16.34747,229.43673 1.700893,3.30729 1.511904,0.75596"
         id="path4996"
         inkscape:connector-curvature="0" />
      <path
         style="fill:none;stroke:#000000;stroke-width:0.33091304px;stroke-linecap:butt;stroke-linejoin:miter;stroke-opacity:1"
         d="m 18.237351,228.01932 1.228422,2.07887 1.700893,1.32292"
         id="path4998"
         inkscape:connector-curvature="0" />
    </g>
    <g
       id="g4786"
       transform="translate(-27.909464,46.127987)">
      <g
         transform="rotate(4.5561838,111.07326,268.69521)"
         id="g4842">
        <path
           style="fill:#87cdde;fill-opacity:1;stroke:#000000;stroke-width:1.05833328;stroke-linecap:butt;stroke-linejoin:miter;stroke-miterlimit:4;stroke-dasharray:none;stroke-opacity:1"
           d="m 44.695684,243.13837 -2.267858,1.5119 1.039434,5.76414 10.48884,1.6064 2.929316,-1.70089 c 0.189711,-0.94056 0.04797,-1.9446 -0.394701,-2.79589 -0.44267,-0.85129 -1.18321,-1.54395 -2.062146,-1.92882 -0.846187,-0.37053 -1.815007,-0.45415 -2.712168,-0.23409 -0.89716,0.22006 -1.717326,0.74249 -2.296016,1.46252 l -1.511903,-3.49628 z"
           id="path4834"
           inkscape:connector-curvature="0"
           sodipodi:nodetypes="cccccaccc"
           inkscape:path-effect="#path-effect4818"
           inkscape:original-d="m 44.695684,243.13837 -2.267858,1.5119 1.039434,5.76414 10.48884,1.6064 2.929316,-1.70089 c 0,0 -0.839929,-3.9922 -2.456847,-4.72471 -1.565704,-0.70931 -5.008184,1.22843 -5.008184,1.22843 l -1.511903,-3.49628 z" />
        <path
           style="fill:#37abc8;fill-opacity:1;stroke:none;stroke-width:0.26458332px;stroke-linecap:butt;stroke-linejoin:miter;stroke-opacity:1"
           d="m 42.629489,245.01605 3.674956,0.33409 1.403165,3.27405 5.479026,0.80181 0.601356,2.53906 -10.423512,-1.5368 z"
           id="path4836"
           inkscape:connector-curvature="0" />
        <path
           style="fill:#d7eef4;fill-opacity:1;stroke:none;stroke-width:0.26458332px;stroke-linecap:butt;stroke-linejoin:miter;stroke-opacity:1"
           d="m 51.87532,245.92536 c 0.391597,-0.39717 1.114288,-0.44317 1.648944,-0.28431 0.347106,0.10314 0.618037,0.42386 0.796041,0.73919 0.228412,0.40463 0.513592,0.9605 0.284303,1.36463 -0.257334,0.45357 -0.966691,0.61239 -1.478366,0.51175 -0.619314,-0.12181 -1.207286,-0.65721 -1.421502,-1.25093 -0.123732,-0.34294 -0.08538,-0.82073 0.17058,-1.08033 z"
           id="path4838"
           inkscape:connector-curvature="0"
           sodipodi:nodetypes="aaaaaaa" />
        <path
           inkscape:original-d="m 44.695684,243.13837 -2.267858,1.5119 1.039434,5.76414 10.48884,1.6064 2.929316,-1.70089 c 0,0 -0.839929,-3.9922 -2.456847,-4.72471 -1.565704,-0.70931 -5.008184,1.22843 -5.008184,1.22843 l -1.511903,-3.49628 z"
           inkscape:path-effect="#path-effect4822"
           sodipodi:nodetypes="cccccaccc"
           inkscape:connector-curvature="0"
           id="path4840"
           d="m 44.695684,243.13837 -2.267858,1.5119 1.039434,5.76414 10.48884,1.6064 2.929316,-1.70089 c 0.189711,-0.94056 0.04797,-1.9446 -0.394701,-2.79589 -0.44267,-0.85129 -1.18321,-1.54395 -2.062146,-1.92882 -0.846187,-0.37053 -1.815007,-0.45415 -2.712168,-0.23409 -0.89716,0.22006 -1.717326,0.74249 -2.296016,1.46252 l -1.511903,-3.49628 z"
           style="fill:none;fill-opacity:1;stroke:#000000;stroke-width:1.05833328;stroke-linecap:butt;stroke-linejoin:miter;stroke-miterlimit:4;stroke-dasharray:none;stroke-opacity:1" />
      </g>
      <g
         id="g4832"
         transform="rotate(4.5561838,75.752729,184.30395)">
        <path
           inkscape:original-d="m 44.695684,243.13837 -2.267858,1.5119 1.039434,5.76414 10.48884,1.6064 2.929316,-1.70089 c 0,0 -0.839929,-3.9922 -2.456847,-4.72471 -1.565704,-0.70931 -5.008184,1.22843 -5.008184,1.22843 l -1.511903,-3.49628 z"
           inkscape:path-effect="#path-effect4818"
           sodipodi:nodetypes="cccccaccc"
           inkscape:connector-curvature="0"
           id="path4816"
           d="m 44.695684,243.13837 -2.267858,1.5119 1.039434,5.76414 10.48884,1.6064 2.929316,-1.70089 c 0.189711,-0.94056 0.04797,-1.9446 -0.394701,-2.79589 -0.44267,-0.85129 -1.18321,-1.54395 -2.062146,-1.92882 -0.846187,-0.37053 -1.815007,-0.45415 -2.712168,-0.23409 -0.89716,0.22006 -1.717326,0.74249 -2.296016,1.46252 l -1.511903,-3.49628 z"
           style="fill:#87cdde;fill-opacity:1;stroke:#000000;stroke-width:1.05833328;stroke-linecap:butt;stroke-linejoin:miter;stroke-miterlimit:4;stroke-dasharray:none;stroke-opacity:1" />
        <path
           inkscape:connector-curvature="0"
           id="path4824"
           d="m 42.629489,245.01605 3.674956,0.33409 1.403165,3.27405 5.479026,0.80181 0.601356,2.53906 -10.423512,-1.5368 z"
           style="fill:#37abc8;fill-opacity:1;stroke:none;stroke-width:0.26458332px;stroke-linecap:butt;stroke-linejoin:miter;stroke-opacity:1" />
        <path
           sodipodi:nodetypes="aaaaaaa"
           inkscape:connector-curvature="0"
           id="path4826"
           d="m 51.87532,245.92536 c 0.391597,-0.39717 1.114288,-0.44317 1.648944,-0.28431 0.347106,0.10314 0.618037,0.42386 0.796041,0.73919 0.228412,0.40463 0.513592,0.9605 0.284303,1.36463 -0.257334,0.45357 -0.966691,0.61239 -1.478366,0.51175 -0.619314,-0.12181 -1.207286,-0.65721 -1.421502,-1.25093 -0.123732,-0.34294 -0.08538,-0.82073 0.17058,-1.08033 z"
           style="fill:#d7eef4;fill-opacity:1;stroke:none;stroke-width:0.26458332px;stroke-linecap:butt;stroke-linejoin:miter;stroke-opacity:1" />
        <path
           style="fill:none;fill-opacity:1;stroke:#000000;stroke-width:1.05833328;stroke-linecap:butt;stroke-linejoin:miter;stroke-miterlimit:4;stroke-dasharray:none;stroke-opacity:1"
           d="m 44.695684,243.13837 -2.267858,1.5119 1.039434,5.76414 10.48884,1.6064 2.929316,-1.70089 c 0.189711,-0.94056 0.04797,-1.9446 -0.394701,-2.79589 -0.44267,-0.85129 -1.18321,-1.54395 -2.062146,-1.92882 -0.846187,-0.37053 -1.815007,-0.45415 -2.712168,-0.23409 -0.89716,0.22006 -1.717326,0.74249 -2.296016,1.46252 l -1.511903,-3.49628 z"
           id="path4820"
           inkscape:connector-curvature="0"
           sodipodi:nodetypes="cccccaccc"
           inkscape:path-effect="#path-effect4822"
           inkscape:original-d="m 44.695684,243.13837 -2.267858,1.5119 1.039434,5.76414 10.48884,1.6064 2.929316,-1.70089 c 0,0 -0.839929,-3.9922 -2.456847,-4.72471 -1.565704,-0.70931 -5.008184,1.22843 -5.008184,1.22843 l -1.511903,-3.49628 z" />
      </g>
      <g
         id="g4923">
        <path
           style="fill:#87cdde;fill-opacity:1;stroke:none;stroke-width:1.05833328;stroke-linecap:butt;stroke-linejoin:miter;stroke-miterlimit:4;stroke-dasharray:none;stroke-opacity:1"
           d="m 38.993982,219.32552 c -1.862906,1.60346 -2.949093,3.92929 -3.693213,6.27189 -0.573784,1.80636 -0.978861,3.6847 -0.958916,5.5799 0.01994,1.8952 0.484969,3.81546 1.536589,5.39225 0.966751,1.44954 2.40069,2.56067 3.999426,3.25334 1.598736,0.69268 3.357012,0.97874 5.099237,0.95837 1.537855,-0.018 3.0822,-0.2739 4.506756,-0.85352 1.424556,-0.57962 2.726707,-1.49115 3.678563,-2.69916 1.19039,-1.51074 1.791043,-3.43227 1.906558,-5.35216 0.115514,-1.9199 -0.231011,-3.84407 -0.782029,-5.68682 -0.790902,-2.64499 -2.074413,-5.24806 -4.234021,-6.96782 -1.809809,-1.4412 -4.191711,-2.166 -6.490043,-1.90114 -1.676915,0.19324 -3.289543,0.90368 -4.568907,2.00487 z"
           id="path4632"
           inkscape:connector-curvature="0"
           sodipodi:nodetypes="aaaaaaaaa"
           inkscape:path-effect="#path-effect4634"
           inkscape:original-d="m 38.993982,219.32552 c -1.814275,1.6108 -3.117,3.91515 -3.693213,6.27189 -0.869829,3.55766 -1.474969,7.93898 0.577673,10.97215 1.873077,2.76785 5.756846,4.17156 9.098663,4.21171 2.974139,0.0358 6.429608,-1.1518 8.185319,-3.55268 2.183283,-2.98559 1.939832,-7.43125 1.124529,-11.03898 -0.599081,-2.65094 -2.078459,-5.31255 -4.234021,-6.96782 -1.787919,-1.37295 -4.240443,-2.04593 -6.490043,-1.90114 -1.659709,0.10682 -3.325215,0.90066 -4.568907,2.00487 z" />
        <path
           style="fill:#37abc8;fill-opacity:1;stroke:none;stroke-width:0.26458332px;stroke-linecap:butt;stroke-linejoin:miter;stroke-opacity:1"
           d="m 43.278274,217.53048 c 1.126015,0.17657 2.188082,0.73797 2.968185,1.56895 0.780103,0.83098 1.273368,1.92635 1.37854,3.06126 0.09212,0.99409 -0.105551,1.99471 -0.400227,2.94859 -0.294676,0.95387 -0.686187,1.87514 -0.997402,2.82375 -1.346698,4.10484 -1.113352,8.70645 0.641678,12.654 -2.797607,0.86514 -6.001449,0.28262 -8.315477,-1.51191 -1.76891,-1.37179 -2.992459,-3.37984 -3.602883,-5.53349 -0.610424,-2.15366 -0.631879,-4.44697 -0.271373,-6.65624 0.238293,-1.46032 0.644017,-2.90129 1.304773,-4.2252 0.660756,-1.3239 1.583316,-2.52974 2.758471,-3.42881 1.301141,-0.99546 2.900855,-1.59535 4.535715,-1.7009 z"
           id="path4748"
           inkscape:connector-curvature="0"
           sodipodi:nodetypes="csscaaac"
           inkscape:path-effect="#path-effect4750"
           inkscape:original-d="m 43.278274,217.53048 c 0,0 3.608092,2.64631 4.346725,4.63021 0.492844,1.32373 -1.454076,3.95694 -1.397629,5.77234 0.189214,6.08528 0.641678,12.654 0.641678,12.654 0,0 -6.20015,0.34884 -8.315477,-1.51191 -3.201243,-2.81598 -4.258094,-7.94351 -3.874256,-12.18973 0.260052,-2.87683 1.893073,-5.74767 4.063244,-7.65401 1.213135,-1.06565 4.535715,-1.7009 4.535715,-1.7009 z" />
        <circle
           style="opacity:1;vector-effect:none;fill:#d7eef4;fill-opacity:1;stroke:none;stroke-width:0.52916664;stroke-linecap:butt;stroke-linejoin:miter;stroke-miterlimit:4;stroke-dasharray:none;stroke-dashoffset:0;stroke-opacity:1"
           id="path4752"
           cx="49.136909"
           cy="222.44415"
           r="2.173363" />
        <path
           inkscape:original-d="m 38.993982,219.32552 c -1.814275,1.6108 -3.117,3.91515 -3.693213,6.27189 -0.869829,3.55766 -1.474969,7.93898 0.577673,10.97215 1.873077,2.76785 5.756846,4.17156 9.098663,4.21171 2.974139,0.0358 6.429608,-1.1518 8.185319,-3.55268 2.183283,-2.98559 1.939832,-7.43125 1.124529,-11.03898 -0.599081,-2.65094 -2.078459,-5.31255 -4.234021,-6.96782 -1.787919,-1.37295 -4.240443,-2.04593 -6.490043,-1.90114 -1.659709,0.10682 -3.325215,0.90066 -4.568907,2.00487 z"
           inkscape:path-effect="#path-effect4746"
           sodipodi:nodetypes="aaaaaaaaa"
           inkscape:connector-curvature="0"
           id="path4744"
           d="m 38.993982,219.32552 c -1.862906,1.60346 -2.949093,3.92929 -3.693213,6.27189 -0.573784,1.80636 -0.978861,3.6847 -0.958916,5.5799 0.01994,1.8952 0.484969,3.81546 1.536589,5.39225 0.966751,1.44954 2.40069,2.56067 3.999426,3.25334 1.598736,0.69268 3.357012,0.97874 5.099237,0.95837 1.537855,-0.018 3.0822,-0.2739 4.506756,-0.85352 1.424556,-0.57962 2.726707,-1.49115 3.678563,-2.69916 1.19039,-1.51074 1.791043,-3.43227 1.906558,-5.35216 0.115514,-1.9199 -0.231011,-3.84407 -0.782029,-5.68682 -0.790902,-2.64499 -2.074413,-5.24806 -4.234021,-6.96782 -1.809809,-1.4412 -4.191711,-2.166 -6.490043,-1.90114 -1.676915,0.19324 -3.289543,0.90368 -4.568907,2.00487 z"
           style="fill:none;fill-opacity:1;stroke:#000000;stroke-width:1.05833328;stroke-linecap:butt;stroke-linejoin:miter;stroke-miterlimit:4;stroke-dasharray:none;stroke-opacity:1" />
        <path
           style="fill:#a05a2c;stroke:#000000;stroke-width:1.05833328;stroke-linecap:butt;stroke-linejoin:miter;stroke-miterlimit:4;stroke-dasharray:none;stroke-opacity:1"
           d="m 53.105653,221.31024 c 0.664002,0.28792 1.217206,0.82341 1.526568,1.4777 0.239984,0.50756 0.334274,1.08301 0.26882,1.64061 -0.67164,2.74043 -1.864633,5.35211 -3.496281,7.65402 -2.915243,4.11278 -7.253007,7.19666 -12.095239,8.59895 -0.431887,-0.0879 -0.848928,-0.24832 -1.22842,-0.47247 -0.483421,-0.28553 -0.90519,-0.67486 -1.228424,-1.13393 5.226752,-1.05945 9.987203,-4.25625 12.945684,-8.69345 1.802483,-2.70341 2.946861,-5.84227 3.307292,-9.07143 z"
           id="path4636"
           inkscape:connector-curvature="0"
           sodipodi:nodetypes="cacacacac"
           inkscape:path-effect="#path-effect4638"
           inkscape:original-d="m 53.105653,221.31024 c 0,0 1.198254,0.85019 1.526568,1.4777 0.256901,0.49102 0.26882,1.64061 0.26882,1.64061 0,0 -1.709491,5.49186 -3.496281,7.65402 -3.151209,3.81322 -12.095239,8.59895 -12.095239,8.59895 0,0 -0.855855,-0.24081 -1.22842,-0.47247 -0.473232,-0.29426 -1.228424,-1.13393 -1.228424,-1.13393 0,0 9.740215,-4.60157 12.945684,-8.69345 1.984792,-2.53365 3.307292,-9.07143 3.307292,-9.07143 z" />
        <path
           style="fill:#8b4e26;fill-opacity:1;stroke:none;stroke-width:0.26458332px;stroke-linecap:butt;stroke-linejoin:miter;stroke-opacity:1"
           d="m 53.294642,221.40474 c 0,0 -1.046768,4.42496 -2.078868,6.42559 -1.124961,2.18064 -2.649548,4.18028 -4.393976,5.90588 -1.675178,1.65709 -3.590774,3.14196 -5.716889,4.15774 -1.368489,0.65382 -4.393972,1.18117 -4.393972,1.18117 l 0.992188,0.75596 c 0,0 3.107704,-0.4061 4.488465,-1.08668 2.431189,-1.19834 4.479847,-3.1229 6.331104,-5.10268 1.536835,-1.64353 2.831706,-3.53387 3.874254,-5.5279 0.90958,-1.73971 2.031621,-5.52791 2.031621,-5.52791 z"
           id="path4758"
           inkscape:connector-curvature="0"
           sodipodi:nodetypes="caaaccaaacc" />
        <path
           inkscape:original-d="m 53.105653,221.31024 c 0,0 1.198254,0.85019 1.526568,1.4777 0.256901,0.49102 0.26882,1.64061 0.26882,1.64061 0,0 -1.709491,5.49186 -3.496281,7.65402 -3.151209,3.81322 -12.095239,8.59895 -12.095239,8.59895 0,0 -0.855855,-0.24081 -1.22842,-0.47247 -0.473232,-0.29426 -1.228424,-1.13393 -1.228424,-1.13393 0,0 9.740215,-4.60157 12.945684,-8.69345 1.984792,-2.53365 3.307292,-9.07143 3.307292,-9.07143 z"
           inkscape:path-effect="#path-effect4762"
           sodipodi:nodetypes="cacacacac"
           inkscape:connector-curvature="0"
           id="path4760"
           d="m 53.105653,221.31024 c 0.664002,0.28792 1.217206,0.82341 1.526568,1.4777 0.239984,0.50756 0.334274,1.08301 0.26882,1.64061 -0.67164,2.74043 -1.864633,5.35211 -3.496281,7.65402 -2.915243,4.11278 -7.253007,7.19666 -12.095239,8.59895 -0.431887,-0.0879 -0.848928,-0.24832 -1.22842,-0.47247 -0.483421,-0.28553 -0.90519,-0.67486 -1.228424,-1.13393 5.226752,-1.05945 9.987203,-4.25625 12.945684,-8.69345 1.802483,-2.70341 2.946861,-5.84227 3.307292,-9.07143 z"
           style="fill:none;stroke:#000000;stroke-width:1.05833328;stroke-linecap:butt;stroke-linejoin:miter;stroke-miterlimit:4;stroke-dasharray:none;stroke-opacity:1" />
        <path
           style="opacity:1;vector-effect:none;fill:#a05a2c;fill-opacity:1;stroke:#000000;stroke-width:1.05047596;stroke-linecap:butt;stroke-linejoin:miter;stroke-miterlimit:4;stroke-dasharray:none;stroke-dashoffset:0;stroke-opacity:1"
           d="m 55.897916,233.68814 c -0.108302,0.56343 -0.604237,1.60875 -0.604237,1.60875 0,0 -6.631194,1.91278 -10.039628,1.9873 -3.649586,0.0798 -10.829782,-1.65608 -10.829782,-1.65608 0,0 -0.555494,-0.50567 -0.704144,-0.8417 -0.219828,-0.49692 -0.225451,-1.61876 -0.225451,-1.61876 0,0 7.819303,1.88656 11.759377,1.56145 3.708188,-0.30597 10.690345,-3.26483 10.690345,-3.26483 0,0 0.09339,1.49621 -0.04648,2.22387 z"
           id="path4640"
           inkscape:connector-curvature="0"
           sodipodi:nodetypes="acacacaca" />
        <path
           style="fill:#ffcc00;fill-opacity:1;stroke:#000000;stroke-width:0.52916664;stroke-linecap:butt;stroke-linejoin:miter;stroke-miterlimit:4;stroke-dasharray:none;stroke-opacity:1"
           d="m 51.583017,224.50312 -0.734991,1.43658 3.641548,2.40542 0.801809,-1.63702 z"
           id="path4679"
           inkscape:connector-curvature="0" />
        <rect
           style="opacity:1;vector-effect:none;fill:#ffcc00;fill-opacity:1;stroke:#000000;stroke-width:0.52916664;stroke-linecap:butt;stroke-linejoin:miter;stroke-miterlimit:4;stroke-dasharray:none;stroke-dashoffset:0;stroke-opacity:1"
           id="rect4681"
           width="2.8397388"
           height="2.7395124"
           x="45.034912"
           y="234.49231" />
        <path
           style="fill:none;stroke:#000000;stroke-width:0.26458332px;stroke-linecap:butt;stroke-linejoin:miter;stroke-opacity:1"
           d="m 46.872393,235.22731 h -1.202714 v 1.1693 h 1.236123"
           id="path4683"
           inkscape:connector-curvature="0"
           sodipodi:nodetypes="cccc" />
        <path
           style="fill:#fff6d5;fill-opacity:1;stroke:none;stroke-width:0.26458332px;stroke-linecap:butt;stroke-linejoin:miter;stroke-opacity:1"
           d="m 53.620947,225.70583 -2.639285,-0.10023 -0.233862,0.30068 0.801809,0.3675 3.073599,0.0668 z"
           id="path4764"
           inkscape:connector-curvature="0"
           sodipodi:nodetypes="cccccc" />
        <path
           inkscape:connector-curvature="0"
           id="path4766"
           d="m 51.583017,224.50312 -0.734991,1.43658 3.641548,2.40542 0.801809,-1.63702 z"
           style="fill:none;fill-opacity:1;stroke:#000000;stroke-width:0.52916664;stroke-linecap:butt;stroke-linejoin:miter;stroke-miterlimit:4;stroke-dasharray:none;stroke-opacity:1" />
      </g>
      <g
         id="g4793">
        <path
           style="fill:#a05a2c;fill-opacity:1;stroke:#000000;stroke-width:1.05833328;stroke-linecap:butt;stroke-linejoin:miter;stroke-miterlimit:4;stroke-dasharray:none;stroke-opacity:1"
           d="m 38.056877,231.1808 4.954608,1.57709 -3.475621,13.83542 -3.10587,3.29757 -1.478988,-3.94274 z"
           id="path4659"
           inkscape:connector-curvature="0" />
        <path
           style="fill:#8b4e26;fill-opacity:1;stroke:none;stroke-width:0.26458332px;stroke-linecap:butt;stroke-linejoin:miter;stroke-opacity:1"
           d="m 36.647209,250.12825 3.626822,-18.03663 -2.769572,-0.45416 -2.90146,14.20871 z"
           id="path4756"
           inkscape:connector-curvature="0"
           sodipodi:nodetypes="ccccc" />
        <path
           inkscape:connector-curvature="0"
           id="path4754"
           d="m 38.056877,231.1808 4.954608,1.57709 -3.475621,13.83542 -3.10587,3.29757 -1.478988,-3.94274 z"
           style="fill:none;fill-opacity:1;stroke:#000000;stroke-width:1.05833328;stroke-linecap:butt;stroke-linejoin:miter;stroke-miterlimit:4;stroke-dasharray:none;stroke-opacity:1" />
        <path
           style="fill:#d59367;fill-opacity:1;stroke:#000000;stroke-width:0.52916664;stroke-linecap:butt;stroke-linejoin:miter;stroke-miterlimit:4;stroke-dasharray:none;stroke-opacity:1"
           d="m 37.738972,230.27487 c -0.41422,0.0709 -1.017133,0.73391 -1.017133,0.73391 0,0 -1.219544,8.04104 -0.474287,11.96421 0.404049,2.127 2.621001,5.95728 2.621001,5.95728 0,0 0.649709,-0.64175 0.857248,-1.03809 0.302849,-0.57834 0.527537,-1.88152 0.527537,-1.88152 0,0 -2.081036,-2.58395 -2.423171,-4.14061 -0.809054,-3.68109 1.106388,-11.24593 1.106388,-11.24593 0,0 -0.787388,-0.41949 -1.197583,-0.34925 z"
           id="path4661"
           inkscape:connector-curvature="0"
           sodipodi:nodetypes="acacacaca" />
        <path
           style="opacity:1;vector-effect:none;fill:#d59367;fill-opacity:1;stroke:#000000;stroke-width:0.52916664;stroke-linecap:butt;stroke-linejoin:miter;stroke-miterlimit:4;stroke-dasharray:none;stroke-dashoffset:0;stroke-opacity:1"
           d="m 43.257745,234.63327 c 0,0 0.100531,1.01273 0.012,1.5077 -0.164207,0.91816 -0.552442,1.79496 -0.991234,2.62124 -0.744746,1.40241 -1.62114,2.77361 -2.751063,3.89955 -1.636337,1.63055 -5.688638,3.9913 -5.688638,3.9913 0,0 -0.541691,-0.55833 -0.606163,-0.91755 -0.07212,-0.40182 0.279767,-1.19279 0.279767,-1.19279 0,0 3.60755,-1.7653 5.035842,-3.11964 2.00526,-1.90142 4.709486,-6.78981 4.709486,-6.78981 z"
           id="path4663"
           inkscape:connector-curvature="0"
           sodipodi:nodetypes="caaacacac" />
      </g>
    </g>
    <g
       id="g4742"
       transform="matrix(1.0953895,0,0,1.0943045,-32.079944,35.426004)"
       style="stroke-width:0.91336972">
      <path
         style="fill:#87cdde;stroke:#000000;stroke-width:1.02466702;stroke-linecap:butt;stroke-linejoin:miter;stroke-miterlimit:4;stroke-dasharray:none;stroke-opacity:1;fill-opacity:1"
         d="m 45.154255,212.61813 c -2.563812,-0.0787 -5.426689,-1.01042 -7.131911,-3.00039 -2.261753,-2.63941 -3.678998,-6.83353 -2.70832,-10.22001 0.687368,-2.39806 3.14007,-4.15096 5.41664,-4.96937 2.990771,-1.07515 6.700998,-1.01198 9.479123,0.56258 1.796429,1.01815 3.176633,3.07984 3.611093,5.15688 0.70412,3.36622 0.20831,7.54326 -1.986101,10.12626 -1.555128,1.83051 -4.33106,2.41613 -6.680524,2.34405 z"
         id="path4687"
         inkscape:connector-curvature="0"
         sodipodi:nodetypes="aaaaaaaa" />
      <path
         inkscape:original-d="m 40.290882,194.36848 c 0,0 5.699477,2.06125 5.946746,4.54358 0.214326,2.15162 -4.09355,2.72314 -4.276313,4.87767 -0.223104,2.6301 2.038463,5.15498 4.142677,6.74855 1.107257,0.83855 4.009043,1.1359 4.009043,1.1359 0,0 -4.265658,1.26409 -6.34765,0.80181 -2.8533,-0.63354 -5.787168,-2.25086 -7.416729,-4.67722 -1.50054,-2.23425 -2.02152,-5.33189 -1.403167,-7.95127 0.395051,-1.67346 1.794718,-2.99333 3.073601,-4.14267 0.653451,-0.58726 2.271792,-1.33635 2.271792,-1.33635 z"
         inkscape:path-effect="#path-effect4691"
         sodipodi:nodetypes="caaacaaaac"
         inkscape:connector-curvature="0"
         id="path4689"
         d="m 40.290882,194.36848 c 0.655576,-0.57892 1.51537,-0.92177 2.389424,-0.9528 0.874055,-0.031 1.755992,0.25001 2.450963,0.781 0.694972,0.53099 1.197905,1.30806 1.397686,2.15954 0.199781,0.85149 0.09495,1.77116 -0.291327,2.55584 -0.481863,0.97885 -1.351916,1.69901 -2.184785,2.40375 -0.83287,0.70475 -1.681246,1.46298 -2.091528,2.47392 -0.275154,0.67798 -0.332174,1.43655 -0.202218,2.1566 0.129956,0.72006 0.442498,1.40169 0.869635,1.99577 0.854276,1.18815 2.136499,2.00524 3.47526,2.59618 1.274805,0.56271 2.628534,0.94627 4.009043,1.1359 -1.979831,0.86998 -4.213672,1.15215 -6.34765,0.80181 -2.962435,-0.48635 -5.700236,-2.21425 -7.416729,-4.67722 -0.798081,-1.14515 -1.382975,-2.44619 -1.64664,-3.81688 -0.263665,-1.37069 -0.200353,-2.81101 0.243473,-4.13439 0.554848,-1.65442 1.688763,-3.08099 3.073601,-4.14267 0.698983,-0.53587 1.463811,-0.98577 2.271792,-1.33635 z"
         style="fill:#37abc8;fill-opacity:1;stroke:none;stroke-width:0.2416624px;stroke-linecap:butt;stroke-linejoin:miter;stroke-opacity:1" />
      <path
         sodipodi:nodetypes="aaaaaaaa"
         inkscape:connector-curvature="0"
         id="path96"
         d="m 45.154255,212.61813 c -2.563812,-0.0787 -5.426689,-1.01042 -7.131911,-3.00039 -2.261753,-2.63941 -3.678998,-6.83353 -2.70832,-10.22001 0.687368,-2.39806 3.14007,-4.15096 5.41664,-4.96937 2.990771,-1.07515 6.700998,-1.01198 9.479123,0.56258 1.796429,1.01815 3.176633,3.07984 3.611093,5.15688 0.70412,3.36622 0.20831,7.54326 -1.986101,10.12626 -1.555128,1.83051 -4.33106,2.41613 -6.680524,2.34405 z"
         style="fill:none;stroke:#000000;stroke-width:1.02466702;stroke-linecap:butt;stroke-linejoin:miter;stroke-miterlimit:4;stroke-dasharray:none;stroke-opacity:1" />
      <path
         sodipodi:nodetypes="ccaaaaaccac"
         inkscape:connector-curvature="0"
         id="path4610"
         d="m 41.159507,195.14409 -0.06682,-7.21628 c 0,0 -0.875943,2.85073 -2.071338,3.47451 -1.385725,0.7231 -3.440982,0.62238 -4.677217,-0.33409 -1.654463,-1.28005 -2.712381,-3.97832 -2.00452,-5.94675 0.957889,-2.66371 4.385841,-4.51589 7.216275,-4.47676 2.427466,0.0336 4.697697,2.01357 6.080383,4.00904 1.027813,1.48332 1.202712,5.27857 1.202712,5.27857 l 0.200454,4.87767 c 0,0 -1.738529,0.79887 -2.672697,0.86863 -1.080814,0.0807 -3.207232,-0.53454 -3.207232,-0.53454 z"
         style="fill:#ab37c8;stroke:#000000;stroke-width:0.96664959;stroke-linecap:butt;stroke-linejoin:miter;stroke-miterlimit:4;stroke-dasharray:none;stroke-opacity:1" />
      <path
         inkscape:original-d="m 40.09043,197.34906 0.534537,-3.74177 c 0,0 2.91996,-0.70654 4.409948,-0.73499 1.055108,-0.0201 3.140416,0.4009 3.140416,0.4009 l 1.269532,3.40769"
         inkscape:path-effect="#path-effect4608"
         sodipodi:nodetypes="ccacc"
         inkscape:connector-curvature="0"
         id="path4606"
         d="m 40.09043,197.34906 0.534537,-3.74177 c 1.413653,-0.49425 2.912412,-0.74404 4.409948,-0.73499 1.057858,0.006 2.114879,0.14133 3.140416,0.4009 l 1.269532,3.40769"
         style="fill:#87cdde;fill-opacity:1;stroke:#000000;stroke-width:0.96664959;stroke-linecap:butt;stroke-linejoin:miter;stroke-miterlimit:4;stroke-dasharray:none;stroke-opacity:1" />
      <path
         style="fill:#87cdde;fill-opacity:1;stroke:none;stroke-width:0.72498721;stroke-linecap:butt;stroke-linejoin:miter;stroke-miterlimit:4;stroke-dasharray:none;stroke-opacity:1"
         d="m 34.160238,199.91941 c 1.154136,1.4696 3.073705,2.30144 4.935223,2.13867 1.122535,-0.0981 2.189431,-0.5291 3.197621,-1.03236 1.008189,-0.50326 1.979254,-1.08439 3.019919,-1.51652 2.974172,-1.235 6.468276,-1.15223 9.380632,0.22222 0.587933,1.60759 0.843105,3.33604 0.744785,5.04494 -0.07038,1.22326 -0.320674,2.43602 -0.740341,3.58719 -3.149578,0.89206 -6.473071,1.16559 -9.726116,0.80047 -2.163152,-0.24279 -4.297575,-0.76697 -6.3107,-1.59492 -1.586666,-0.65256 -3.09601,-1.49289 -4.486474,-2.49785 -0.370707,-0.92216 -0.540569,-1.92447 -0.494396,-2.91728 0.03555,-0.76448 0.198413,-1.52288 0.479847,-2.23456 z"
         id="path4705"
         inkscape:connector-curvature="0"
         sodipodi:nodetypes="caacacaacac"
         inkscape:path-effect="#path-effect4707"
         inkscape:original-d="m 34.160238,199.91941 c 0,0 3.142412,2.12086 4.935223,2.13867 2.239795,0.0222 4.014908,-2.14195 6.21754,-2.54888 3.075707,-0.56822 9.380632,0.22222 9.380632,0.22222 0,0 0.793187,3.34576 0.744785,5.04494 -0.03477,1.22044 -0.740341,3.58719 -0.740341,3.58719 0,0 -6.484238,1.06924 -9.726116,0.80047 -2.162289,-0.17927 -4.293987,-0.7946 -6.3107,-1.59492 -1.590954,-0.63135 -4.486474,-2.49785 -4.486474,-2.49785 0,0 -0.515921,-1.93122 -0.494396,-2.91728 0.01662,-0.76165 0.479847,-2.23456 0.479847,-2.23456 z" />
      <path
         inkscape:original-d="m 43.136531,200.80504 c 0,0 -1.093644,2.78303 -1.228421,4.25223 -0.102643,1.1189 0.33073,3.35454 0.33073,3.35454 l -7.984747,-3.3073 -0.614212,-3.07105 0.472469,-1.79539 3.071056,1.7009 h 3.165552 z"
         inkscape:path-effect="#path-effect4718"
         sodipodi:nodetypes="caccccccc"
         inkscape:connector-curvature="0"
         id="path4703"
         d="m 43.136531,200.80504 c -0.708897,1.30701 -1.131116,2.76854 -1.228421,4.25223 -0.07386,1.12622 0.03836,2.26443 0.33073,3.35454 l -7.984747,-3.3073 -0.614212,-3.07105 0.472469,-1.79539 3.071056,1.7009 h 3.165552 z"
         style="fill:#37abc8;fill-opacity:1;stroke:none;stroke-width:0.2416624px;stroke-linecap:butt;stroke-linejoin:miter;stroke-opacity:1" />
      <path
         inkscape:original-d="m 34.160238,199.91941 c 0,0 3.142412,2.12086 4.935223,2.13867 2.239795,0.0222 4.014908,-2.14195 6.21754,-2.54888 3.075707,-0.56822 9.380632,0.22222 9.380632,0.22222 0,0 0.793187,3.34576 0.744785,5.04494 -0.03477,1.22044 -0.740341,3.58719 -0.740341,3.58719 0,0 -6.484238,1.06924 -9.726116,0.80047 -2.162289,-0.17927 -4.293987,-0.7946 -6.3107,-1.59492 -1.590954,-0.63135 -4.486474,-2.49785 -4.486474,-2.49785 0,0 -0.515921,-1.93122 -0.494396,-2.91728 0.01662,-0.76165 0.479847,-2.23456 0.479847,-2.23456 z"
         inkscape:path-effect="#path-effect4614"
         sodipodi:nodetypes="caacacaacac"
         inkscape:connector-curvature="0"
         id="path4612"
         d="m 34.160238,199.91941 c 1.154136,1.4696 3.073705,2.30144 4.935223,2.13867 1.122535,-0.0981 2.189431,-0.5291 3.197621,-1.03236 1.008189,-0.50326 1.979254,-1.08439 3.019919,-1.51652 2.974172,-1.235 6.468276,-1.15223 9.380632,0.22222 0.587933,1.60759 0.843105,3.33604 0.744785,5.04494 -0.07038,1.22326 -0.320674,2.43602 -0.740341,3.58719 -3.149578,0.89206 -6.473071,1.16559 -9.726116,0.80047 -2.163152,-0.24279 -4.297575,-0.76697 -6.3107,-1.59492 -1.586666,-0.65256 -3.09601,-1.49289 -4.486474,-2.49785 -0.370707,-0.92216 -0.540569,-1.92447 -0.494396,-2.91728 0.03555,-0.76448 0.198413,-1.52288 0.479847,-2.23456 z"
         style="fill:none;fill-opacity:1;stroke:#000000;stroke-width:0.72498721;stroke-linecap:butt;stroke-linejoin:miter;stroke-miterlimit:4;stroke-dasharray:none;stroke-opacity:1" />
      <ellipse
         ry="1.3628614"
         rx="1.1290007"
         cy="203.86375"
         cx="36.014568"
         id="path4618"
         style="fill:#87cdde;fill-opacity:1;stroke:#000000;stroke-width:0.373862;stroke-miterlimit:4;stroke-dasharray:none;stroke-opacity:1" />
      <path
         inkscape:original-d="m 53.787991,200.68994 -2.873147,-0.46773 c 0,0 1.090496,2.76195 1.069078,4.2095 -0.01679,1.1349 -0.935443,3.27405 -0.935443,3.27405 l 2.539061,-0.66817 c 0,0 0.664061,-2.4299 0.668174,-3.67496 0.003,-0.90443 -0.467723,-2.67269 -0.467723,-2.67269 z"
         inkscape:path-effect="#path-effect4622"
         sodipodi:nodetypes="ccaccac"
         inkscape:connector-curvature="0"
         id="path4620"
         d="m 53.787991,200.68994 -2.873147,-0.46773 c 0.761434,1.25636 1.138753,2.74206 1.069078,4.2095 -0.05431,1.14388 -0.377245,2.27414 -0.935443,3.27405 l 2.539061,-0.66817 c 0.470497,-1.16219 0.699468,-2.42153 0.668174,-3.67496 -0.02266,-0.90748 -0.180853,-1.81145 -0.467723,-2.67269 z"
         style="fill:#000000;fill-opacity:1;stroke:none;stroke-width:0.2416624px;stroke-linecap:butt;stroke-linejoin:miter;stroke-opacity:1" />
      <path
         style="fill:#000000;fill-opacity:1;stroke:none;stroke-width:0.26470923px;stroke-linecap:butt;stroke-linejoin:miter;stroke-opacity:1"
         d="m 48.148119,200.68994 -3.447291,-0.46773 c 0.903258,1.19447 1.366377,2.7143 1.282713,4.2095 -0.06527,1.16647 -0.458263,2.31287 -1.122374,3.27405 l 3.046444,-0.66817 c 0.561791,-1.13498 0.839746,-2.40912 0.801696,-3.67496 -0.02749,-0.91468 -0.218468,-1.8242 -0.561188,-2.67269 z"
         id="path4624"
         inkscape:connector-curvature="0"
         sodipodi:nodetypes="ccaccac"
         inkscape:path-effect="#path-effect4626"
         inkscape:original-d="m 48.148119,200.68994 -3.447291,-0.46773 c 0,0 1.308411,2.76195 1.282713,4.2095 -0.02014,1.1349 -1.122374,3.27405 -1.122374,3.27405 l 3.046444,-0.66817 c 0,0 0.796761,-2.4299 0.801696,-3.67496 0.0036,-0.90443 -0.561188,-2.67269 -0.561188,-2.67269 z" />
      <path
         inkscape:connector-curvature="0"
         id="path4628"
         d="m 44.31787,197.61634 -0.868627,2.73951 5.278572,1.06908 0.400905,-1.87089 z"
         style="fill:#ab37c8;fill-opacity:1;stroke:#000000;stroke-width:0.72498721;stroke-linecap:butt;stroke-linejoin:miter;stroke-miterlimit:4;stroke-dasharray:none;stroke-opacity:1" />
      <path
         style="fill:#ab37c8;fill-opacity:1;stroke:#000000;stroke-width:0.64154691;stroke-linecap:butt;stroke-linejoin:miter;stroke-miterlimit:4;stroke-dasharray:none;stroke-opacity:1"
         d="m 54.222024,197.5609 0.660641,2.82057 -4.014662,1.10071 -0.304912,-1.92625 z"
         id="path4630"
         inkscape:connector-curvature="0" />
      <path
         inkscape:original-d="m 43.832203,193.23258 c 0,0 0.538437,-2.9961 0.133633,-4.40994 -0.397875,-1.38965 -1.097534,-2.99265 -2.405426,-3.60815 -1.175077,-0.55299 -3.875407,0.40091 -3.875407,0.40091 0,0 1.499908,1.8651 1.135896,2.80633 -0.46353,1.19855 -2.265435,2.10579 -3.474506,1.67043 -1.453339,-0.52332 -2.174112,-2.683 -1.937702,-4.20949 0.258188,-1.66711 1.80962,-3.20131 3.407685,-3.74177 1.651221,-0.55844 3.706817,-0.0496 5.144937,0.93544 0.953076,0.65279 2.064573,2.27589 2.614194,3.33656 0.4445,0.85781 0.382812,1.11659 0.65986,2.00883 0.502654,1.6188 0.267269,5.07812 0.267269,5.07812 z"
         inkscape:path-effect="#path-effect4722;#path-effect4724"
         sodipodi:nodetypes="caacaaaassscc"
         inkscape:connector-curvature="0"
         id="path4720"
         d="m 43.832203,193.23258 c 0.403145,-1.42966 0.449473,-2.95849 0.133633,-4.40994 -0.158786,-0.72971 -0.41025,-1.44499 -0.804825,-2.07902 -0.394575,-0.63403 -0.937753,-1.18515 -1.600601,-1.52913 -0.610206,-0.31666 -1.313887,-0.45039 -1.997715,-0.37964 -0.683827,0.0707 -1.345231,0.34568 -1.877692,0.78055 0.470077,0.27239 0.845527,0.7047 1.049366,1.20831 0.20384,0.5036 0.234799,1.07535 0.08653,1.59802 -0.197158,0.69501 -0.712862,1.28936 -1.366306,1.59745 -0.653444,0.30809 -1.432817,0.32943 -2.1082,0.073 -0.786441,-0.29862 -1.412114,-0.95797 -1.740245,-1.73256 -0.328131,-0.7746 -0.371478,-1.6539 -0.197457,-2.47693 0.182851,-0.86479 0.602263,-1.67789 1.198309,-2.3306 0.596045,-0.65271 1.366915,-1.14366 2.209376,-1.41117 0.861438,-0.27354 1.792294,-0.31328 2.679773,-0.14217 0.887479,0.17112 1.731011,0.55043 2.465164,1.07761 1.16145,0.83401 2.03909,2.02744 2.614194,3.33656 0.283871,0.64618 0.497609,1.32195 0.65986,2.00883 0.391767,1.65853 0.482772,3.38763 0.267269,5.07812 z"
         style="fill:#8e2da6;fill-opacity:1;stroke:none;stroke-width:0.2416624px;stroke-linecap:butt;stroke-linejoin:miter;stroke-opacity:1" />
      <path
         style="fill:#37abc8;fill-opacity:1;stroke:none;stroke-width:0.96664959;stroke-linecap:butt;stroke-linejoin:miter;stroke-miterlimit:4;stroke-dasharray:none;stroke-opacity:1"
         d="m 40.09043,197.34906 0.534537,-3.74177 c 1.027873,-0.39048 2.107493,-0.64449 3.201642,-0.75328 0.878968,-0.0874 1.767206,-0.0812 2.64488,0.0183 l 0.835218,4.12597"
         id="path4697"
         inkscape:connector-curvature="0"
         sodipodi:nodetypes="ccacc"
         inkscape:path-effect="#path-effect4699"
         inkscape:original-d="m 40.09043,197.34906 0.534537,-3.74177 c 0,0 2.112166,-0.63066 3.201642,-0.75328 0.876116,-0.0986 2.64488,0.0183 2.64488,0.0183 l 0.835218,4.12597" />
      <path
         style="fill:none;fill-opacity:1;stroke:#000000;stroke-width:0.96664959;stroke-linecap:butt;stroke-linejoin:miter;stroke-miterlimit:4;stroke-dasharray:none;stroke-opacity:1"
         d="m 40.09043,197.34906 0.534537,-3.74177 c 1.413653,-0.49425 2.912412,-0.74404 4.409948,-0.73499 1.057858,0.006 2.114879,0.14133 3.140416,0.4009 l 1.269532,3.40769"
         id="path4693"
         inkscape:connector-curvature="0"
         sodipodi:nodetypes="ccacc"
         inkscape:path-effect="#path-effect4695"
         inkscape:original-d="m 40.09043,197.34906 0.534537,-3.74177 c 0,0 2.91996,-0.70654 4.409948,-0.73499 1.055108,-0.0201 3.140416,0.4009 3.140416,0.4009 l 1.269532,3.40769" />
    </g>
    <g
       id="g4853"
       transform="matrix(0.7970816,0,0,0.80203695,-3.9814542,96.227558)"
       style="stroke-width:1.25069499">
      <path
         sodipodi:nodetypes="ccccccc"
         inkscape:connector-curvature="0"
         id="path4844"
         d="m 16.83798,224.4363 -2.80633,4.67722 3.0736,6.5481 2.53906,0.4009 3.741773,-5.74629 -2.138156,-2.93997 z"
         style="fill:#87cdde;fill-opacity:1;stroke:#000000;stroke-width:1.32365215;stroke-linecap:butt;stroke-linejoin:miter;stroke-miterlimit:4;stroke-dasharray:none;stroke-opacity:1" />
      <path
         inkscape:connector-curvature="0"
         id="path4846"
         d="m 16.34747,229.43673 1.700893,3.30729 1.511904,0.75596"
         style="fill:none;stroke:#000000;stroke-width:0.33091304px;stroke-linecap:butt;stroke-linejoin:miter;stroke-opacity:1" />
      <path
         inkscape:connector-curvature="0"
         id="path4848"
         d="m 18.237351,228.01932 1.228422,2.07887 1.700893,1.32292"
         style="fill:none;stroke:#000000;stroke-width:0.33091304px;stroke-linecap:butt;stroke-linejoin:miter;stroke-opacity:1" />
    </g>
  </g>
</svg>
