<?xml version="1.0" encoding="UTF-8" standalone="no"?>
<!-- Created with Inkscape (http://www.inkscape.org/) -->

<svg
   xmlns:dc="http://purl.org/dc/elements/1.1/"
   xmlns:cc="http://creativecommons.org/ns#"
   xmlns:rdf="http://www.w3.org/1999/02/22-rdf-syntax-ns#"
   xmlns:svg="http://www.w3.org/2000/svg"
   xmlns="http://www.w3.org/2000/svg"
   xmlns:sodipodi="http://sodipodi.sourceforge.net/DTD/sodipodi-0.dtd"
   xmlns:inkscape="http://www.inkscape.org/namespaces/inkscape"
   width="128"
   height="256"
   viewBox="0 0 33.866665 67.733335"
   version="1.1"
   id="svg4596"
   inkscape:version="0.92.3 (2405546, 2018-03-11)"
   sodipodi:docname="WeakWizard.svg"
   inkscape:export-filename="E:\School\WEB-151\Git\Final\sneaksy\Resources\WeakWizard\WeakWizard.png"
   inkscape:export-xdpi="48"
   inkscape:export-ydpi="48">
  <defs
     id="defs4590">
    <inkscape:path-effect
       is_visible="true"
       id="path-effect1026"
       effect="spiro" />
    <inkscape:path-effect
       is_visible="true"
       id="path-effect1020"
       effect="spiro" />
    <inkscape:path-effect
       is_visible="true"
       id="path-effect1014"
       effect="spiro" />
    <inkscape:path-effect
       is_visible="true"
       id="path-effect1010"
       effect="spiro" />
    <inkscape:path-effect
       effect="spiro"
       id="path-effect1006"
       is_visible="true" />
    <inkscape:path-effect
       effect="spiro"
       id="path-effect968"
       is_visible="true" />
    <inkscape:path-effect
       effect="spiro"
       id="path-effect964"
       is_visible="true" />
    <inkscape:path-effect
       effect="spiro"
       id="path-effect943"
       is_visible="true" />
    <inkscape:path-effect
       effect="spiro"
       id="path-effect935"
       is_visible="true" />
    <inkscape:path-effect
       effect="spiro"
       id="path-effect931"
       is_visible="true" />
    <inkscape:path-effect
       effect="spiro"
       id="path-effect927"
       is_visible="true" />
    <inkscape:path-effect
       is_visible="true"
       id="path-effect4822"
       effect="spiro" />
    <inkscape:path-effect
       effect="spiro"
       id="path-effect4818"
       is_visible="true" />
    <inkscape:path-effect
       is_visible="true"
       id="path-effect4762"
       effect="spiro" />
    <inkscape:path-effect
       effect="spiro"
       id="path-effect4750"
       is_visible="true" />
    <inkscape:path-effect
       is_visible="true"
       id="path-effect4746"
       effect="spiro" />
    <inkscape:path-effect
       effect="spiro"
       id="path-effect4724"
       is_visible="true" />
    <inkscape:path-effect
       effect="spiro"
       id="path-effect4722"
       is_visible="true" />
    <inkscape:path-effect
       effect="spiro"
       id="path-effect4718"
       is_visible="true" />
    <inkscape:path-effect
       is_visible="true"
       id="path-effect4707"
       effect="spiro" />
    <inkscape:path-effect
       is_visible="true"
       id="path-effect4699"
       effect="spiro" />
    <inkscape:path-effect
       is_visible="true"
       id="path-effect4695"
       effect="spiro" />
    <inkscape:path-effect
       effect="spiro"
       id="path-effect4691"
       is_visible="true" />
    <inkscape:path-effect
       effect="spiro"
       id="path-effect4638"
       is_visible="true" />
    <inkscape:path-effect
       effect="spiro"
       id="path-effect4634"
       is_visible="true" />
    <inkscape:path-effect
       is_visible="true"
       id="path-effect4626"
       effect="spiro" />
    <inkscape:path-effect
       effect="spiro"
       id="path-effect4622"
       is_visible="true" />
    <inkscape:path-effect
       effect="spiro"
       id="path-effect4614"
       is_visible="true" />
    <inkscape:path-effect
       effect="spiro"
       id="path-effect4608"
       is_visible="true" />
    <inkscape:path-effect
       effect="spiro"
       id="path-effect5513"
       is_visible="true" />
    <inkscape:path-effect
       is_visible="true"
       id="path-effect5509"
       effect="spiro" />
    <inkscape:path-effect
       effect="spiro"
       id="path-effect5417"
       is_visible="true" />
    <inkscape:path-effect
       effect="spiro"
       id="path-effect5349"
       is_visible="true" />
    <inkscape:path-effect
       is_visible="true"
       id="path-effect5328"
       effect="spiro" />
    <inkscape:path-effect
       is_visible="true"
       id="path-effect5324"
       effect="spiro" />
    <inkscape:path-effect
       effect="spiro"
       id="path-effect5320"
       is_visible="true" />
    <inkscape:path-effect
       effect="spiro"
       id="path-effect5314"
       is_visible="true" />
    <inkscape:path-effect
       is_visible="true"
       id="path-effect5312"
       effect="spiro" />
    <inkscape:path-effect
       effect="spiro"
       id="path-effect5306"
       is_visible="true" />
    <inkscape:path-effect
       is_visible="true"
       id="path-effect5255"
       effect="spiro" />
    <inkscape:path-effect
       effect="spiro"
       id="path-effect5249"
       is_visible="true" />
    <inkscape:path-effect
       effect="spiro"
       id="path-effect5212"
       is_visible="true" />
    <inkscape:path-effect
       effect="spiro"
       id="path-effect5208"
       is_visible="true" />
    <inkscape:path-effect
       effect="spiro"
       id="path-effect5204"
       is_visible="true" />
    <inkscape:path-effect
       effect="spiro"
       id="path-effect5196"
       is_visible="true" />
    <inkscape:path-effect
       is_visible="true"
       id="path-effect5192"
       effect="spiro" />
    <inkscape:path-effect
       is_visible="true"
       id="path-effect5188"
       effect="spiro" />
    <inkscape:path-effect
       is_visible="true"
       id="path-effect5182"
       effect="spiro" />
    <inkscape:path-effect
       effect="spiro"
       id="path-effect5178"
       is_visible="true" />
    <inkscape:path-effect
       is_visible="true"
       id="path-effect5174"
       effect="spiro" />
    <inkscape:path-effect
       effect="spiro"
       id="path-effect5170"
       is_visible="true" />
    <inkscape:path-effect
       effect="spiro"
       id="path-effect5163"
       is_visible="true" />
    <inkscape:path-effect
       is_visible="true"
       id="path-effect5159"
       effect="spiro" />
    <inkscape:path-effect
       effect="spiro"
       id="path-effect5155"
       is_visible="true" />
    <inkscape:path-effect
       is_visible="true"
       id="path-effect5151"
       effect="spiro" />
    <inkscape:path-effect
       effect="spiro"
       id="path-effect5147"
       is_visible="true" />
    <inkscape:path-effect
       effect="spiro"
       id="path-effect5143"
       is_visible="true" />
    <inkscape:path-effect
       effect="spiro"
       id="path-effect5208-8"
       is_visible="true" />
    <inkscape:path-effect
       is_visible="true"
       id="path-effect5509-7"
       effect="spiro" />
    <inkscape:path-effect
       effect="spiro"
       id="path-effect4638-0"
       is_visible="true" />
    <inkscape:path-effect
       effect="spiro"
       id="path-effect935-0"
       is_visible="true" />
    <inkscape:path-effect
       effect="spiro"
       id="path-effect931-4"
       is_visible="true" />
    <inkscape:path-effect
       effect="spiro"
       id="path-effect968-5"
       is_visible="true" />
  </defs>
  <sodipodi:namedview
     id="base"
     pagecolor="#ffffff"
     bordercolor="#666666"
     borderopacity="1.0"
     inkscape:pageopacity="0.0"
     inkscape:pageshadow="2"
     inkscape:zoom="1.979899"
     inkscape:cx="17.1683"
     inkscape:cy="65.73084"
     inkscape:document-units="px"
     inkscape:current-layer="layer1"
     showgrid="false"
     units="px"
     inkscape:snap-global="false"
     inkscape:window-width="1920"
     inkscape:window-height="1017"
     inkscape:window-x="-8"
     inkscape:window-y="-8"
     inkscape:window-maximized="1"
     showguides="true" />
  <metadata
     id="metadata4593">
    <rdf:RDF>
      <cc:Work
         rdf:about="">
        <dc:format>image/svg+xml</dc:format>
        <dc:type
           rdf:resource="http://purl.org/dc/dcmitype/StillImage" />
        <dc:title />
      </cc:Work>
    </rdf:RDF>
  </metadata>
  <g
     inkscape:label="Layer 1"
     inkscape:groupmode="layer"
     id="layer1"
     transform="translate(0,-229.26664)">
    <g
       id="g1052"
       transform="matrix(0.97606009,0,0,0.97647142,-33.037605,6.717818)"
       style="stroke-width:1.0243113">
      <path
         style="fill:#0066ff;fill-opacity:1;stroke:#000000;stroke-width:1.0840627;stroke-linecap:butt;stroke-linejoin:miter;stroke-miterlimit:4;stroke-dasharray:none;stroke-opacity:1"
         d="m 65.011903,275.83331 c -0.757747,-0.23415 -1.706946,-0.16312 -2.36235,0.28348 -0.768639,0.52376 -1.334638,1.52679 -1.322917,2.45684 0.0192,1.52355 0.801448,3.55497 2.267857,3.96875 1.07177,0.30243 2.122408,-0.83889 2.929316,-1.60639 0.696751,-0.66272 1.655752,-1.50608 1.511904,-2.45685 -0.200352,-1.32424 -1.744197,-2.25042 -3.02381,-2.64583 z"
         id="path1032"
         inkscape:connector-curvature="0"
         sodipodi:nodetypes="aaaaaaa" />
      <path
         style="opacity:1;vector-effect:none;fill:#0066ff;fill-opacity:1;stroke:#000000;stroke-width:1.0840627;stroke-linecap:butt;stroke-linejoin:miter;stroke-miterlimit:4;stroke-dasharray:none;stroke-dashoffset:0;stroke-opacity:1"
         d="m 54.050595,288.40102 -0.0945,5.76414 10.110864,1.41741 c 1.473881,-0.7361 2.537155,-2.23935 2.740327,-3.87425 0.139346,-1.1213 -0.124342,-2.30882 -0.818975,-3.20001 -0.347316,-0.4456 -0.797492,-0.81271 -1.310384,-1.04962 -0.512892,-0.23691 -1.088189,-0.34177 -1.650402,-0.28609 -0.565407,0.056 -1.113739,0.27493 -1.562228,0.62376 -0.448488,0.34882 -0.79566,0.82639 -0.989112,1.36062 0.288742,-0.10081 0.605682,-0.1194 0.904233,-0.0531 0.298551,0.0663 0.577785,0.21742 0.796659,0.43103 0.298353,0.29117 0.480124,0.69864 0.497479,1.11517 0.01735,0.41653 -0.129892,0.83771 -0.402989,1.15269 l -4.063243,-1.13393 0.09449,-2.26786 -2.173362,-1.13393 z"
         id="path1008"
         inkscape:connector-curvature="0"
         sodipodi:nodetypes="cccaacaccccc"
         inkscape:path-effect="#path-effect1010"
         inkscape:original-d="m 54.050595,288.40102 -0.0945,5.76414 10.110864,1.41741 c 0,0 2.802885,-2.29367 2.740327,-3.87425 -0.07783,-1.96652 -1.823063,-4.32455 -3.779761,-4.53572 -1.071179,-0.11561 -2.55134,1.98438 -2.55134,1.98438 0,0 1.328119,-0.0674 1.700892,0.37797 0.485616,0.5802 0.09449,2.26786 0.09449,2.26786 l -4.063243,-1.13393 0.09449,-2.26786 -2.173362,-1.13393 z" />
      <path
         style="opacity:1;vector-effect:none;fill:#0066ff;fill-opacity:1;stroke:#000000;stroke-width:1.0840627;stroke-linecap:butt;stroke-linejoin:miter;stroke-miterlimit:4;stroke-dasharray:none;stroke-dashoffset:0;stroke-opacity:1"
         d="m 46.491072,266.57289 c -1.510884,2.8866 -2.716662,5.93278 -3.590774,9.07143 -1.103935,3.96387 -1.677591,8.07507 -1.700893,12.18973 2.221686,1.27882 4.610823,2.26633 7.087053,2.92932 4.129603,1.10566 8.663383,1.2689 12.567707,-0.47247 1.885548,-0.84098 3.578403,-2.11062 4.913692,-3.68527 -0.616258,-4.76437 -1.858686,-9.44737 -3.685268,-13.89063 -1.158241,-2.81748 -2.550503,-5.53872 -4.157739,-8.12649 l -6.331101,-1.03943 z"
         id="path1012"
         inkscape:connector-curvature="0"
         sodipodi:nodetypes="cacsscaccc"
         inkscape:path-effect="#path-effect1014"
         inkscape:original-d="m 46.491072,266.57289 c 0,0 -2.761723,5.9268 -3.590774,9.07143 -1.045875,3.96706 -1.700893,12.18973 -1.700893,12.18973 0,0 8.12437,6.32723 7.087053,2.92932 -0.40056,-1.31211 8.871696,1.281 12.567707,-0.47247 0.867382,-0.41151 4.913692,-3.68527 4.913692,-3.68527 0,0 -1.970334,-9.41773 -3.685268,-13.89063 -1.089299,-2.84112 -4.157739,-8.12649 -4.157739,-8.12649 l -6.331101,-1.03943 z" />
      <path
         sodipodi:nodetypes="cacccccc"
         inkscape:connector-curvature="0"
         id="path1016"
         d="m 51.782739,266.76188 c 0,0 -0.463668,11.53448 -0.18899,17.29241 0.113205,2.37305 0.755952,7.08705 0.755952,7.08705 l -5.38616,-0.75595 -5.953125,-3.1183 0.944941,-9.26042 4.157737,-11.52827 z"
         style="fill:#004fd7;fill-opacity:1;stroke:none;stroke-width:0.27101567px;stroke-linecap:butt;stroke-linejoin:miter;stroke-opacity:1" />
      <path
         inkscape:original-d="m 46.491072,266.57289 c 0,0 -2.761723,5.9268 -3.590774,9.07143 -1.045875,3.96706 -1.700893,12.18973 -1.700893,12.18973 0,0 8.12437,6.32723 7.087053,2.92932 -0.40056,-1.31211 8.871696,1.281 12.567707,-0.47247 0.867382,-0.41151 4.913692,-3.68527 4.913692,-3.68527 0,0 -1.970334,-9.41773 -3.685268,-13.89063 -1.089299,-2.84112 -4.157739,-8.12649 -4.157739,-8.12649 l -6.331101,-1.03943 z"
         inkscape:path-effect="#path-effect968"
         sodipodi:nodetypes="cacsscaccc"
         inkscape:connector-curvature="0"
         id="path966"
         d="m 46.491072,266.57289 c -1.510884,2.8866 -2.716662,5.93278 -3.590774,9.07143 -1.103935,3.96387 -1.677591,8.07507 -1.700893,12.18973 2.221686,1.27882 4.610823,2.26633 7.087053,2.92932 4.129603,1.10566 8.663383,1.2689 12.567707,-0.47247 1.885548,-0.84098 3.578403,-2.11062 4.913692,-3.68527 -0.616258,-4.76437 -1.858686,-9.44737 -3.685268,-13.89063 -1.158241,-2.81748 -2.550503,-5.53872 -4.157739,-8.12649 l -6.331101,-1.03943 z"
         style="opacity:1;vector-effect:none;fill:none;fill-opacity:1;stroke:#000000;stroke-width:1.0840627;stroke-linecap:butt;stroke-linejoin:miter;stroke-miterlimit:4;stroke-dasharray:none;stroke-dashoffset:0;stroke-opacity:1" />
      <path
         inkscape:original-d="m 40.537946,253.34372 c 0,0 -0.966636,4.67228 -0.188988,6.80358 1.055297,2.89225 3.309532,5.69173 6.142113,6.89806 3.045048,1.29682 6.813299,0.75816 9.921875,-0.37798 1.538653,-0.56236 2.972326,-1.65625 3.874256,-3.02381 1.291339,-1.958 1.740373,-4.45872 1.795386,-6.80357 0.06347,-2.70515 -1.700893,-7.9375 -1.700893,-7.9375 z"
         inkscape:path-effect="#path-effect935"
         sodipodi:nodetypes="caaaaacc"
         inkscape:connector-curvature="0"
         id="path933"
         d="m 40.537946,253.34372 c -0.777721,2.17191 -0.844941,4.59184 -0.188988,6.80358 0.904423,3.04952 3.213255,5.65735 6.142113,6.89806 3.138615,1.32957 6.833607,1.06468 9.921875,-0.37798 1.50008,-0.70075 2.897367,-1.68703 3.874256,-3.02381 1.40855,-1.92746 1.829449,-4.41653 1.795386,-6.80357 -0.03886,-2.72317 -0.620504,-5.43751 -1.700893,-7.9375 z"
         style="fill:#e0c98f;fill-opacity:1;stroke:#000000;stroke-width:1.0840627;stroke-linecap:butt;stroke-linejoin:miter;stroke-miterlimit:4;stroke-dasharray:none;stroke-opacity:1" />
      <path
         inkscape:original-d="m 39.49851,251.64283 c 0,0 -1.614737,4.36832 -1.41741,6.61458 0.175567,1.99856 0.971196,4.04423 2.267858,5.57515 0.932231,1.10065 3.685266,2.26786 3.685266,2.26786 0,0 -0.618098,-3.82257 10e-7,-5.57515 0.484293,-1.37318 1.414091,-2.80073 2.740327,-3.40179 1.378276,-0.62464 3.035837,0.38947 4.535715,0.18899 4.127232,-0.55167 11.90625,-3.77976 11.90625,-3.77976 l -1.511904,-3.40178 -8.693454,-1.13393 z"
         inkscape:path-effect="#path-effect964"
         sodipodi:nodetypes="caacaaacccc"
         inkscape:connector-curvature="0"
         id="path962"
         d="m 39.49851,251.64283 c -1.102976,2.00379 -1.602473,4.33478 -1.41741,6.61458 0.165276,2.03605 0.895535,4.06203 2.267858,5.57515 0.982012,1.08276 2.276141,1.87915 3.685266,2.26786 -0.549972,-1.80381 -0.549971,-3.77134 10e-7,-5.57515 0.219998,-0.72155 0.529184,-1.4227 0.981214,-2.02661 0.452031,-0.60391 1.053646,-1.10806 1.759113,-1.37518 0.717105,-0.27153 1.507551,-0.28889 2.269531,-0.20315 0.76198,0.0858 1.509132,0.27033 2.266184,0.39214 4.264336,0.68614 8.818509,-0.75963 11.90625,-3.77976 l -1.511904,-3.40178 -8.693454,-1.13393 z"
         style="fill:#c87137;stroke:#28170b;stroke-width:1.0840627;stroke-linecap:butt;stroke-linejoin:miter;stroke-miterlimit:4;stroke-dasharray:none;stroke-opacity:1" />
      <path
         inkscape:original-d="m 48.191964,245.97319 c -5.410909,1.42041 -13.087933,1.86076 -13.323661,7.65401 0,0 5.323954,1.27628 8.031994,1.22842 6.602819,-0.11669 13.444975,-0.97218 19.465775,-3.68526 1.780691,-0.80241 4.630208,-3.59078 4.630208,-3.59078 -6.094283,-3.17758 -13.393408,-3.02681 -18.804316,-1.60639 z"
         inkscape:path-effect="#path-effect927"
         sodipodi:nodetypes="zcaacz"
         inkscape:connector-curvature="0"
         id="path925"
         d="m 48.191964,245.97319 c -5.023858,1.28364 -9.684046,3.96076 -13.323661,7.65401 2.642134,0.60689 5.329246,1.01786 8.031994,1.22842 6.688952,0.52112 13.692053,-0.26798 19.465775,-3.68526 1.685198,-0.99741 3.244749,-2.20686 4.630208,-3.59078 -5.851737,-2.61741 -12.593416,-3.19333 -18.804316,-1.60639 z"
         style="fill:#0066ff;stroke:#000000;stroke-width:1.0840627;stroke-linecap:butt;stroke-linejoin:miter;stroke-miterlimit:4;stroke-dasharray:none;stroke-opacity:1" />
      <path
         sodipodi:nodetypes="ccccccccacc"
         inkscape:connector-curvature="0"
         id="path1028"
         d="m 47.058034,245.97319 -0.850445,0.18899 -5.386162,2.36235 -5.575147,4.25223 -0.472471,0.56696 5.291666,1.03944 7.748514,0.18899 5.19717,-0.47247 c 0,0 -3.660673,-0.2903 -4.819195,-1.51191 -0.872651,-0.92017 -0.94494,-3.68527 -0.94494,-3.68527 z"
         style="fill:#004fd7;fill-opacity:1;stroke:none;stroke-width:0.27101567px;stroke-linecap:butt;stroke-linejoin:miter;stroke-opacity:1" />
      <path
         style="fill:none;stroke:#000000;stroke-width:1.0840627;stroke-linecap:butt;stroke-linejoin:miter;stroke-miterlimit:4;stroke-dasharray:none;stroke-opacity:1"
         d="m 48.191964,245.97319 c -5.023858,1.28364 -9.684046,3.96076 -13.323661,7.65401 2.642134,0.60689 5.329246,1.01786 8.031994,1.22842 6.688952,0.52112 13.692053,-0.26798 19.465775,-3.68526 1.685198,-0.99741 3.244749,-2.20686 4.630208,-3.59078 -5.851737,-2.61741 -12.593416,-3.19333 -18.804316,-1.60639 z"
         id="path1024"
         inkscape:connector-curvature="0"
         sodipodi:nodetypes="zcaacz"
         inkscape:path-effect="#path-effect1026"
         inkscape:original-d="m 48.191964,245.97319 c -5.410909,1.42041 -13.087933,1.86076 -13.323661,7.65401 0,0 5.323954,1.27628 8.031994,1.22842 6.602819,-0.11669 13.444975,-0.97218 19.465775,-3.68526 1.780691,-0.80241 4.630208,-3.59078 4.630208,-3.59078 -6.094283,-3.17758 -13.393408,-3.02681 -18.804316,-1.60639 z" />
      <path
         inkscape:original-d="m 44.677085,251.1643 c 0,0 1.186543,-5.1928 0.210426,-7.55449 -0.690866,-1.67152 -2.375747,-2.93737 -3.998096,-3.9661 -1.489466,-0.94447 -4.302513,-0.39573 -5.050227,-1.88863 -0.486556,-0.97148 0.153409,-2.45384 1.157344,-3.02179 3.882572,-2.19646 9.603806,-0.48042 13.677698,1.41647 2.711978,1.26274 4.544813,3.77899 6.102357,6.13801 1.442023,2.18406 2.840752,7.17677 2.840752,7.17677"
         inkscape:path-effect="#path-effect931"
         sodipodi:nodetypes="caaaaaac"
         inkscape:connector-curvature="0"
         id="path929"
         d="m 44.677085,251.1643 c 1.080008,-2.35241 1.157811,-5.14561 0.210426,-7.55449 -0.356718,-0.90702 -0.856504,-1.76548 -1.529483,-2.47048 -0.672979,-0.70499 -1.524889,-1.25208 -2.468613,-1.49562 -0.916157,-0.23642 -1.882646,-0.18339 -2.8134,-0.35349 -0.465377,-0.0851 -0.925671,-0.22834 -1.32717,-0.47856 -0.401498,-0.25022 -0.742121,-0.61415 -0.909657,-1.05658 -0.203543,-0.53751 -0.135681,-1.15295 0.09932,-1.67747 0.235001,-0.52453 0.624806,-0.9666 1.058024,-1.34432 0.933624,-0.81402 2.088701,-1.35915 3.298118,-1.62673 1.209416,-0.26758 2.471728,-0.2627 3.692158,-0.051 2.44086,0.42349 4.673284,1.65179 6.687422,3.09415 2.358865,1.68922 4.504115,3.71658 6.102357,6.13801 1.427416,2.16262 2.401328,4.62308 2.840752,7.17677"
         style="fill:#0066ff;stroke:#000000;stroke-width:1.0840627;stroke-linecap:butt;stroke-linejoin:miter;stroke-miterlimit:4;stroke-dasharray:none;stroke-opacity:1" />
      <path
         sodipodi:nodetypes="aaaaccaaaaaa"
         inkscape:connector-curvature="0"
         id="path1022"
         d="m 36.002232,235.76783 c 0.509049,-0.68923 1.60005,-0.7473 2.456844,-0.75595 1.605081,-0.0162 3.314677,0.40317 4.630208,1.32291 2.106699,1.47288 3.58889,3.84682 4.535715,6.23661 1.110947,2.80403 1.133929,8.97693 1.133929,8.97693 h -4.063243 c 0,0 1.29459,-3.70204 1.039433,-5.57514 -0.22246,-1.63308 -1.200548,-3.11078 -2.173362,-4.44122 -0.591723,-0.80925 -1.242962,-1.70554 -2.173364,-2.07887 -0.70158,-0.28151 -1.520071,0.11081 -2.267858,0 -1.074378,-0.15921 -2.471181,-0.0727 -3.118302,-0.94494 -0.544244,-0.73361 -0.542679,-2.00557 0,-2.74033 z"
         style="fill:#004fd7;fill-opacity:1;stroke:none;stroke-width:0.27101567px;stroke-linecap:butt;stroke-linejoin:miter;stroke-opacity:1" />
      <path
         inkscape:connector-curvature="0"
         id="path937"
         d="m 50.554313,257.50146 5.57515,-1.79538 0.188989,6.70907 -2.645833,1.51191 z"
         style="fill:#f2f2f2;stroke:#000000;stroke-width:1.0840627;stroke-linecap:butt;stroke-linejoin:miter;stroke-miterlimit:4;stroke-dasharray:none;stroke-opacity:1" />
      <path
         style="fill:#f2f2f2;stroke:#000000;stroke-width:0.91476458;stroke-linecap:butt;stroke-linejoin:miter;stroke-miterlimit:4;stroke-dasharray:none;stroke-opacity:1"
         d="m 57.508557,255.21877 4.704478,-1.51499 0.159475,5.66131 -2.232633,1.2758 z"
         id="path939"
         inkscape:connector-curvature="0" />
      <path
         inkscape:original-d="m 58.302826,258.82438 c 0,0 3.053748,1.82032 2.740329,3.1183 -0.313419,1.29798 -3.590774,1.41741 -3.590774,1.41741"
         inkscape:path-effect="#path-effect943"
         sodipodi:nodetypes="czc"
         inkscape:connector-curvature="0"
         id="path941"
         d="m 58.302826,258.82438 c 0.407273,-0.0656 0.831006,-0.0262 1.219207,0.11336 0.388202,0.13954 0.740043,0.37893 1.012354,0.6888 0.272311,0.30987 0.46451,0.68956 0.553015,1.09247 0.08851,0.40292 0.07313,0.8282 -0.04425,1.22367 -0.210758,0.71011 -0.76129,1.31102 -1.450277,1.58298 -0.688988,0.27197 -1.50153,0.20912 -2.140497,-0.16557"
         style="opacity:1;vector-effect:none;fill:#e0c98f;fill-opacity:1;stroke:#000000;stroke-width:1.0840627;stroke-linecap:butt;stroke-linejoin:miter;stroke-miterlimit:4;stroke-dasharray:none;stroke-dashoffset:0;stroke-opacity:1" />
      <path
         inkscape:original-d="m 45.546132,289.53494 -0.0945,5.76414 10.110864,1.41741 c 0,0 2.802885,-2.29367 2.740327,-3.87425 -0.07783,-1.96652 -1.823063,-4.32455 -3.779761,-4.53572 -1.071179,-0.11561 -2.55134,1.98438 -2.55134,1.98438 0,0 1.328119,-0.0674 1.700892,0.37797 0.485616,0.5802 0.09449,2.26786 0.09449,2.26786 l -4.063243,-1.13393 0.09449,-2.26786 -2.173362,-1.13393 z"
         inkscape:path-effect="#path-effect1006"
         sodipodi:nodetypes="cccaacaccccc"
         inkscape:connector-curvature="0"
         id="path987"
         d="m 45.546132,289.53494 -0.0945,5.76414 10.110864,1.41741 c 1.473881,-0.7361 2.537155,-2.23935 2.740327,-3.87425 0.139346,-1.1213 -0.124342,-2.30882 -0.818975,-3.20001 -0.347316,-0.4456 -0.797492,-0.81271 -1.310384,-1.04962 -0.512892,-0.23691 -1.088189,-0.34177 -1.650402,-0.28609 -0.565407,0.056 -1.113739,0.27493 -1.562228,0.62376 -0.448488,0.34882 -0.79566,0.82639 -0.989112,1.36062 0.288742,-0.10081 0.605682,-0.1194 0.904233,-0.0531 0.298551,0.0663 0.577785,0.21742 0.796659,0.43103 0.298353,0.29117 0.480124,0.69864 0.497479,1.11517 0.01736,0.41653 -0.129892,0.83771 -0.402989,1.15269 l -4.063243,-1.13393 0.09449,-2.26786 -2.173362,-1.13393 z"
         style="opacity:1;vector-effect:none;fill:#0066ff;fill-opacity:1;stroke:#000000;stroke-width:1.0840627;stroke-linecap:butt;stroke-linejoin:miter;stroke-miterlimit:4;stroke-dasharray:none;stroke-dashoffset:0;stroke-opacity:1" />
      <path
         style="fill:none;stroke:#000000;stroke-width:1.0840627;stroke-linecap:butt;stroke-linejoin:miter;stroke-miterlimit:4;stroke-dasharray:none;stroke-opacity:1"
         d="m 44.677085,251.1643 c 1.080008,-2.35241 1.157811,-5.14561 0.210426,-7.55449 -0.356718,-0.90702 -0.856504,-1.76548 -1.529483,-2.47048 -0.672979,-0.70499 -1.524889,-1.25208 -2.468613,-1.49562 -0.916157,-0.23642 -1.882646,-0.18339 -2.8134,-0.35349 -0.465377,-0.0851 -0.925671,-0.22834 -1.32717,-0.47856 -0.401498,-0.25022 -0.742121,-0.61415 -0.909657,-1.05658 -0.203543,-0.53751 -0.135681,-1.15295 0.09932,-1.67747 0.235001,-0.52453 0.624806,-0.9666 1.058024,-1.34432 0.933624,-0.81402 2.088701,-1.35915 3.298118,-1.62673 1.209416,-0.26758 2.471728,-0.2627 3.692158,-0.051 2.44086,0.42349 4.673284,1.65179 6.687422,3.09415 2.358865,1.68922 4.504115,3.71658 6.102357,6.13801 1.427416,2.16262 2.401328,4.62308 2.840752,7.17677"
         id="path1018"
         inkscape:connector-curvature="0"
         sodipodi:nodetypes="caaaaaac"
         inkscape:path-effect="#path-effect1020"
         inkscape:original-d="m 44.677085,251.1643 c 0,0 1.186543,-5.1928 0.210426,-7.55449 -0.690866,-1.67152 -2.375747,-2.93737 -3.998096,-3.9661 -1.489466,-0.94447 -4.302513,-0.39573 -5.050227,-1.88863 -0.486556,-0.97148 0.153409,-2.45384 1.157344,-3.02179 3.882572,-2.19646 9.603806,-0.48042 13.677698,1.41647 2.711978,1.26274 4.544813,3.77899 6.102357,6.13801 1.442023,2.18406 2.840752,7.17677 2.840752,7.17677" />
      <path
         sodipodi:nodetypes="aaaaaaa"
         inkscape:connector-curvature="0"
         id="path1030"
         d="m 49.609374,278.76262 c -0.757747,-0.23415 -1.706946,-0.16312 -2.36235,0.28348 -0.768639,0.52376 -1.334638,1.52679 -1.322917,2.45684 0.0192,1.52355 0.801448,3.55497 2.267857,3.96875 1.07177,0.30243 2.122408,-0.83889 2.929316,-1.60639 0.696751,-0.66272 1.655752,-1.50608 1.511904,-2.45685 -0.200352,-1.32424 -1.744197,-2.25042 -3.02381,-2.64583 z"
         style="fill:#0066ff;fill-opacity:1;stroke:#000000;stroke-width:1.0840627;stroke-linecap:butt;stroke-linejoin:miter;stroke-miterlimit:4;stroke-dasharray:none;stroke-opacity:1" />
    </g>
  </g>
</svg>
