<?xml version="1.0" encoding="UTF-8" standalone="no"?>
<!-- Created with Inkscape (http://www.inkscape.org/) -->

<svg
   xmlns:dc="http://purl.org/dc/elements/1.1/"
   xmlns:cc="http://creativecommons.org/ns#"
   xmlns:rdf="http://www.w3.org/1999/02/22-rdf-syntax-ns#"
   xmlns:svg="http://www.w3.org/2000/svg"
   xmlns="http://www.w3.org/2000/svg"
   xmlns:sodipodi="http://sodipodi.sourceforge.net/DTD/sodipodi-0.dtd"
   xmlns:inkscape="http://www.inkscape.org/namespaces/inkscape"
   width="50"
   height="50"
   viewBox="0 0 13.229167 13.229167"
   version="1.1"
   id="svg8"
   inkscape:version="0.92.2 (5c3e80d, 2017-08-06)"
   sodipodi:docname="bird.svg"
   inkscape:export-filename="E:\School\WEB-151\Git\M6T2\assets\bird.png"
   inkscape:export-xdpi="96"
   inkscape:export-ydpi="96">
  <defs
     id="defs2" />
  <sodipodi:namedview
     id="base"
     pagecolor="#ffffff"
     bordercolor="#666666"
     borderopacity="1.0"
     inkscape:pageopacity="0.0"
     inkscape:pageshadow="2"
     inkscape:zoom="2"
     inkscape:cx="20.783217"
     inkscape:cy="-5.5090575"
     inkscape:document-units="px"
     inkscape:current-layer="layer1"
     showgrid="false"
     units="px"
     inkscape:snap-global="false"
     showguides="false"
     inkscape:window-width="1600"
     inkscape:window-height="848"
     inkscape:window-x="-8"
     inkscape:window-y="-8"
     inkscape:window-maximized="1" />
  <metadata
     id="metadata5">
    <rdf:RDF>
      <cc:Work
         rdf:about="">
        <dc:format>image/svg+xml</dc:format>
        <dc:type
           rdf:resource="http://purl.org/dc/dcmitype/StillImage" />
        <dc:title></dc:title>
      </cc:Work>
    </rdf:RDF>
  </metadata>
  <g
     inkscape:label="Layer 1"
     inkscape:groupmode="layer"
     id="layer1"
     transform="translate(0,-283.77082)">
    <g
       id="g4521"
       transform="matrix(0.75561887,0,0,0.90217525,3.8313168,28.926456)">
      <path
         sodipodi:nodetypes="aaaaaaaa"
         inkscape:connector-curvature="0"
         id="path4506"
         d="m 6.2177085,288.40103 c -0.9838174,0.0662 -2.149201,-0.0976 -2.9104167,0.52917 -0.840788,0.69228 -1.3754755,1.96938 -1.1906251,3.0427 0.1485611,0.86261 0.8899841,1.70585 1.7197917,1.98438 1.4102618,0.47337 3.0673627,-0.1998 4.3656251,-0.92604 1.0616571,-0.59389 2.4824425,-1.42976 2.5135415,-2.64584 0.02079,-0.81285 -0.8566835,-1.49563 -1.5874998,-1.85208 -0.8728509,-0.42573 -1.9414691,-0.19752 -2.9104167,-0.13229 z"
         style="opacity:1;vector-effect:none;fill:#ffcc00;fill-opacity:1;stroke:#000000;stroke-width:1.05833328;stroke-linecap:butt;stroke-linejoin:miter;stroke-miterlimit:4;stroke-dasharray:none;stroke-dashoffset:0;stroke-opacity:1" />
      <path
         sodipodi:nodetypes="aaaaaa"
         inkscape:connector-curvature="0"
         id="path4508"
         d="m 7.4110009,286.1685 c -1.7168838,0.38248 -4.2940181,1.39809 -4.1329731,2.96704 0.1103757,1.07531 1.9875207,1.50386 3.1997211,1.54285 1.5106483,0.0486 3.4097768,-0.47989 4.1329741,-1.66154 0.429982,-0.70256 0.222929,-1.79688 -0.399966,-2.37362 -0.6584328,-0.60965 -1.8781461,-0.68005 -2.7997561,-0.47473 z"
         style="opacity:1;vector-effect:none;fill:#ffcc00;fill-opacity:1;stroke:#000000;stroke-width:1.00630939;stroke-linecap:butt;stroke-linejoin:miter;stroke-miterlimit:4;stroke-dasharray:none;stroke-dashoffset:0;stroke-opacity:1" />
      <path
         sodipodi:nodetypes="cacac"
         inkscape:connector-curvature="0"
         id="path4510"
         d="m 9.4882924,286.8833 c 0,0 1.7429316,0.85627 2.1759156,1.65902 0.221509,0.41068 0.0978,1.3964 0.0978,1.3964 0,0 -1.364443,-0.14979 -2.0464378,-0.11031 -0.7853243,0.0455 -2.3261012,0.39807 -2.3261012,0.39807"
         style="opacity:1;vector-effect:none;fill:#ff6600;fill-opacity:1;stroke:#000000;stroke-width:0.96911007;stroke-linecap:butt;stroke-linejoin:miter;stroke-miterlimit:4;stroke-dasharray:none;stroke-dashoffset:0;stroke-opacity:1" />
      <path
         sodipodi:nodetypes="cacac"
         inkscape:connector-curvature="0"
         id="path4512"
         d="m 7.7117675,291.96972 c 0,0 -3.1017408,-3.98747 -5.5951007,-4.75932 -1.74352859,-0.53973 -5.5562502,0.39688 -5.5562502,0.39688 0,0 2.77801421,1.49656 3.96875011,2.51354 1.11666659,0.95372 2.91041669,3.30729 2.91041669,3.30729"
         style="opacity:1;vector-effect:none;fill:#ffcc00;fill-opacity:1;stroke:#000000;stroke-width:1.05833328;stroke-linecap:butt;stroke-linejoin:miter;stroke-miterlimit:4;stroke-dasharray:none;stroke-dashoffset:0;stroke-opacity:1" />
      <ellipse
         ry="0.9921875"
         rx="1.0583334"
         cy="288.20258"
         cx="7.4083333"
         id="path4514"
         style="opacity:1;vector-effect:none;fill:#ffffff;fill-opacity:1;stroke:#000000;stroke-width:0.5291667;stroke-linecap:butt;stroke-linejoin:miter;stroke-miterlimit:4;stroke-dasharray:none;stroke-dashoffset:0;stroke-opacity:1" />
    </g>
  </g>
</svg>
